<svg viewBox="0 0 2140 603" fill="none"
  xmlns="http://www.w3.org/2000/svg">
  <rect x="379" y="77.5371" width="1250" height="432" rx="80" fill="#14AE5C" stroke="#108B4A" stroke-width="4" stroke-miterlimit="0" stroke-linecap="round"/>
  <rect x="852" y="221" width="304" height="208" rx="6" fill="#08D769" stroke="#06AC54" stroke-width="4" stroke-miterlimit="0" stroke-linecap="round"/>
  <path d="M955.643 311H959.764L968.045 289.867H963.201L958.026 305.199L957.713 306.605L957.401 305.199L952.166 289.867H947.322L955.643 311ZM971.013 300.238V300.648C971.013 302.198 971.234 303.624 971.677 304.926C972.12 306.228 972.764 307.361 973.61 308.324C974.444 309.288 975.472 310.043 976.696 310.59C977.92 311.137 979.307 311.41 980.857 311.41C982.393 311.41 983.767 311.137 984.978 310.59C986.202 310.043 987.23 309.288 988.064 308.324C988.897 307.361 989.535 306.228 989.978 304.926C990.42 303.624 990.642 302.198 990.642 300.648V300.238C990.642 298.702 990.42 297.283 989.978 295.98C989.535 294.665 988.897 293.526 988.064 292.562C987.217 291.599 986.182 290.844 984.958 290.297C983.747 289.75 982.367 289.477 980.817 289.477C979.268 289.477 977.888 289.75 976.677 290.297C975.466 290.844 974.444 291.599 973.61 292.562C972.764 293.526 972.12 294.665 971.677 295.98C971.234 297.283 971.013 298.702 971.013 300.238ZM975.681 300.648V300.238C975.681 299.314 975.778 298.428 975.974 297.582C976.182 296.736 976.501 295.993 976.931 295.355C977.347 294.717 977.875 294.21 978.513 293.832C979.164 293.454 979.932 293.266 980.817 293.266C981.716 293.266 982.484 293.454 983.122 293.832C983.773 294.21 984.314 294.717 984.743 295.355C985.147 295.993 985.453 296.736 985.661 297.582C985.87 298.428 985.974 299.314 985.974 300.238V300.648C985.974 301.599 985.87 302.497 985.661 303.344C985.466 304.19 985.16 304.932 984.743 305.57C984.327 306.208 983.793 306.716 983.142 307.094C982.491 307.458 981.729 307.641 980.857 307.641C979.958 307.641 979.183 307.458 978.532 307.094C977.881 306.716 977.347 306.208 976.931 305.57C976.501 304.932 976.182 304.19 975.974 303.344C975.778 302.497 975.681 301.599 975.681 300.648ZM996.09 289.867V293.754H1002.59V307.133H996.09V311H1013.51V307.133H1007.3V289.867H996.09ZM1002.16 284.398C1002.16 284.893 1002.28 285.329 1002.52 285.707C1002.76 286.072 1003.12 286.326 1003.59 286.469C1004.05 286.612 1004.46 286.645 1004.84 286.566C1005.22 286.488 1005.54 286.326 1005.82 286.078C1006.36 285.935 1006.78 285.655 1007.07 285.238C1007.35 284.809 1007.45 284.307 1007.36 283.734C1007.29 283.174 1007.04 282.719 1006.6 282.367C1006.17 282.003 1005.6 281.82 1004.9 281.82C1004.48 281.82 1004.1 281.885 1003.77 282.016C1003.44 282.133 1003.16 282.302 1002.93 282.523C1002.68 282.758 1002.49 283.038 1002.36 283.363C1002.23 283.676 1002.16 284.021 1002.16 284.398ZM1017.53 300.277V300.688C1017.53 302.211 1017.73 303.63 1018.12 304.945C1018.51 306.247 1019.06 307.374 1019.78 308.324C1020.5 309.288 1021.37 310.043 1022.4 310.59C1023.43 311.124 1024.58 311.391 1025.87 311.391C1027.1 311.391 1028.18 311.169 1029.12 310.727C1030.05 310.271 1030.86 309.626 1031.54 308.793L1031.75 311H1035.99V281H1031.32V291.84C1030.65 291.085 1029.86 290.505 1028.98 290.102C1028.11 289.685 1027.08 289.477 1025.91 289.477C1024.61 289.477 1023.44 289.743 1022.4 290.277C1021.37 290.798 1020.5 291.534 1019.78 292.484C1019.05 293.435 1018.49 294.574 1018.1 295.902C1017.72 297.217 1017.53 298.676 1017.53 300.277ZM1022.2 300.688V300.277C1022.2 299.327 1022.29 298.435 1022.48 297.602C1022.66 296.755 1022.95 296.013 1023.35 295.375C1023.73 294.737 1024.23 294.236 1024.84 293.871C1025.46 293.507 1026.21 293.324 1027.08 293.324C1028.13 293.324 1028.99 293.559 1029.66 294.027C1030.35 294.483 1030.91 295.102 1031.32 295.883V304.965C1030.91 305.759 1030.35 306.391 1029.66 306.859C1028.97 307.315 1028.1 307.543 1027.05 307.543C1026.19 307.543 1025.45 307.367 1024.84 307.016C1024.23 306.651 1023.73 306.15 1023.33 305.512C1022.94 304.9 1022.66 304.177 1022.48 303.344C1022.29 302.51 1022.2 301.625 1022.2 300.688ZM925.624 379.125H930.292V369.086C930.54 369.359 930.807 369.613 931.093 369.848C931.38 370.082 931.679 370.29 931.992 370.473C932.525 370.772 933.105 371 933.73 371.156C934.368 371.312 935.064 371.391 935.82 371.391C937.148 371.391 938.326 371.117 939.355 370.57C940.383 370.023 941.249 369.268 941.952 368.305C942.656 367.354 943.183 366.221 943.535 364.906C943.899 363.591 944.081 362.172 944.081 360.648V360.238C944.081 358.65 943.899 357.198 943.535 355.883C943.17 354.555 942.643 353.415 941.952 352.465C941.249 351.514 940.377 350.779 939.335 350.258C938.307 349.737 937.115 349.477 935.761 349.477C935.071 349.477 934.42 349.555 933.808 349.711C933.196 349.854 932.636 350.062 932.128 350.336C931.738 350.544 931.373 350.792 931.035 351.078C930.696 351.365 930.383 351.684 930.097 352.035L929.921 349.867H925.624V379.125ZM939.413 360.238V360.648C939.413 361.586 939.322 362.478 939.14 363.324C938.958 364.158 938.665 364.9 938.261 365.551C937.87 366.189 937.363 366.697 936.738 367.074C936.126 367.439 935.383 367.621 934.511 367.621C933.977 367.621 933.489 367.562 933.046 367.445C932.604 367.315 932.206 367.146 931.855 366.938C931.516 366.716 931.217 366.456 930.956 366.156C930.696 365.857 930.475 365.525 930.292 365.16V355.766C930.501 355.375 930.742 355.023 931.015 354.711C931.301 354.398 931.633 354.138 932.011 353.93C932.337 353.734 932.708 353.585 933.124 353.48C933.541 353.376 933.99 353.324 934.472 353.324C935.344 353.324 936.093 353.507 936.718 353.871C937.343 354.236 937.857 354.73 938.261 355.355C938.652 355.98 938.938 356.716 939.12 357.562C939.316 358.396 939.413 359.288 939.413 360.238ZM947.869 360.238V360.648C947.869 362.198 948.091 363.624 948.533 364.926C948.976 366.228 949.621 367.361 950.467 368.324C951.3 369.288 952.329 370.043 953.553 370.59C954.777 371.137 956.164 371.41 957.713 371.41C959.25 371.41 960.623 371.137 961.834 370.59C963.058 370.043 964.087 369.288 964.92 368.324C965.753 367.361 966.392 366.228 966.834 364.926C967.277 363.624 967.498 362.198 967.498 360.648V360.238C967.498 358.702 967.277 357.283 966.834 355.98C966.392 354.665 965.753 353.526 964.92 352.562C964.074 351.599 963.039 350.844 961.815 350.297C960.604 349.75 959.224 349.477 957.674 349.477C956.125 349.477 954.744 349.75 953.533 350.297C952.323 350.844 951.3 351.599 950.467 352.562C949.621 353.526 948.976 354.665 948.533 355.98C948.091 357.283 947.869 358.702 947.869 360.238ZM952.537 360.648V360.238C952.537 359.314 952.635 358.428 952.83 357.582C953.039 356.736 953.358 355.993 953.787 355.355C954.204 354.717 954.731 354.21 955.369 353.832C956.02 353.454 956.789 353.266 957.674 353.266C958.573 353.266 959.341 353.454 959.979 353.832C960.63 354.21 961.17 354.717 961.6 355.355C962.003 355.993 962.309 356.736 962.518 357.582C962.726 358.428 962.83 359.314 962.83 360.238V360.648C962.83 361.599 962.726 362.497 962.518 363.344C962.323 364.19 962.017 364.932 961.6 365.57C961.183 366.208 960.649 366.716 959.998 367.094C959.347 367.458 958.586 367.641 957.713 367.641C956.815 367.641 956.04 367.458 955.389 367.094C954.738 366.716 954.204 366.208 953.787 365.57C953.358 364.932 953.039 364.19 952.83 363.344C952.635 362.497 952.537 361.599 952.537 360.648ZM972.946 349.867V353.754H979.45V367.133H972.946V371H990.368V367.133H984.157V349.867H972.946ZM979.021 344.398C979.021 344.893 979.138 345.329 979.372 345.707C979.62 346.072 979.978 346.326 980.446 346.469C980.902 346.612 981.319 346.645 981.696 346.566C982.074 346.488 982.4 346.326 982.673 346.078C983.22 345.935 983.637 345.655 983.923 345.238C984.209 344.809 984.307 344.307 984.216 343.734C984.151 343.174 983.897 342.719 983.454 342.367C983.025 342.003 982.458 341.82 981.755 341.82C981.338 341.82 980.961 341.885 980.622 342.016C980.297 342.133 980.017 342.302 979.782 342.523C979.535 342.758 979.346 343.038 979.216 343.363C979.086 343.676 979.021 344.021 979.021 344.398ZM995.016 371H999.684V355.922C999.892 355.57 1000.13 355.245 1000.41 354.945C1000.68 354.646 1000.97 354.392 1001.29 354.184C1001.69 353.91 1002.14 353.702 1002.63 353.559C1003.13 353.402 1003.66 353.324 1004.23 353.324C1004.92 353.324 1005.54 353.402 1006.07 353.559C1006.6 353.702 1007.06 353.949 1007.44 354.301C1007.82 354.652 1008.1 355.121 1008.3 355.707C1008.49 356.293 1008.59 357.022 1008.59 357.895V371H1013.26V357.816C1013.26 356.332 1013.08 355.069 1012.73 354.027C1012.38 352.973 1011.88 352.107 1011.25 351.43C1010.61 350.753 1009.84 350.258 1008.94 349.945C1008.04 349.633 1007.05 349.477 1005.97 349.477C1005.15 349.477 1004.37 349.594 1003.63 349.828C1002.89 350.062 1002.2 350.395 1001.58 350.824C1001.19 351.098 1000.82 351.41 1000.46 351.762C1000.13 352.1 999.814 352.471 999.527 352.875L999.234 349.867H995.016V371ZM1027.53 344.711H1022.85V349.867H1017.73V353.363H1022.85V363.754C1022.85 365.108 1023.02 366.267 1023.37 367.23C1023.74 368.194 1024.24 368.982 1024.88 369.594C1025.52 370.219 1026.28 370.681 1027.16 370.98C1028.06 371.267 1029.04 371.41 1030.11 371.41C1030.7 371.41 1031.28 371.378 1031.87 371.312C1032.47 371.26 1033.04 371.182 1033.59 371.078C1034.14 370.974 1034.64 370.85 1035.11 370.707C1035.59 370.551 1036 370.368 1036.34 370.16L1035.83 366.938C1035.6 366.99 1035.31 367.055 1034.96 367.133C1034.62 367.198 1034.25 367.257 1033.86 367.309C1033.46 367.374 1033.04 367.426 1032.61 367.465C1032.18 367.504 1031.77 367.523 1031.36 367.523C1030.8 367.523 1030.29 367.458 1029.82 367.328C1029.35 367.198 1028.95 366.977 1028.61 366.664C1028.27 366.365 1028 365.954 1027.81 365.434C1027.63 364.9 1027.53 364.242 1027.53 363.461V353.363H1035.48V349.867H1027.53V344.711ZM1051.17 371.391C1053.22 371.391 1054.97 370.987 1056.42 370.18C1057.88 369.372 1058.96 368.461 1059.66 367.445L1057.16 365.023C1056.51 365.857 1055.68 366.501 1054.68 366.957C1053.68 367.4 1052.6 367.621 1051.44 367.621C1050.59 367.621 1049.81 367.478 1049.1 367.191C1048.39 366.905 1047.78 366.501 1047.26 365.98C1046.74 365.486 1046.33 364.926 1046.03 364.301C1045.73 363.676 1045.51 362.901 1045.36 361.977V361.879H1060.01V359.867C1060.01 358.357 1059.81 356.964 1059.41 355.688C1059 354.411 1058.41 353.311 1057.61 352.387C1056.82 351.475 1055.83 350.766 1054.66 350.258C1053.49 349.737 1052.14 349.477 1050.62 349.477C1049.25 349.477 1047.96 349.737 1046.75 350.258C1045.55 350.766 1044.5 351.495 1043.59 352.445C1042.68 353.396 1041.96 354.542 1041.44 355.883C1040.92 357.224 1040.66 358.721 1040.66 360.375V361.176C1040.66 362.621 1040.91 363.969 1041.4 365.219C1041.91 366.456 1042.62 367.53 1043.55 368.441C1044.47 369.366 1045.58 370.089 1046.87 370.609C1048.17 371.13 1049.6 371.391 1051.17 371.391ZM1050.6 353.266C1051.38 353.266 1052.06 353.402 1052.65 353.676C1053.25 353.936 1053.74 354.288 1054.13 354.73C1054.54 355.186 1054.85 355.72 1055.07 356.332C1055.29 356.931 1055.4 357.536 1055.4 358.148V358.461H1045.46C1045.61 357.654 1045.83 356.931 1046.13 356.293C1046.43 355.655 1046.8 355.108 1047.24 354.652C1047.68 354.21 1048.18 353.871 1048.74 353.637C1049.32 353.389 1049.94 353.266 1050.6 353.266ZM1079.06 349.477C1077.6 349.477 1076.26 349.815 1075.05 350.492C1073.85 351.169 1072.82 352.1 1071.97 353.285L1071.95 352.797L1071.75 349.867H1067.38V371H1072.04V357.953C1072.29 357.328 1072.6 356.775 1072.96 356.293C1073.33 355.811 1073.77 355.414 1074.29 355.102C1074.77 354.776 1075.32 354.535 1075.95 354.379C1076.57 354.223 1077.28 354.145 1078.06 354.145C1078.75 354.145 1079.44 354.184 1080.13 354.262C1080.83 354.34 1081.54 354.457 1082.26 354.613L1082.92 350.004C1082.52 349.861 1081.96 349.737 1081.24 349.633C1080.54 349.529 1079.81 349.477 1079.06 349.477Z" fill="white"/>
  <path d="M859.695 171.875V160H855.027V190H859.695V174.707C859.917 174.368 860.171 174.062 860.457 173.789C860.757 173.516 861.076 173.281 861.414 173.086C861.818 172.839 862.26 172.65 862.742 172.52C863.237 172.389 863.758 172.324 864.305 172.324C865.008 172.324 865.626 172.422 866.16 172.617C866.707 172.799 867.169 173.086 867.547 173.477C867.911 173.841 868.185 174.316 868.367 174.902C868.562 175.488 868.66 176.172 868.66 176.953V190H873.328V176.992C873.328 175.495 873.146 174.212 872.781 173.145C872.43 172.064 871.928 171.178 871.277 170.488C870.626 169.798 869.839 169.29 868.914 168.965C868.003 168.639 866.993 168.477 865.887 168.477C865.092 168.477 864.337 168.594 863.621 168.828C862.918 169.049 862.273 169.375 861.688 169.805C861.31 170.065 860.952 170.371 860.613 170.723C860.275 171.074 859.969 171.458 859.695 171.875ZM888.034 190.391C890.091 190.391 891.843 189.987 893.288 189.18C894.746 188.372 895.827 187.461 896.53 186.445L894.03 184.023C893.379 184.857 892.552 185.501 891.55 185.957C890.547 186.4 889.466 186.621 888.308 186.621C887.461 186.621 886.68 186.478 885.964 186.191C885.261 185.905 884.649 185.501 884.128 184.98C883.607 184.486 883.197 183.926 882.897 183.301C882.598 182.676 882.377 181.901 882.233 180.977V180.879H896.882V178.867C896.882 177.357 896.68 175.964 896.276 174.688C895.873 173.411 895.274 172.311 894.479 171.387C893.685 170.475 892.702 169.766 891.53 169.258C890.358 168.737 889.011 168.477 887.487 168.477C886.12 168.477 884.831 168.737 883.62 169.258C882.422 169.766 881.367 170.495 880.456 171.445C879.544 172.396 878.828 173.542 878.308 174.883C877.787 176.224 877.526 177.721 877.526 179.375V180.176C877.526 181.621 877.774 182.969 878.268 184.219C878.776 185.456 879.492 186.53 880.417 187.441C881.341 188.366 882.448 189.089 883.737 189.609C885.039 190.13 886.472 190.391 888.034 190.391ZM887.468 172.266C888.249 172.266 888.933 172.402 889.518 172.676C890.117 172.936 890.612 173.288 891.003 173.73C891.406 174.186 891.719 174.72 891.94 175.332C892.162 175.931 892.272 176.536 892.272 177.148V177.461H882.331C882.474 176.654 882.696 175.931 882.995 175.293C883.294 174.655 883.666 174.108 884.108 173.652C884.551 173.21 885.052 172.871 885.612 172.637C886.185 172.389 886.804 172.266 887.468 172.266ZM914.81 190H919.576V189.668C919.316 189.121 919.114 188.47 918.97 187.715C918.84 186.947 918.775 186.087 918.775 185.137V175.742C918.775 174.544 918.554 173.49 918.111 172.578C917.668 171.654 917.056 170.892 916.275 170.293C915.494 169.694 914.563 169.245 913.482 168.945C912.414 168.633 911.262 168.477 910.025 168.477C908.645 168.477 907.414 168.659 906.334 169.023C905.266 169.375 904.368 169.857 903.638 170.469C902.883 171.068 902.31 171.758 901.92 172.539C901.529 173.32 901.327 174.134 901.314 174.98H906.002C906.002 174.577 906.073 174.199 906.217 173.848C906.373 173.483 906.607 173.177 906.92 172.93C907.232 172.656 907.623 172.441 908.092 172.285C908.573 172.129 909.133 172.051 909.771 172.051C910.474 172.051 911.093 172.142 911.627 172.324C912.174 172.493 912.636 172.741 913.013 173.066C913.365 173.392 913.632 173.776 913.814 174.219C914.01 174.661 914.107 175.156 914.107 175.703V177.129H910.709C909.185 177.129 907.818 177.272 906.607 177.559C905.409 177.845 904.4 178.262 903.58 178.809C902.694 179.395 902.017 180.137 901.549 181.035C901.093 181.921 900.865 182.943 900.865 184.102C900.865 185 901.041 185.84 901.392 186.621C901.757 187.389 902.265 188.047 902.916 188.594C903.554 189.154 904.322 189.596 905.22 189.922C906.132 190.234 907.135 190.391 908.228 190.391C908.905 190.391 909.537 190.326 910.123 190.195C910.709 190.065 911.256 189.883 911.763 189.648C912.271 189.427 912.727 189.167 913.131 188.867C913.547 188.555 913.918 188.229 914.244 187.891C914.309 188.294 914.381 188.685 914.459 189.062C914.55 189.427 914.667 189.74 914.81 190ZM909.127 186.641C908.528 186.641 908.007 186.569 907.564 186.426C907.122 186.27 906.75 186.061 906.451 185.801C906.151 185.54 905.924 185.228 905.767 184.863C905.611 184.486 905.533 184.082 905.533 183.652C905.533 183.132 905.624 182.663 905.806 182.246C906.002 181.829 906.295 181.471 906.685 181.172C907.128 180.82 907.72 180.553 908.463 180.371C909.205 180.176 910.084 180.078 911.099 180.078H914.107V183.984C913.938 184.323 913.697 184.648 913.385 184.961C913.072 185.273 912.701 185.553 912.271 185.801C911.842 186.048 911.36 186.25 910.826 186.406C910.305 186.562 909.739 186.641 909.127 186.641ZM923.833 179.277V179.688C923.833 181.211 924.028 182.63 924.419 183.945C924.809 185.247 925.363 186.374 926.079 187.324C926.795 188.288 927.667 189.043 928.696 189.59C929.725 190.124 930.883 190.391 932.173 190.391C933.396 190.391 934.477 190.169 935.415 189.727C936.352 189.271 937.159 188.626 937.837 187.793L938.051 190H942.29V160H937.622V170.84C936.945 170.085 936.163 169.505 935.278 169.102C934.406 168.685 933.383 168.477 932.212 168.477C930.909 168.477 929.738 168.743 928.696 169.277C927.667 169.798 926.795 170.534 926.079 171.484C925.35 172.435 924.79 173.574 924.399 174.902C924.021 176.217 923.833 177.676 923.833 179.277ZM928.501 179.688V179.277C928.501 178.327 928.592 177.435 928.774 176.602C928.956 175.755 929.249 175.013 929.653 174.375C930.031 173.737 930.525 173.236 931.137 172.871C931.762 172.507 932.511 172.324 933.383 172.324C934.425 172.324 935.284 172.559 935.962 173.027C936.652 173.483 937.205 174.102 937.622 174.883V183.965C937.205 184.759 936.652 185.391 935.962 185.859C935.271 186.315 934.399 186.543 933.344 186.543C932.485 186.543 931.749 186.367 931.137 186.016C930.525 185.651 930.024 185.15 929.633 184.512C929.243 183.9 928.956 183.177 928.774 182.344C928.592 181.51 928.501 180.625 928.501 179.688Z" fill="white"/>
  <rect x="459" y="221.074" width="304" height="208" rx="6" fill="#08D769" stroke="#06AC54" stroke-width="4" stroke-miterlimit="0" stroke-linecap="round"/>
  <path d="M537.175 295.117V298.047H539.753C540.652 298.047 541.472 298.151 542.214 298.359C542.969 298.568 543.614 298.887 544.148 299.316C544.669 299.746 545.072 300.286 545.359 300.938C545.658 301.576 545.808 302.337 545.808 303.223C545.808 304.121 545.678 304.902 545.417 305.566C545.17 306.217 544.812 306.764 544.343 307.207C543.874 307.65 543.308 307.982 542.644 308.203C541.98 308.411 541.238 308.516 540.417 308.516C539.597 308.516 538.848 308.398 538.171 308.164C537.507 307.93 536.941 307.598 536.472 307.168C536.003 306.738 535.639 306.217 535.378 305.605C535.131 304.993 535.007 304.316 535.007 303.574H531.394C531.394 304.824 531.628 305.938 532.097 306.914C532.579 307.891 533.223 308.717 534.031 309.395C534.838 310.072 535.788 310.586 536.882 310.938C537.989 311.289 539.167 311.465 540.417 311.465C541.693 311.465 542.878 311.283 543.972 310.918C545.079 310.54 546.036 309.993 546.843 309.277C547.65 308.574 548.282 307.708 548.738 306.68C549.193 305.651 549.421 304.473 549.421 303.145C549.421 302.493 549.343 301.836 549.187 301.172C549.044 300.508 548.79 299.876 548.425 299.277C548.048 298.678 547.546 298.138 546.921 297.656C546.309 297.174 545.541 296.784 544.617 296.484C545.385 296.159 546.042 295.755 546.589 295.273C547.149 294.779 547.605 294.251 547.956 293.691C548.308 293.145 548.568 292.578 548.738 291.992C548.907 291.406 548.992 290.84 548.992 290.293C548.992 288.978 548.783 287.819 548.367 286.816C547.95 285.814 547.364 284.974 546.609 284.297C545.854 283.62 544.949 283.112 543.894 282.773C542.839 282.422 541.674 282.246 540.398 282.246C539.083 282.246 537.885 282.454 536.804 282.871C535.736 283.275 534.818 283.828 534.05 284.531C533.282 285.247 532.683 286.087 532.253 287.051C531.837 288.001 531.628 289.017 531.628 290.098H535.261C535.261 289.355 535.385 288.685 535.632 288.086C535.88 287.487 536.231 286.973 536.687 286.543C537.13 286.113 537.663 285.788 538.288 285.566C538.926 285.332 539.63 285.215 540.398 285.215C541.192 285.215 541.895 285.319 542.507 285.527C543.132 285.723 543.653 286.022 544.07 286.426C544.499 286.842 544.825 287.37 545.046 288.008C545.268 288.633 545.378 289.368 545.378 290.215C545.378 290.931 545.255 291.589 545.007 292.188C544.76 292.786 544.402 293.301 543.933 293.73C543.451 294.16 542.859 294.499 542.156 294.746C541.466 294.993 540.665 295.117 539.753 295.117H537.175ZM573.541 311.074V308.125H559.264L566.901 299.844C567.617 299.062 568.294 298.281 568.932 297.5C569.583 296.706 570.156 295.905 570.651 295.098C571.132 294.29 571.517 293.477 571.803 292.656C572.089 291.823 572.233 290.983 572.233 290.137C572.233 289.004 572.031 287.956 571.627 286.992C571.237 286.029 570.67 285.195 569.928 284.492C569.186 283.789 568.274 283.242 567.194 282.852C566.126 282.448 564.921 282.246 563.58 282.246C562.122 282.246 560.82 282.48 559.674 282.949C558.541 283.418 557.584 284.049 556.803 284.844C556.009 285.638 555.403 286.569 554.987 287.637C554.57 288.691 554.362 289.818 554.362 291.016H557.994C557.994 290.13 558.105 289.329 558.326 288.613C558.561 287.897 558.912 287.285 559.381 286.777C559.837 286.283 560.41 285.898 561.1 285.625C561.803 285.352 562.63 285.215 563.58 285.215C564.362 285.215 565.058 285.352 565.67 285.625C566.295 285.885 566.829 286.243 567.272 286.699C567.701 287.155 568.027 287.695 568.248 288.32C568.483 288.932 568.6 289.59 568.6 290.293C568.6 290.866 568.528 291.426 568.385 291.973C568.242 292.507 568.001 293.073 567.662 293.672C567.324 294.284 566.875 294.948 566.315 295.664C565.755 296.38 565.058 297.201 564.225 298.125L554.908 308.477V311.074H573.541ZM620.297 300.742V300.332C620.297 299.225 620.206 298.177 620.023 297.188C619.841 296.185 619.574 295.273 619.223 294.453C618.884 293.724 618.493 293.066 618.051 292.48C617.608 291.882 617.107 291.374 616.547 290.957C615.922 290.514 615.225 290.169 614.457 289.922C613.689 289.674 612.849 289.551 611.938 289.551C611.208 289.551 610.531 289.622 609.906 289.766C609.281 289.909 608.708 290.117 608.188 290.391C607.771 290.612 607.38 290.879 607.016 291.191C606.651 291.491 606.319 291.829 606.02 292.207V281.074H602.406V311.074H605.727L605.902 308.672C606.137 308.971 606.384 309.245 606.645 309.492C606.905 309.74 607.178 309.967 607.465 310.176C608.064 310.592 608.734 310.911 609.477 311.133C610.232 311.354 611.065 311.465 611.977 311.465C612.771 311.465 613.507 311.367 614.184 311.172C614.874 310.977 615.505 310.703 616.078 310.352C616.872 309.844 617.549 309.206 618.109 308.438C618.682 307.656 619.145 306.777 619.496 305.801C619.757 305.059 619.952 304.264 620.082 303.418C620.225 302.559 620.297 301.667 620.297 300.742ZM616.684 300.332V300.742C616.684 301.367 616.645 301.979 616.566 302.578C616.488 303.177 616.365 303.737 616.195 304.258C615.987 304.948 615.707 305.573 615.355 306.133C615.004 306.693 614.568 307.155 614.047 307.52C613.656 307.806 613.214 308.027 612.719 308.184C612.224 308.327 611.677 308.398 611.078 308.398C610.453 308.398 609.88 308.32 609.359 308.164C608.839 307.995 608.37 307.76 607.953 307.461C607.536 307.161 607.165 306.816 606.84 306.426C606.527 306.022 606.254 305.586 606.02 305.117V295.879C606.241 295.41 606.508 294.98 606.82 294.59C607.146 294.186 607.517 293.835 607.934 293.535C608.337 293.249 608.799 293.027 609.32 292.871C609.841 292.702 610.414 292.617 611.039 292.617C611.612 292.617 612.133 292.682 612.602 292.812C613.07 292.943 613.493 293.125 613.871 293.359C614.418 293.685 614.88 294.134 615.258 294.707C615.635 295.28 615.941 295.911 616.176 296.602C616.345 297.161 616.469 297.76 616.547 298.398C616.638 299.023 616.684 299.668 616.684 300.332ZM626.097 289.941V293.086H633.284V307.949H626.097V311.074H643.792V307.949H636.897V289.941H626.097ZM632.815 284.395C632.815 284.98 632.991 285.469 633.343 285.859C633.707 286.25 634.254 286.445 634.983 286.445C635.699 286.445 636.24 286.25 636.604 285.859C636.969 285.469 637.151 284.98 637.151 284.395C637.151 284.069 637.099 283.77 636.995 283.496C636.891 283.223 636.735 282.995 636.526 282.812C636.357 282.643 636.142 282.513 635.882 282.422C635.621 282.318 635.322 282.266 634.983 282.266C634.645 282.266 634.339 282.318 634.065 282.422C633.805 282.513 633.59 282.643 633.421 282.812C633.212 283.008 633.056 283.242 632.952 283.516C632.861 283.789 632.815 284.082 632.815 284.395ZM657.228 284.824H653.595V289.941H648.049V292.734H653.595V304.219C653.595 305.521 653.765 306.634 654.103 307.559C654.455 308.47 654.93 309.212 655.529 309.785C656.128 310.371 656.831 310.801 657.638 311.074C658.459 311.335 659.338 311.465 660.275 311.465C660.835 311.465 661.395 311.439 661.955 311.387C662.528 311.335 663.068 311.257 663.576 311.152C664.084 311.061 664.552 310.951 664.982 310.82C665.412 310.677 665.776 310.514 666.076 310.332L665.568 307.773C665.347 307.826 665.06 307.891 664.709 307.969C664.37 308.034 664.006 308.099 663.615 308.164C663.211 308.229 662.801 308.288 662.385 308.34C661.968 308.379 661.564 308.398 661.174 308.398C660.64 308.398 660.132 308.333 659.65 308.203C659.181 308.073 658.765 307.845 658.4 307.52C658.036 307.207 657.749 306.784 657.541 306.25C657.332 305.716 657.228 305.039 657.228 304.219V292.734H665.275V289.941H657.228V284.824ZM533.523 349.941V353.086H540.71V367.949H533.523V371.074H551.218V367.949H544.324V349.941H533.523ZM540.242 344.395C540.242 344.98 540.417 345.469 540.769 345.859C541.133 346.25 541.68 346.445 542.41 346.445C543.126 346.445 543.666 346.25 544.031 345.859C544.395 345.469 544.577 344.98 544.577 344.395C544.577 344.069 544.525 343.77 544.421 343.496C544.317 343.223 544.161 342.995 543.952 342.812C543.783 342.643 543.568 342.513 543.308 342.422C543.048 342.318 542.748 342.266 542.41 342.266C542.071 342.266 541.765 342.318 541.492 342.422C541.231 342.513 541.016 342.643 540.847 342.812C540.639 343.008 540.482 343.242 540.378 343.516C540.287 343.789 540.242 344.082 540.242 344.395ZM556.1 371.074H559.713V355.918C559.961 355.462 560.247 355.046 560.573 354.668C560.911 354.29 561.276 353.958 561.666 353.672C562.148 353.346 562.675 353.092 563.248 352.91C563.821 352.715 564.44 352.617 565.104 352.617C565.872 352.617 566.549 352.708 567.135 352.891C567.734 353.073 568.242 353.366 568.658 353.77C569.062 354.173 569.368 354.701 569.576 355.352C569.785 356.003 569.889 356.797 569.889 357.734V371.074H573.502V357.656C573.502 356.25 573.326 355.039 572.975 354.023C572.636 352.995 572.148 352.148 571.51 351.484C570.872 350.82 570.097 350.332 569.186 350.02C568.287 349.707 567.285 349.551 566.178 349.551C565.358 349.564 564.576 349.688 563.834 349.922C563.105 350.143 562.428 350.462 561.803 350.879C561.386 351.152 560.989 351.478 560.612 351.855C560.247 352.22 559.908 352.624 559.596 353.066L559.342 349.941H556.1V371.074ZM587.798 344.824H584.165V349.941H578.618V352.734H584.165V364.219C584.165 365.521 584.334 366.634 584.673 367.559C585.025 368.47 585.5 369.212 586.099 369.785C586.698 370.371 587.401 370.801 588.208 371.074C589.028 371.335 589.907 371.465 590.845 371.465C591.405 371.465 591.965 371.439 592.525 371.387C593.097 371.335 593.638 371.257 594.146 371.152C594.653 371.061 595.122 370.951 595.552 370.82C595.982 370.677 596.346 370.514 596.646 370.332L596.138 367.773C595.916 367.826 595.63 367.891 595.278 367.969C594.94 368.034 594.575 368.099 594.185 368.164C593.781 368.229 593.371 368.288 592.954 368.34C592.538 368.379 592.134 368.398 591.743 368.398C591.209 368.398 590.702 368.333 590.22 368.203C589.751 368.073 589.334 367.845 588.97 367.52C588.605 367.207 588.319 366.784 588.11 366.25C587.902 365.716 587.798 365.039 587.798 364.219V352.734H595.845V349.941H587.798V344.824ZM611.723 371.465C613.78 371.465 615.505 371.055 616.898 370.234C618.305 369.401 619.359 368.451 620.062 367.383L617.855 365.664C617.191 366.523 616.358 367.214 615.355 367.734C614.353 368.255 613.207 368.516 611.918 368.516C610.941 368.516 610.049 368.333 609.242 367.969C608.435 367.604 607.745 367.103 607.172 366.465C606.612 365.866 606.169 365.176 605.844 364.395C605.531 363.613 605.329 362.708 605.238 361.68V361.543H620.336V359.922C620.336 358.451 620.147 357.083 619.77 355.82C619.405 354.557 618.845 353.457 618.09 352.52C617.335 351.595 616.384 350.872 615.238 350.352C614.105 349.818 612.777 349.551 611.254 349.551C610.043 349.551 608.858 349.798 607.699 350.293C606.553 350.788 605.531 351.497 604.633 352.422C603.721 353.359 602.992 354.505 602.445 355.859C601.898 357.201 601.625 358.724 601.625 360.43V361.25C601.625 362.721 601.872 364.082 602.367 365.332C602.862 366.582 603.552 367.663 604.438 368.574C605.323 369.486 606.384 370.195 607.621 370.703C608.871 371.211 610.238 371.465 611.723 371.465ZM611.254 352.52C612.178 352.52 612.973 352.689 613.637 353.027C614.314 353.366 614.874 353.809 615.316 354.355C615.759 354.902 616.104 355.553 616.352 356.309C616.599 357.051 616.723 357.747 616.723 358.398V358.574H605.355C605.499 357.598 605.746 356.738 606.098 355.996C606.462 355.241 606.905 354.603 607.426 354.082C607.947 353.574 608.533 353.19 609.184 352.93C609.835 352.656 610.525 352.52 611.254 352.52ZM624.866 360.332V360.742C624.866 362.253 625.061 363.665 625.452 364.98C625.843 366.283 626.403 367.415 627.132 368.379C627.848 369.342 628.727 370.098 629.768 370.645C630.81 371.191 631.975 371.465 633.265 371.465C634.033 371.465 634.749 371.38 635.413 371.211C636.077 371.055 636.682 370.827 637.229 370.527C637.581 370.332 637.906 370.104 638.206 369.844C638.518 369.583 638.811 369.297 639.085 368.984V370.801C639.085 371.712 638.955 372.52 638.694 373.223C638.434 373.926 638.063 374.512 637.581 374.98C637.086 375.462 636.494 375.827 635.804 376.074C635.113 376.322 634.339 376.445 633.479 376.445C632.998 376.445 632.516 376.393 632.034 376.289C631.552 376.198 631.071 376.042 630.589 375.82C630.107 375.599 629.632 375.299 629.163 374.922C628.694 374.557 628.238 374.108 627.796 373.574L625.921 375.742C626.403 376.432 626.975 377.012 627.64 377.48C628.317 377.949 629.02 378.32 629.749 378.594C630.465 378.88 631.175 379.082 631.878 379.199C632.581 379.329 633.206 379.395 633.753 379.395C635.081 379.395 636.292 379.199 637.386 378.809C638.479 378.418 639.423 377.845 640.218 377.09C640.999 376.335 641.604 375.417 642.034 374.336C642.477 373.255 642.698 372.018 642.698 370.625V349.941H639.417L639.241 352.246C638.994 351.934 638.727 351.647 638.44 351.387C638.167 351.126 637.874 350.898 637.561 350.703C636.988 350.326 636.344 350.039 635.628 349.844C634.925 349.648 634.15 349.551 633.304 349.551C631.988 349.551 630.81 349.818 629.768 350.352C628.727 350.885 627.841 351.628 627.112 352.578C626.383 353.529 625.823 354.668 625.432 355.996C625.055 357.311 624.866 358.757 624.866 360.332ZM628.479 360.742V360.332C628.479 359.303 628.584 358.327 628.792 357.402C629.013 356.465 629.358 355.638 629.827 354.922C630.283 354.219 630.869 353.659 631.585 353.242C632.314 352.826 633.186 352.617 634.202 352.617C634.801 352.617 635.348 352.695 635.843 352.852C636.337 352.995 636.787 353.197 637.19 353.457C637.594 353.73 637.952 354.049 638.265 354.414C638.577 354.779 638.85 355.182 639.085 355.625V365.312C638.85 365.768 638.577 366.185 638.265 366.562C637.952 366.94 637.6 367.266 637.21 367.539C636.806 367.812 636.35 368.027 635.843 368.184C635.348 368.327 634.788 368.398 634.163 368.398C633.16 368.398 632.301 368.197 631.585 367.793C630.869 367.376 630.283 366.816 629.827 366.113C629.358 365.41 629.013 364.596 628.792 363.672C628.584 362.747 628.479 361.771 628.479 360.742ZM658.01 371.465C660.067 371.465 661.792 371.055 663.185 370.234C664.592 369.401 665.646 368.451 666.349 367.383L664.142 365.664C663.478 366.523 662.645 367.214 661.642 367.734C660.64 368.255 659.494 368.516 658.205 368.516C657.228 368.516 656.336 368.333 655.529 367.969C654.722 367.604 654.032 367.103 653.459 366.465C652.899 365.866 652.456 365.176 652.131 364.395C651.818 363.613 651.616 362.708 651.525 361.68V361.543H666.623V359.922C666.623 358.451 666.434 357.083 666.056 355.82C665.692 354.557 665.132 353.457 664.377 352.52C663.622 351.595 662.671 350.872 661.525 350.352C660.392 349.818 659.064 349.551 657.541 349.551C656.33 349.551 655.145 349.798 653.986 350.293C652.84 350.788 651.818 351.497 650.92 352.422C650.008 353.359 649.279 354.505 648.732 355.859C648.185 357.201 647.912 358.724 647.912 360.43V361.25C647.912 362.721 648.159 364.082 648.654 365.332C649.149 366.582 649.839 367.663 650.724 368.574C651.61 369.486 652.671 370.195 653.908 370.703C655.158 371.211 656.525 371.465 658.01 371.465ZM657.541 352.52C658.465 352.52 659.26 352.689 659.924 353.027C660.601 353.366 661.161 353.809 661.603 354.355C662.046 354.902 662.391 355.553 662.638 356.309C662.886 357.051 663.01 357.747 663.01 358.398V358.574H651.642C651.786 357.598 652.033 356.738 652.385 355.996C652.749 355.241 653.192 354.603 653.713 354.082C654.233 353.574 654.819 353.19 655.47 352.93C656.122 352.656 656.812 352.52 657.541 352.52ZM685.665 349.551C684.128 349.551 682.755 349.889 681.544 350.566C680.346 351.23 679.317 352.142 678.458 353.301L678.438 352.773L678.282 349.941H674.844V371.074H678.477V357.52C678.712 356.868 679.005 356.283 679.356 355.762C679.721 355.228 680.144 354.779 680.626 354.414C681.159 353.997 681.784 353.685 682.501 353.477C683.217 353.255 684.018 353.145 684.903 353.145C685.593 353.145 686.251 353.184 686.876 353.262C687.514 353.327 688.184 353.438 688.887 353.594L689.376 350.059C689.011 349.902 688.464 349.779 687.735 349.688C687.019 349.596 686.329 349.551 685.665 349.551Z" fill="white"/>
  <path d="M471.402 163.248H466.715V168.404H461.598V171.9H466.715V182.291C466.715 183.645 466.891 184.804 467.242 185.768C467.607 186.731 468.108 187.519 468.746 188.131C469.384 188.756 470.146 189.218 471.031 189.518C471.93 189.804 472.913 189.947 473.98 189.947C474.566 189.947 475.152 189.915 475.738 189.85C476.337 189.798 476.91 189.719 477.457 189.615C478.004 189.511 478.512 189.387 478.98 189.244C479.462 189.088 479.872 188.906 480.211 188.697L479.703 185.475C479.469 185.527 479.176 185.592 478.824 185.67C478.486 185.735 478.121 185.794 477.73 185.846C477.327 185.911 476.91 185.963 476.48 186.002C476.051 186.041 475.634 186.061 475.23 186.061C474.671 186.061 474.156 185.995 473.688 185.865C473.219 185.735 472.815 185.514 472.477 185.201C472.138 184.902 471.871 184.492 471.676 183.971C471.493 183.437 471.402 182.779 471.402 181.998V171.9H479.352V168.404H471.402V163.248ZM498.667 189.537H503.433V189.205C503.172 188.658 502.97 188.007 502.827 187.252C502.697 186.484 502.632 185.624 502.632 184.674V175.279C502.632 174.081 502.41 173.027 501.968 172.115C501.525 171.191 500.913 170.429 500.132 169.83C499.35 169.231 498.419 168.782 497.339 168.482C496.271 168.17 495.119 168.014 493.882 168.014C492.502 168.014 491.271 168.196 490.19 168.561C489.123 168.912 488.224 169.394 487.495 170.006C486.74 170.605 486.167 171.295 485.776 172.076C485.386 172.857 485.184 173.671 485.171 174.518H489.858C489.858 174.114 489.93 173.736 490.073 173.385C490.229 173.02 490.464 172.714 490.776 172.467C491.089 172.193 491.479 171.979 491.948 171.822C492.43 171.666 492.99 171.588 493.628 171.588C494.331 171.588 494.949 171.679 495.483 171.861C496.03 172.031 496.492 172.278 496.87 172.604C497.222 172.929 497.488 173.313 497.671 173.756C497.866 174.199 497.964 174.693 497.964 175.24V176.666H494.565C493.042 176.666 491.675 176.809 490.464 177.096C489.266 177.382 488.257 177.799 487.436 178.346C486.551 178.932 485.874 179.674 485.405 180.572C484.949 181.458 484.722 182.48 484.722 183.639C484.722 184.537 484.897 185.377 485.249 186.158C485.613 186.926 486.121 187.584 486.772 188.131C487.41 188.691 488.179 189.133 489.077 189.459C489.988 189.771 490.991 189.928 492.085 189.928C492.762 189.928 493.393 189.863 493.979 189.732C494.565 189.602 495.112 189.42 495.62 189.186C496.128 188.964 496.584 188.704 496.987 188.404C497.404 188.092 497.775 187.766 498.1 187.428C498.166 187.831 498.237 188.222 498.315 188.6C498.406 188.964 498.524 189.277 498.667 189.537ZM492.983 186.178C492.384 186.178 491.863 186.106 491.421 185.963C490.978 185.807 490.607 185.598 490.308 185.338C490.008 185.077 489.78 184.765 489.624 184.4C489.468 184.023 489.39 183.619 489.39 183.189C489.39 182.669 489.481 182.2 489.663 181.783C489.858 181.367 490.151 181.008 490.542 180.709C490.985 180.357 491.577 180.09 492.319 179.908C493.061 179.713 493.94 179.615 494.956 179.615H497.964V183.521C497.794 183.86 497.554 184.186 497.241 184.498C496.929 184.811 496.558 185.09 496.128 185.338C495.698 185.585 495.216 185.787 494.683 185.943C494.162 186.1 493.595 186.178 492.983 186.178ZM507.709 178.814V179.225C507.709 180.748 507.904 182.167 508.295 183.482C508.698 184.785 509.265 185.911 509.994 186.861C510.736 187.825 511.628 188.58 512.67 189.127C513.711 189.661 514.883 189.928 516.185 189.928C516.901 189.928 517.566 189.85 518.178 189.693C518.789 189.55 519.349 189.335 519.857 189.049C520.196 188.867 520.508 188.652 520.795 188.404C521.094 188.157 521.381 187.89 521.654 187.604V189.068C521.654 189.863 521.537 190.572 521.303 191.197C521.081 191.822 520.762 192.35 520.345 192.779C519.89 193.222 519.336 193.561 518.685 193.795C518.047 194.029 517.312 194.146 516.478 194.146C515.997 194.146 515.521 194.094 515.053 193.99C514.584 193.899 514.122 193.749 513.666 193.541C513.21 193.333 512.761 193.059 512.318 192.721C511.888 192.395 511.485 192.005 511.107 191.549L508.9 194.381C509.369 195.006 509.929 195.54 510.58 195.982C511.231 196.425 511.914 196.783 512.631 197.057C513.347 197.33 514.063 197.532 514.779 197.662C515.495 197.792 516.153 197.857 516.752 197.857C518.171 197.857 519.467 197.656 520.638 197.252C521.823 196.861 522.839 196.288 523.685 195.533C524.519 194.765 525.163 193.827 525.619 192.721C526.088 191.627 526.322 190.37 526.322 188.951V168.404H522.084L521.888 170.533C521.628 170.221 521.348 169.934 521.049 169.674C520.749 169.4 520.43 169.166 520.092 168.971C519.571 168.658 518.991 168.424 518.353 168.268C517.715 168.098 517.006 168.014 516.224 168.014C514.909 168.014 513.724 168.281 512.67 168.814C511.628 169.335 510.736 170.071 509.994 171.021C509.252 171.972 508.685 173.111 508.295 174.439C507.904 175.755 507.709 177.213 507.709 178.814ZM512.396 179.225V178.814C512.396 177.864 512.494 176.972 512.689 176.139C512.885 175.292 513.191 174.55 513.607 173.912C514.011 173.274 514.525 172.773 515.15 172.408C515.775 172.044 516.524 171.861 517.396 171.861C517.891 171.861 518.347 171.92 518.763 172.037C519.18 172.141 519.558 172.285 519.896 172.467C520.274 172.688 520.606 172.955 520.892 173.268C521.192 173.58 521.446 173.932 521.654 174.322V183.58C521.446 183.958 521.205 184.303 520.931 184.615C520.658 184.928 520.345 185.195 519.994 185.416C519.642 185.624 519.245 185.787 518.803 185.904C518.373 186.021 517.891 186.08 517.357 186.08C516.498 186.08 515.756 185.904 515.131 185.553C514.506 185.188 513.991 184.687 513.588 184.049C513.171 183.437 512.865 182.714 512.67 181.881C512.487 181.048 512.396 180.162 512.396 179.225Z" fill="white"/>
  <path d="M415.188 35.2773V35.6875C415.188 37.224 415.376 38.6497 415.754 39.9648C416.132 41.2669 416.678 42.3932 417.395 43.3438C418.098 44.2943 418.957 45.043 419.973 45.5898C421.001 46.1237 422.16 46.3906 423.449 46.3906C424.634 46.3906 425.676 46.1628 426.574 45.707C427.473 45.2513 428.254 44.6133 428.918 43.793L429.191 46H434.094V16H428.645V26.7617C427.993 26.0326 427.245 25.4727 426.398 25.082C425.565 24.6784 424.595 24.4766 423.488 24.4766C422.173 24.4766 421.001 24.737 419.973 25.2578C418.957 25.7786 418.091 26.5143 417.375 27.4648C416.659 28.4154 416.112 29.5547 415.734 30.8828C415.37 32.2109 415.188 33.6758 415.188 35.2773ZM420.617 35.6875V35.2773C420.617 34.3919 420.695 33.5651 420.852 32.7969C421.008 32.0156 421.255 31.332 421.594 30.7461C421.932 30.1732 422.368 29.724 422.902 29.3984C423.449 29.0599 424.107 28.8906 424.875 28.8906C425.799 28.8906 426.568 29.0924 427.18 29.4961C427.792 29.8867 428.28 30.4401 428.645 31.1562V39.7109C428.28 40.4141 427.785 40.9674 427.16 41.3711C426.548 41.7747 425.773 41.9766 424.836 41.9766C424.068 41.9766 423.417 41.8138 422.883 41.4883C422.349 41.1628 421.913 40.7135 421.574 40.1406C421.236 39.5807 420.988 38.9232 420.832 38.168C420.689 37.3997 420.617 36.5729 420.617 35.6875ZM452.1 46H457.608V45.668C457.335 45.1341 457.127 44.4961 456.983 43.7539C456.84 43.0117 456.768 42.0742 456.768 40.9414V31.8789C456.768 30.6549 456.541 29.5807 456.085 28.6562C455.629 27.7188 454.998 26.944 454.19 26.332C453.383 25.7201 452.426 25.2578 451.319 24.9453C450.225 24.6328 449.041 24.4766 447.765 24.4766C446.345 24.4766 445.082 24.6589 443.975 25.0234C442.882 25.375 441.957 25.8568 441.202 26.4688C440.434 27.0807 439.848 27.7904 439.444 28.5977C439.054 29.4049 438.858 30.2578 438.858 31.1562H444.288C444.288 30.7786 444.34 30.4336 444.444 30.1211C444.561 29.8086 444.737 29.5417 444.972 29.3203C445.232 29.0729 445.571 28.8841 445.987 28.7539C446.404 28.6107 446.899 28.5391 447.472 28.5391C448.123 28.5391 448.689 28.6237 449.171 28.793C449.666 28.9492 450.076 29.1771 450.401 29.4766C450.714 29.763 450.948 30.1081 451.104 30.5117C451.261 30.9023 451.339 31.3451 451.339 31.8398V33.0898H448.311C446.749 33.0898 445.362 33.2331 444.151 33.5195C442.953 33.793 441.944 34.1966 441.124 34.7305C440.212 35.3164 439.529 36.0651 439.073 36.9766C438.617 37.875 438.39 38.9102 438.39 40.082C438.39 40.9935 438.572 41.8398 438.936 42.6211C439.301 43.3893 439.809 44.0534 440.46 44.6133C441.111 45.1732 441.886 45.6094 442.784 45.9219C443.696 46.2344 444.692 46.3906 445.772 46.3906C446.436 46.3906 447.055 46.3255 447.628 46.1953C448.201 46.0781 448.728 45.9089 449.21 45.6875C449.679 45.4792 450.108 45.2318 450.499 44.9453C450.89 44.6589 451.235 44.3529 451.534 44.0273C451.599 44.4049 451.677 44.763 451.768 45.1016C451.86 45.4401 451.97 45.7396 452.1 46ZM446.925 42.1914C446.417 42.1914 445.968 42.1328 445.577 42.0156C445.199 41.8854 444.88 41.7161 444.62 41.5078C444.36 41.2865 444.158 41.0195 444.015 40.707C443.884 40.3815 443.819 40.0299 443.819 39.6523C443.819 39.1706 443.91 38.7279 444.093 38.3242C444.275 37.9076 444.555 37.5495 444.933 37.25C445.31 36.9635 445.798 36.7422 446.397 36.5859C446.996 36.4167 447.719 36.332 448.565 36.332H451.339V39.9648C451.183 40.2383 450.968 40.5117 450.694 40.7852C450.421 41.0456 450.095 41.2799 449.718 41.4883C449.34 41.6966 448.917 41.8659 448.448 41.9961C447.979 42.1263 447.472 42.1914 446.925 42.1914ZM472.002 19.6914H466.572V24.8672H461.748V28.8711H466.572V38.4805C466.572 39.8737 466.754 41.0716 467.119 42.0742C467.483 43.0638 468.004 43.8776 468.681 44.5156C469.345 45.1667 470.146 45.6484 471.084 45.9609C472.034 46.2604 473.089 46.4102 474.248 46.4102C474.847 46.4102 475.452 46.3776 476.064 46.3125C476.689 46.2604 477.288 46.1823 477.861 46.0781C478.434 45.974 478.974 45.8438 479.482 45.6875C479.99 45.5182 480.433 45.3229 480.81 45.1016L480.283 41.3711C480.036 41.4362 479.736 41.5013 479.385 41.5664C479.046 41.6315 478.681 41.6901 478.291 41.7422C477.887 41.8073 477.464 41.8594 477.021 41.8984C476.592 41.9375 476.168 41.957 475.752 41.957C475.179 41.957 474.658 41.8919 474.189 41.7617C473.733 41.6315 473.343 41.4102 473.017 41.0977C472.692 40.7982 472.438 40.3945 472.256 39.8867C472.086 39.3659 472.002 38.7214 472.002 37.9531V28.8711H479.892V24.8672H472.002V19.6914ZM498.387 46H503.895V45.668C503.622 45.1341 503.413 44.4961 503.27 43.7539C503.127 43.0117 503.055 42.0742 503.055 40.9414V31.8789C503.055 30.6549 502.827 29.5807 502.372 28.6562C501.916 27.7188 501.284 26.944 500.477 26.332C499.67 25.7201 498.713 25.2578 497.606 24.9453C496.512 24.6328 495.327 24.4766 494.051 24.4766C492.632 24.4766 491.369 24.6589 490.262 25.0234C489.169 25.375 488.244 25.8568 487.489 26.4688C486.721 27.0807 486.135 27.7904 485.731 28.5977C485.34 29.4049 485.145 30.2578 485.145 31.1562H490.575C490.575 30.7786 490.627 30.4336 490.731 30.1211C490.848 29.8086 491.024 29.5417 491.258 29.3203C491.519 29.0729 491.857 28.8841 492.274 28.7539C492.691 28.6107 493.186 28.5391 493.758 28.5391C494.409 28.5391 494.976 28.6237 495.458 28.793C495.952 28.9492 496.363 29.1771 496.688 29.4766C497.001 29.763 497.235 30.1081 497.391 30.5117C497.548 30.9023 497.626 31.3451 497.626 31.8398V33.0898H494.598C493.036 33.0898 491.649 33.2331 490.438 33.5195C489.24 33.793 488.231 34.1966 487.411 34.7305C486.499 35.3164 485.816 36.0651 485.36 36.9766C484.904 37.875 484.676 38.9102 484.676 40.082C484.676 40.9935 484.859 41.8398 485.223 42.6211C485.588 43.3893 486.096 44.0534 486.747 44.6133C487.398 45.1732 488.173 45.6094 489.071 45.9219C489.982 46.2344 490.978 46.3906 492.059 46.3906C492.723 46.3906 493.342 46.3255 493.915 46.1953C494.488 46.0781 495.015 45.9089 495.497 45.6875C495.965 45.4792 496.395 45.2318 496.786 44.9453C497.176 44.6589 497.521 44.3529 497.821 44.0273C497.886 44.4049 497.964 44.763 498.055 45.1016C498.146 45.4401 498.257 45.7396 498.387 46ZM493.212 42.1914C492.704 42.1914 492.255 42.1328 491.864 42.0156C491.486 41.8854 491.167 41.7161 490.907 41.5078C490.646 41.2865 490.445 41.0195 490.301 40.707C490.171 40.3815 490.106 40.0299 490.106 39.6523C490.106 39.1706 490.197 38.7279 490.38 38.3242C490.562 37.9076 490.842 37.5495 491.219 37.25C491.597 36.9635 492.085 36.7422 492.684 36.5859C493.283 36.4167 494.006 36.332 494.852 36.332H497.626V39.9648C497.469 40.2383 497.255 40.5117 496.981 40.7852C496.708 41.0456 496.382 41.2799 496.005 41.4883C495.627 41.6966 495.204 41.8659 494.735 41.9961C494.266 42.1263 493.758 42.1914 493.212 42.1914ZM526.277 50.2383V46H508.464V50.2383H526.277ZM541.432 19.6914H536.002V24.8672H531.178V28.8711H536.002V38.4805C536.002 39.8737 536.185 41.0716 536.549 42.0742C536.914 43.0638 537.435 43.8776 538.112 44.5156C538.776 45.1667 539.577 45.6484 540.514 45.9609C541.465 46.2604 542.519 46.4102 543.678 46.4102C544.277 46.4102 544.883 46.3776 545.495 46.3125C546.12 46.2604 546.718 46.1823 547.291 46.0781C547.864 45.974 548.405 45.8438 548.912 45.6875C549.42 45.5182 549.863 45.3229 550.241 45.1016L549.713 41.3711C549.466 41.4362 549.166 41.5013 548.815 41.5664C548.476 41.6315 548.112 41.6901 547.721 41.7422C547.317 41.8073 546.894 41.8594 546.452 41.8984C546.022 41.9375 545.599 41.957 545.182 41.957C544.609 41.957 544.088 41.8919 543.62 41.7617C543.164 41.6315 542.773 41.4102 542.448 41.0977C542.122 40.7982 541.868 40.3945 541.686 39.8867C541.517 39.3659 541.432 38.7214 541.432 37.9531V28.8711H549.323V24.8672H541.432V19.6914Z" fill="white"/>
  <rect x="1245" y="222" width="304" height="208" rx="6" fill="#08D769" stroke="#06AC54" stroke-width="4" stroke-miterlimit="0" stroke-linecap="round"/>
  <path d="M1348.64 312H1352.76L1361.05 290.867H1356.2L1351.03 306.199L1350.71 307.605L1350.4 306.199L1345.17 290.867H1340.32L1348.64 312ZM1364.01 301.238V301.648C1364.01 303.198 1364.23 304.624 1364.68 305.926C1365.12 307.228 1365.76 308.361 1366.61 309.324C1367.44 310.288 1368.47 311.043 1369.7 311.59C1370.92 312.137 1372.31 312.41 1373.86 312.41C1375.39 312.41 1376.77 312.137 1377.98 311.59C1379.2 311.043 1380.23 310.288 1381.06 309.324C1381.9 308.361 1382.53 307.228 1382.98 305.926C1383.42 304.624 1383.64 303.198 1383.64 301.648V301.238C1383.64 299.702 1383.42 298.283 1382.98 296.98C1382.53 295.665 1381.9 294.526 1381.06 293.562C1380.22 292.599 1379.18 291.844 1377.96 291.297C1376.75 290.75 1375.37 290.477 1373.82 290.477C1372.27 290.477 1370.89 290.75 1369.68 291.297C1368.47 291.844 1367.44 292.599 1366.61 293.562C1365.76 294.526 1365.12 295.665 1364.68 296.98C1364.23 298.283 1364.01 299.702 1364.01 301.238ZM1368.68 301.648V301.238C1368.68 300.314 1368.78 299.428 1368.97 298.582C1369.18 297.736 1369.5 296.993 1369.93 296.355C1370.35 295.717 1370.87 295.21 1371.51 294.832C1372.16 294.454 1372.93 294.266 1373.82 294.266C1374.72 294.266 1375.48 294.454 1376.12 294.832C1376.77 295.21 1377.31 295.717 1377.74 296.355C1378.15 296.993 1378.45 297.736 1378.66 298.582C1378.87 299.428 1378.97 300.314 1378.97 301.238V301.648C1378.97 302.599 1378.87 303.497 1378.66 304.344C1378.47 305.19 1378.16 305.932 1377.74 306.57C1377.33 307.208 1376.79 307.716 1376.14 308.094C1375.49 308.458 1374.73 308.641 1373.86 308.641C1372.96 308.641 1372.18 308.458 1371.53 308.094C1370.88 307.716 1370.35 307.208 1369.93 306.57C1369.5 305.932 1369.18 305.19 1368.97 304.344C1368.78 303.497 1368.68 302.599 1368.68 301.648ZM1389.09 290.867V294.754H1395.59V308.133H1389.09V312H1406.51V308.133H1400.3V290.867H1389.09ZM1395.16 285.398C1395.16 285.893 1395.28 286.329 1395.52 286.707C1395.76 287.072 1396.12 287.326 1396.59 287.469C1397.05 287.612 1397.46 287.645 1397.84 287.566C1398.22 287.488 1398.54 287.326 1398.82 287.078C1399.36 286.935 1399.78 286.655 1400.07 286.238C1400.35 285.809 1400.45 285.307 1400.36 284.734C1400.29 284.174 1400.04 283.719 1399.6 283.367C1399.17 283.003 1398.6 282.82 1397.9 282.82C1397.48 282.82 1397.1 282.885 1396.77 283.016C1396.44 283.133 1396.16 283.302 1395.93 283.523C1395.68 283.758 1395.49 284.038 1395.36 284.363C1395.23 284.676 1395.16 285.021 1395.16 285.398ZM1410.53 301.277V301.688C1410.53 303.211 1410.73 304.63 1411.12 305.945C1411.51 307.247 1412.06 308.374 1412.78 309.324C1413.5 310.288 1414.37 311.043 1415.4 311.59C1416.43 312.124 1417.58 312.391 1418.87 312.391C1420.1 312.391 1421.18 312.169 1422.12 311.727C1423.05 311.271 1423.86 310.626 1424.54 309.793L1424.75 312H1428.99V282H1424.32V292.84C1423.65 292.085 1422.86 291.505 1421.98 291.102C1421.11 290.685 1420.08 290.477 1418.91 290.477C1417.61 290.477 1416.44 290.743 1415.4 291.277C1414.37 291.798 1413.5 292.534 1412.78 293.484C1412.05 294.435 1411.49 295.574 1411.1 296.902C1410.72 298.217 1410.53 299.676 1410.53 301.277ZM1415.2 301.688V301.277C1415.2 300.327 1415.29 299.435 1415.48 298.602C1415.66 297.755 1415.95 297.013 1416.35 296.375C1416.73 295.737 1417.23 295.236 1417.84 294.871C1418.46 294.507 1419.21 294.324 1420.08 294.324C1421.13 294.324 1421.99 294.559 1422.66 295.027C1423.35 295.483 1423.91 296.102 1424.32 296.883V305.965C1423.91 306.759 1423.35 307.391 1422.66 307.859C1421.97 308.315 1421.1 308.543 1420.05 308.543C1419.19 308.543 1418.45 308.367 1417.84 308.016C1417.23 307.651 1416.73 307.15 1416.33 306.512C1415.94 305.9 1415.66 305.177 1415.48 304.344C1415.29 303.51 1415.2 302.625 1415.2 301.688ZM1318.62 380.125H1323.29V370.086C1323.54 370.359 1323.81 370.613 1324.09 370.848C1324.38 371.082 1324.68 371.29 1324.99 371.473C1325.53 371.772 1326.1 372 1326.73 372.156C1327.37 372.312 1328.06 372.391 1328.82 372.391C1330.15 372.391 1331.33 372.117 1332.35 371.57C1333.38 371.023 1334.25 370.268 1334.95 369.305C1335.66 368.354 1336.18 367.221 1336.53 365.906C1336.9 364.591 1337.08 363.172 1337.08 361.648V361.238C1337.08 359.65 1336.9 358.198 1336.53 356.883C1336.17 355.555 1335.64 354.415 1334.95 353.465C1334.25 352.514 1333.38 351.779 1332.34 351.258C1331.31 350.737 1330.12 350.477 1328.76 350.477C1328.07 350.477 1327.42 350.555 1326.81 350.711C1326.2 350.854 1325.64 351.062 1325.13 351.336C1324.74 351.544 1324.37 351.792 1324.03 352.078C1323.7 352.365 1323.38 352.684 1323.1 353.035L1322.92 350.867H1318.62V380.125ZM1332.41 361.238V361.648C1332.41 362.586 1332.32 363.478 1332.14 364.324C1331.96 365.158 1331.66 365.9 1331.26 366.551C1330.87 367.189 1330.36 367.697 1329.74 368.074C1329.13 368.439 1328.38 368.621 1327.51 368.621C1326.98 368.621 1326.49 368.562 1326.05 368.445C1325.6 368.315 1325.21 368.146 1324.85 367.938C1324.52 367.716 1324.22 367.456 1323.96 367.156C1323.7 366.857 1323.47 366.525 1323.29 366.16V356.766C1323.5 356.375 1323.74 356.023 1324.01 355.711C1324.3 355.398 1324.63 355.138 1325.01 354.93C1325.34 354.734 1325.71 354.585 1326.12 354.48C1326.54 354.376 1326.99 354.324 1327.47 354.324C1328.34 354.324 1329.09 354.507 1329.72 354.871C1330.34 355.236 1330.86 355.73 1331.26 356.355C1331.65 356.98 1331.94 357.716 1332.12 358.562C1332.32 359.396 1332.41 360.288 1332.41 361.238ZM1340.87 361.238V361.648C1340.87 363.198 1341.09 364.624 1341.53 365.926C1341.98 367.228 1342.62 368.361 1343.47 369.324C1344.3 370.288 1345.33 371.043 1346.55 371.59C1347.78 372.137 1349.16 372.41 1350.71 372.41C1352.25 372.41 1353.62 372.137 1354.83 371.59C1356.06 371.043 1357.09 370.288 1357.92 369.324C1358.75 368.361 1359.39 367.228 1359.83 365.926C1360.28 364.624 1360.5 363.198 1360.5 361.648V361.238C1360.5 359.702 1360.28 358.283 1359.83 356.98C1359.39 355.665 1358.75 354.526 1357.92 353.562C1357.07 352.599 1356.04 351.844 1354.81 351.297C1353.6 350.75 1352.22 350.477 1350.67 350.477C1349.12 350.477 1347.74 350.75 1346.53 351.297C1345.32 351.844 1344.3 352.599 1343.47 353.562C1342.62 354.526 1341.98 355.665 1341.53 356.98C1341.09 358.283 1340.87 359.702 1340.87 361.238ZM1345.54 361.648V361.238C1345.54 360.314 1345.64 359.428 1345.83 358.582C1346.04 357.736 1346.36 356.993 1346.79 356.355C1347.2 355.717 1347.73 355.21 1348.37 354.832C1349.02 354.454 1349.79 354.266 1350.67 354.266C1351.57 354.266 1352.34 354.454 1352.98 354.832C1353.63 355.21 1354.17 355.717 1354.6 356.355C1355 356.993 1355.31 357.736 1355.52 358.582C1355.73 359.428 1355.83 360.314 1355.83 361.238V361.648C1355.83 362.599 1355.73 363.497 1355.52 364.344C1355.32 365.19 1355.02 365.932 1354.6 366.57C1354.18 367.208 1353.65 367.716 1353 368.094C1352.35 368.458 1351.59 368.641 1350.71 368.641C1349.81 368.641 1349.04 368.458 1348.39 368.094C1347.74 367.716 1347.2 367.208 1346.79 366.57C1346.36 365.932 1346.04 365.19 1345.83 364.344C1345.64 363.497 1345.54 362.599 1345.54 361.648ZM1365.95 350.867V354.754H1372.45V368.133H1365.95V372H1383.37V368.133H1377.16V350.867H1365.95ZM1372.02 345.398C1372.02 345.893 1372.14 346.329 1372.37 346.707C1372.62 347.072 1372.98 347.326 1373.45 347.469C1373.9 347.612 1374.32 347.645 1374.7 347.566C1375.07 347.488 1375.4 347.326 1375.67 347.078C1376.22 346.935 1376.64 346.655 1376.92 346.238C1377.21 345.809 1377.31 345.307 1377.22 344.734C1377.15 344.174 1376.9 343.719 1376.45 343.367C1376.02 343.003 1375.46 342.82 1374.76 342.82C1374.34 342.82 1373.96 342.885 1373.62 343.016C1373.3 343.133 1373.02 343.302 1372.78 343.523C1372.53 343.758 1372.35 344.038 1372.22 344.363C1372.09 344.676 1372.02 345.021 1372.02 345.398ZM1388.02 372H1392.68V356.922C1392.89 356.57 1393.13 356.245 1393.41 355.945C1393.68 355.646 1393.97 355.392 1394.29 355.184C1394.69 354.91 1395.14 354.702 1395.63 354.559C1396.13 354.402 1396.66 354.324 1397.23 354.324C1397.92 354.324 1398.54 354.402 1399.07 354.559C1399.6 354.702 1400.06 354.949 1400.44 355.301C1400.82 355.652 1401.1 356.121 1401.3 356.707C1401.49 357.293 1401.59 358.022 1401.59 358.895V372H1406.26V358.816C1406.26 357.332 1406.08 356.069 1405.73 355.027C1405.38 353.973 1404.88 353.107 1404.25 352.43C1403.61 351.753 1402.84 351.258 1401.94 350.945C1401.04 350.633 1400.05 350.477 1398.97 350.477C1398.15 350.477 1397.37 350.594 1396.63 350.828C1395.89 351.062 1395.2 351.395 1394.58 351.824C1394.19 352.098 1393.82 352.41 1393.46 352.762C1393.13 353.1 1392.81 353.471 1392.53 353.875L1392.23 350.867H1388.02V372ZM1420.53 345.711H1415.85V350.867H1410.73V354.363H1415.85V364.754C1415.85 366.108 1416.02 367.267 1416.37 368.23C1416.74 369.194 1417.24 369.982 1417.88 370.594C1418.52 371.219 1419.28 371.681 1420.16 371.98C1421.06 372.267 1422.04 372.41 1423.11 372.41C1423.7 372.41 1424.28 372.378 1424.87 372.312C1425.47 372.26 1426.04 372.182 1426.59 372.078C1427.14 371.974 1427.64 371.85 1428.11 371.707C1428.59 371.551 1429 371.368 1429.34 371.16L1428.83 367.938C1428.6 367.99 1428.31 368.055 1427.96 368.133C1427.62 368.198 1427.25 368.257 1426.86 368.309C1426.46 368.374 1426.04 368.426 1425.61 368.465C1425.18 368.504 1424.77 368.523 1424.36 368.523C1423.8 368.523 1423.29 368.458 1422.82 368.328C1422.35 368.198 1421.95 367.977 1421.61 367.664C1421.27 367.365 1421 366.954 1420.81 366.434C1420.63 365.9 1420.53 365.242 1420.53 364.461V354.363H1428.48V350.867H1420.53V345.711ZM1444.17 372.391C1446.22 372.391 1447.97 371.987 1449.42 371.18C1450.88 370.372 1451.96 369.461 1452.66 368.445L1450.16 366.023C1449.51 366.857 1448.68 367.501 1447.68 367.957C1446.68 368.4 1445.6 368.621 1444.44 368.621C1443.59 368.621 1442.81 368.478 1442.1 368.191C1441.39 367.905 1440.78 367.501 1440.26 366.98C1439.74 366.486 1439.33 365.926 1439.03 365.301C1438.73 364.676 1438.51 363.901 1438.36 362.977V362.879H1453.01V360.867C1453.01 359.357 1452.81 357.964 1452.41 356.688C1452 355.411 1451.41 354.311 1450.61 353.387C1449.82 352.475 1448.83 351.766 1447.66 351.258C1446.49 350.737 1445.14 350.477 1443.62 350.477C1442.25 350.477 1440.96 350.737 1439.75 351.258C1438.55 351.766 1437.5 352.495 1436.59 353.445C1435.68 354.396 1434.96 355.542 1434.44 356.883C1433.92 358.224 1433.66 359.721 1433.66 361.375V362.176C1433.66 363.621 1433.91 364.969 1434.4 366.219C1434.91 367.456 1435.62 368.53 1436.55 369.441C1437.47 370.366 1438.58 371.089 1439.87 371.609C1441.17 372.13 1442.6 372.391 1444.17 372.391ZM1443.6 354.266C1444.38 354.266 1445.06 354.402 1445.65 354.676C1446.25 354.936 1446.74 355.288 1447.13 355.73C1447.54 356.186 1447.85 356.72 1448.07 357.332C1448.29 357.931 1448.4 358.536 1448.4 359.148V359.461H1438.46C1438.61 358.654 1438.83 357.931 1439.13 357.293C1439.43 356.655 1439.8 356.108 1440.24 355.652C1440.68 355.21 1441.18 354.871 1441.74 354.637C1442.32 354.389 1442.94 354.266 1443.6 354.266ZM1472.06 350.477C1470.6 350.477 1469.26 350.815 1468.05 351.492C1466.85 352.169 1465.82 353.1 1464.97 354.285L1464.95 353.797L1464.75 350.867H1460.38V372H1465.04V358.953C1465.29 358.328 1465.6 357.775 1465.96 357.293C1466.33 356.811 1466.77 356.414 1467.29 356.102C1467.77 355.776 1468.32 355.535 1468.95 355.379C1469.57 355.223 1470.28 355.145 1471.06 355.145C1471.75 355.145 1472.44 355.184 1473.13 355.262C1473.83 355.34 1474.54 355.457 1475.26 355.613L1475.92 351.004C1475.52 350.861 1474.96 350.737 1474.24 350.633C1473.54 350.529 1472.81 350.477 1472.06 350.477Z" fill="white"/>
  <path d="M1256.4 163.711H1251.71V168.867H1246.6V172.363H1251.71V182.754C1251.71 184.108 1251.89 185.267 1252.24 186.23C1252.61 187.194 1253.11 187.982 1253.75 188.594C1254.38 189.219 1255.15 189.681 1256.03 189.98C1256.93 190.267 1257.91 190.41 1258.98 190.41C1259.57 190.41 1260.15 190.378 1260.74 190.312C1261.34 190.26 1261.91 190.182 1262.46 190.078C1263 189.974 1263.51 189.85 1263.98 189.707C1264.46 189.551 1264.87 189.368 1265.21 189.16L1264.7 185.938C1264.47 185.99 1264.18 186.055 1263.82 186.133C1263.49 186.198 1263.12 186.257 1262.73 186.309C1262.33 186.374 1261.91 186.426 1261.48 186.465C1261.05 186.504 1260.63 186.523 1260.23 186.523C1259.67 186.523 1259.16 186.458 1258.69 186.328C1258.22 186.198 1257.82 185.977 1257.48 185.664C1257.14 185.365 1256.87 184.954 1256.68 184.434C1256.49 183.9 1256.4 183.242 1256.4 182.461V172.363H1264.35V168.867H1256.4V163.711ZM1283.67 190H1288.43V189.668C1288.17 189.121 1287.97 188.47 1287.83 187.715C1287.7 186.947 1287.63 186.087 1287.63 185.137V175.742C1287.63 174.544 1287.41 173.49 1286.97 172.578C1286.52 171.654 1285.91 170.892 1285.13 170.293C1284.35 169.694 1283.42 169.245 1282.34 168.945C1281.27 168.633 1280.12 168.477 1278.88 168.477C1277.5 168.477 1276.27 168.659 1275.19 169.023C1274.12 169.375 1273.22 169.857 1272.5 170.469C1271.74 171.068 1271.17 171.758 1270.78 172.539C1270.39 173.32 1270.18 174.134 1270.17 174.98H1274.86C1274.86 174.577 1274.93 174.199 1275.07 173.848C1275.23 173.483 1275.46 173.177 1275.78 172.93C1276.09 172.656 1276.48 172.441 1276.95 172.285C1277.43 172.129 1277.99 172.051 1278.63 172.051C1279.33 172.051 1279.95 172.142 1280.48 172.324C1281.03 172.493 1281.49 172.741 1281.87 173.066C1282.22 173.392 1282.49 173.776 1282.67 174.219C1282.87 174.661 1282.96 175.156 1282.96 175.703V177.129H1279.57C1278.04 177.129 1276.67 177.272 1275.46 177.559C1274.27 177.845 1273.26 178.262 1272.44 178.809C1271.55 179.395 1270.87 180.137 1270.41 181.035C1269.95 181.921 1269.72 182.943 1269.72 184.102C1269.72 185 1269.9 185.84 1270.25 186.621C1270.61 187.389 1271.12 188.047 1271.77 188.594C1272.41 189.154 1273.18 189.596 1274.08 189.922C1274.99 190.234 1275.99 190.391 1277.08 190.391C1277.76 190.391 1278.39 190.326 1278.98 190.195C1279.57 190.065 1280.11 189.883 1280.62 189.648C1281.13 189.427 1281.58 189.167 1281.99 188.867C1282.4 188.555 1282.77 188.229 1283.1 187.891C1283.17 188.294 1283.24 188.685 1283.32 189.062C1283.41 189.427 1283.52 189.74 1283.67 190ZM1277.98 186.641C1277.38 186.641 1276.86 186.569 1276.42 186.426C1275.98 186.27 1275.61 186.061 1275.31 185.801C1275.01 185.54 1274.78 185.228 1274.62 184.863C1274.47 184.486 1274.39 184.082 1274.39 183.652C1274.39 183.132 1274.48 182.663 1274.66 182.246C1274.86 181.829 1275.15 181.471 1275.54 181.172C1275.98 180.82 1276.58 180.553 1277.32 180.371C1278.06 180.176 1278.94 180.078 1279.96 180.078H1282.96V183.984C1282.79 184.323 1282.55 184.648 1282.24 184.961C1281.93 185.273 1281.56 185.553 1281.13 185.801C1280.7 186.048 1280.22 186.25 1279.68 186.406C1279.16 186.562 1278.6 186.641 1277.98 186.641ZM1294.39 168.867V172.754H1300.89V186.133H1294.39V190H1311.81V186.133H1305.6V168.867H1294.39ZM1300.46 163.398C1300.46 163.893 1300.58 164.329 1300.81 164.707C1301.06 165.072 1301.42 165.326 1301.89 165.469C1302.34 165.612 1302.76 165.645 1303.14 165.566C1303.52 165.488 1303.84 165.326 1304.12 165.078C1304.66 164.935 1305.08 164.655 1305.37 164.238C1305.65 163.809 1305.75 163.307 1305.66 162.734C1305.59 162.174 1305.34 161.719 1304.9 161.367C1304.47 161.003 1303.9 160.82 1303.2 160.82C1302.78 160.82 1302.4 160.885 1302.06 161.016C1301.74 161.133 1301.46 161.302 1301.22 161.523C1300.98 161.758 1300.79 162.038 1300.66 162.363C1300.53 162.676 1300.46 163.021 1300.46 163.398ZM1317.36 160V163.887H1324.04V186.133H1317.36V190H1335.15V186.133H1328.74V160H1317.36Z" fill="white"/>
  <path d="M1005.5 433C1005.5 432.172 1004.83 431.5 1004 431.5C1003.17 431.5 1002.5 432.172 1002.5 433H1005.5ZM1774.06 592.061C1774.65 591.475 1774.65 590.525 1774.06 589.939L1764.51 580.393C1763.93 579.808 1762.98 579.808 1762.39 580.393C1761.81 580.979 1761.81 581.929 1762.39 582.515L1770.88 591L1762.39 599.485C1761.81 600.071 1761.81 601.021 1762.39 601.607C1762.98 602.192 1763.93 602.192 1764.51 601.607L1774.06 592.061ZM1002.5 433V567H1005.5V433H1002.5ZM1028 592.5H1773V589.5H1028V592.5ZM1002.5 567C1002.5 581.083 1013.92 592.5 1028 592.5V589.5C1015.57 589.5 1005.5 579.426 1005.5 567H1002.5Z" fill="#E6E6E6"/>
  <path d="M1553 324.5C1552.17 324.5 1551.5 325.172 1551.5 326C1551.5 326.828 1552.17 327.5 1553 327.5V324.5ZM1966.06 327.061C1966.65 326.475 1966.65 325.525 1966.06 324.939L1956.51 315.393C1955.93 314.808 1954.98 314.808 1954.39 315.393C1953.81 315.979 1953.81 316.929 1954.39 317.515L1962.88 326L1954.39 334.485C1953.81 335.071 1953.81 336.021 1954.39 336.607C1954.98 337.192 1955.93 337.192 1956.51 336.607L1966.06 327.061ZM1553 327.5H1965V324.5H1553V327.5Z" fill="#E6E6E6"/>
  <circle cx="2034" cy="325" r="8" fill="white" stroke="#CCCCCC" stroke-width="4" stroke-miterlimit="0" stroke-linecap="round"/>
  <circle cx="2082" cy="325" r="8" fill="white" stroke="#CCCCCC" stroke-width="4" stroke-miterlimit="0" stroke-linecap="round"/>
  <circle cx="2130" cy="325" r="8" fill="white" stroke="#CCCCCC" stroke-width="4" stroke-miterlimit="0" stroke-linecap="round"/>
  <circle cx="1828" cy="583" r="8" fill="white" stroke="#CCCCCC" stroke-width="4" stroke-miterlimit="0" stroke-linecap="round"/>
  <circle cx="1876" cy="583" r="8" fill="white" stroke="#CCCCCC" stroke-width="4" stroke-miterlimit="0" stroke-linecap="round"/>
  <circle cx="1924" cy="583" r="8" fill="white" stroke="#CCCCCC" stroke-width="4" stroke-miterlimit="0" stroke-linecap="round"/>
  <rect x="2" y="190" width="232" height="208" rx="80" fill="#14AE5C" stroke="#108B4A" stroke-width="4" stroke-miterlimit="0" stroke-linecap="round"/>
  <path d="M38.9603 269.277V269.688C38.9603 271.211 39.1556 272.63 39.5462 273.945C39.9369 275.247 40.4903 276.374 41.2064 277.324C41.9226 278.288 42.7949 279.043 43.8236 279.59C44.8522 280.124 46.0111 280.391 47.3002 280.391C48.5241 280.391 49.6048 280.169 50.5423 279.727C51.4798 279.271 52.2871 278.626 52.9642 277.793L53.1791 280H57.4173V250H52.7494V260.84C52.0723 260.085 51.291 259.505 50.4056 259.102C49.5332 258.685 48.5111 258.477 47.3392 258.477C46.0371 258.477 44.8653 258.743 43.8236 259.277C42.7949 259.798 41.9226 260.534 41.2064 261.484C40.4772 262.435 39.9173 263.574 39.5267 264.902C39.1491 266.217 38.9603 267.676 38.9603 269.277ZM43.6283 269.688V269.277C43.6283 268.327 43.7194 267.435 43.9017 266.602C44.084 265.755 44.377 265.013 44.7806 264.375C45.1582 263.737 45.653 263.236 46.265 262.871C46.89 262.507 47.6387 262.324 48.5111 262.324C49.5528 262.324 50.4121 262.559 51.0892 263.027C51.7793 263.483 52.3327 264.102 52.7494 264.883V273.965C52.3327 274.759 51.7793 275.391 51.0892 275.859C50.3991 276.315 49.5267 276.543 48.472 276.543C47.6127 276.543 46.877 276.367 46.265 276.016C45.653 275.651 45.1517 275.15 44.7611 274.512C44.3705 273.9 44.084 273.177 43.9017 272.344C43.7194 271.51 43.6283 270.625 43.6283 269.688ZM76.2248 280H80.9905V279.668C80.7301 279.121 80.5282 278.47 80.385 277.715C80.2548 276.947 80.1897 276.087 80.1897 275.137V265.742C80.1897 264.544 79.9683 263.49 79.5256 262.578C79.0829 261.654 78.4709 260.892 77.6897 260.293C76.9084 259.694 75.9775 259.245 74.8967 258.945C73.829 258.633 72.6767 258.477 71.4397 258.477C70.0595 258.477 68.829 258.659 67.7483 259.023C66.6806 259.375 65.7821 259.857 65.053 260.469C64.2978 261.068 63.7248 261.758 63.3342 262.539C62.9436 263.32 62.7418 264.134 62.7288 264.98H67.4163C67.4163 264.577 67.4879 264.199 67.6311 263.848C67.7873 263.483 68.0217 263.177 68.3342 262.93C68.6467 262.656 69.0373 262.441 69.5061 262.285C69.9879 262.129 70.5478 262.051 71.1858 262.051C71.8889 262.051 72.5074 262.142 73.0413 262.324C73.5881 262.493 74.0504 262.741 74.428 263.066C74.7795 263.392 75.0465 263.776 75.2288 264.219C75.4241 264.661 75.5217 265.156 75.5217 265.703V267.129H72.1233C70.5998 267.129 69.2327 267.272 68.0217 267.559C66.8238 267.845 65.8147 268.262 64.9944 268.809C64.109 269.395 63.4319 270.137 62.9631 271.035C62.5074 271.921 62.2795 272.943 62.2795 274.102C62.2795 275 62.4553 275.84 62.8069 276.621C63.1715 277.389 63.6793 278.047 64.3303 278.594C64.9683 279.154 65.7366 279.596 66.635 279.922C67.5465 280.234 68.5491 280.391 69.6428 280.391C70.3199 280.391 70.9514 280.326 71.5373 280.195C72.1233 280.065 72.6702 279.883 73.178 279.648C73.6858 279.427 74.1415 279.167 74.5452 278.867C74.9618 278.555 75.3329 278.229 75.6584 277.891C75.7235 278.294 75.7952 278.685 75.8733 279.062C75.9644 279.427 76.0816 279.74 76.2248 280ZM70.5413 276.641C69.9423 276.641 69.4215 276.569 68.9788 276.426C68.536 276.27 68.165 276.061 67.8655 275.801C67.566 275.54 67.3381 275.228 67.1819 274.863C67.0256 274.486 66.9475 274.082 66.9475 273.652C66.9475 273.132 67.0386 272.663 67.2209 272.246C67.4163 271.829 67.7092 271.471 68.0998 271.172C68.5426 270.82 69.135 270.553 69.8772 270.371C70.6194 270.176 71.4983 270.078 72.5139 270.078H75.5217V273.984C75.3525 274.323 75.1116 274.648 74.7991 274.961C74.4866 275.273 74.1155 275.553 73.6858 275.801C73.2561 276.048 72.7743 276.25 72.2405 276.406C71.7196 276.562 71.1532 276.641 70.5413 276.641ZM95.2472 253.711H90.5597V258.867H85.4425V262.363H90.5597V272.754C90.5597 274.108 90.7355 275.267 91.087 276.23C91.4516 277.194 91.9529 277.982 92.5909 278.594C93.229 279.219 93.9907 279.681 94.8761 279.98C95.7745 280.267 96.7576 280.41 97.8253 280.41C98.4113 280.41 98.9972 280.378 99.5831 280.312C100.182 280.26 100.755 280.182 101.302 280.078C101.849 279.974 102.357 279.85 102.825 279.707C103.307 279.551 103.717 279.368 104.056 279.16L103.548 275.938C103.314 275.99 103.021 276.055 102.669 276.133C102.331 276.198 101.966 276.257 101.575 276.309C101.172 276.374 100.755 276.426 100.325 276.465C99.8956 276.504 99.479 276.523 99.0753 276.523C98.5154 276.523 98.0011 276.458 97.5323 276.328C97.0636 276.198 96.66 275.977 96.3214 275.664C95.9829 275.365 95.7159 274.954 95.5206 274.434C95.3383 273.9 95.2472 273.242 95.2472 272.461V262.363H103.196V258.867H95.2472V253.711ZM122.512 280H127.277V279.668C127.017 279.121 126.815 278.47 126.672 277.715C126.542 276.947 126.477 276.087 126.477 275.137V265.742C126.477 264.544 126.255 263.49 125.812 262.578C125.37 261.654 124.758 260.892 123.977 260.293C123.195 259.694 122.264 259.245 121.184 258.945C120.116 258.633 118.964 258.477 117.727 258.477C116.346 258.477 115.116 258.659 114.035 259.023C112.967 259.375 112.069 259.857 111.34 260.469C110.585 261.068 110.012 261.758 109.621 262.539C109.23 263.32 109.029 264.134 109.016 264.98H113.703C113.703 264.577 113.775 264.199 113.918 263.848C114.074 263.483 114.309 263.177 114.621 262.93C114.934 262.656 115.324 262.441 115.793 262.285C116.275 262.129 116.835 262.051 117.473 262.051C118.176 262.051 118.794 262.142 119.328 262.324C119.875 262.493 120.337 262.741 120.715 263.066C121.066 263.392 121.333 263.776 121.516 264.219C121.711 264.661 121.809 265.156 121.809 265.703V267.129H118.41C116.887 267.129 115.52 267.272 114.309 267.559C113.111 267.845 112.102 268.262 111.281 268.809C110.396 269.395 109.719 270.137 109.25 271.035C108.794 271.921 108.566 272.943 108.566 274.102C108.566 275 108.742 275.84 109.094 276.621C109.458 277.389 109.966 278.047 110.617 278.594C111.255 279.154 112.023 279.596 112.922 279.922C113.833 280.234 114.836 280.391 115.93 280.391C116.607 280.391 117.238 280.326 117.824 280.195C118.41 280.065 118.957 279.883 119.465 279.648C119.973 279.427 120.428 279.167 120.832 278.867C121.249 278.555 121.62 278.229 121.945 277.891C122.01 278.294 122.082 278.685 122.16 279.062C122.251 279.427 122.368 279.74 122.512 280ZM116.828 276.641C116.229 276.641 115.708 276.569 115.266 276.426C114.823 276.27 114.452 276.061 114.152 275.801C113.853 275.54 113.625 275.228 113.469 274.863C113.312 274.486 113.234 274.082 113.234 273.652C113.234 273.132 113.326 272.663 113.508 272.246C113.703 271.829 113.996 271.471 114.387 271.172C114.829 270.82 115.422 270.553 116.164 270.371C116.906 270.176 117.785 270.078 118.801 270.078H121.809V273.984C121.639 274.323 121.398 274.648 121.086 274.961C120.773 275.273 120.402 275.553 119.973 275.801C119.543 276.048 119.061 276.25 118.527 276.406C118.007 276.562 117.44 276.641 116.828 276.641ZM149.933 283.691V280H132.081V283.691H149.933ZM164.677 253.711H159.99V258.867H154.873V262.363H159.99V272.754C159.99 274.108 160.166 275.267 160.517 276.23C160.882 277.194 161.383 277.982 162.021 278.594C162.659 279.219 163.421 279.681 164.306 279.98C165.205 280.267 166.188 280.41 167.256 280.41C167.842 280.41 168.427 280.378 169.013 280.312C169.612 280.26 170.185 280.182 170.732 280.078C171.279 279.974 171.787 279.85 172.256 279.707C172.737 279.551 173.148 279.368 173.486 279.16L172.978 275.938C172.744 275.99 172.451 276.055 172.099 276.133C171.761 276.198 171.396 276.257 171.006 276.309C170.602 276.374 170.185 276.426 169.756 276.465C169.326 276.504 168.909 276.523 168.506 276.523C167.946 276.523 167.431 276.458 166.963 276.328C166.494 276.198 166.09 275.977 165.752 275.664C165.413 275.365 165.146 274.954 164.951 274.434C164.769 273.9 164.677 273.242 164.677 272.461V262.363H172.627V258.867H164.677V253.711ZM39.6244 348.125H44.2923V338.086C44.5397 338.359 44.8067 338.613 45.0931 338.848C45.3796 339.082 45.6791 339.29 45.9916 339.473C46.5254 339.772 47.1048 340 47.7298 340.156C48.3679 340.312 49.0645 340.391 49.8197 340.391C51.1478 340.391 52.3262 340.117 53.3548 339.57C54.3835 339.023 55.2494 338.268 55.9525 337.305C56.6556 336.354 57.183 335.221 57.5345 333.906C57.8991 332.591 58.0814 331.172 58.0814 329.648V329.238C58.0814 327.65 57.8991 326.198 57.5345 324.883C57.1699 323.555 56.6426 322.415 55.9525 321.465C55.2494 320.514 54.377 319.779 53.3353 319.258C52.3067 318.737 51.1153 318.477 49.7611 318.477C49.071 318.477 48.4199 318.555 47.808 318.711C47.196 318.854 46.6361 319.062 46.1283 319.336C45.7377 319.544 45.3731 319.792 45.0345 320.078C44.696 320.365 44.3835 320.684 44.097 321.035L43.9212 318.867H39.6244V348.125ZM53.4134 329.238V329.648C53.4134 330.586 53.3223 331.478 53.14 332.324C52.9577 333.158 52.6647 333.9 52.2611 334.551C51.8705 335.189 51.3627 335.697 50.7377 336.074C50.1257 336.439 49.3835 336.621 48.5111 336.621C47.9772 336.621 47.489 336.562 47.0462 336.445C46.6035 336.315 46.2064 336.146 45.8548 335.938C45.5163 335.716 45.2168 335.456 44.9564 335.156C44.696 334.857 44.4746 334.525 44.2923 334.16V324.766C44.5007 324.375 44.7416 324.023 45.015 323.711C45.3015 323.398 45.6335 323.138 46.0111 322.93C46.3366 322.734 46.7077 322.585 47.1244 322.48C47.541 322.376 47.9903 322.324 48.472 322.324C49.3444 322.324 50.0931 322.507 50.7181 322.871C51.3431 323.236 51.8574 323.73 52.2611 324.355C52.6517 324.98 52.9382 325.716 53.1205 326.562C53.3158 327.396 53.4134 328.288 53.4134 329.238ZM61.8694 329.238V329.648C61.8694 331.198 62.0907 332.624 62.5334 333.926C62.9761 335.228 63.6207 336.361 64.467 337.324C65.3004 338.288 66.329 339.043 67.553 339.59C68.7769 340.137 70.1636 340.41 71.7131 340.41C73.2496 340.41 74.6233 340.137 75.8342 339.59C77.0582 339.043 78.0868 338.288 78.9202 337.324C79.7535 336.361 80.3915 335.228 80.8342 333.926C81.2769 332.624 81.4983 331.198 81.4983 329.648V329.238C81.4983 327.702 81.2769 326.283 80.8342 324.98C80.3915 323.665 79.7535 322.526 78.9202 321.562C78.0738 320.599 77.0386 319.844 75.8147 319.297C74.6038 318.75 73.2235 318.477 71.6741 318.477C70.1246 318.477 68.7444 318.75 67.5334 319.297C66.3225 319.844 65.3004 320.599 64.467 321.562C63.6207 322.526 62.9761 323.665 62.5334 324.98C62.0907 326.283 61.8694 327.702 61.8694 329.238ZM66.5373 329.648V329.238C66.5373 328.314 66.635 327.428 66.8303 326.582C67.0386 325.736 67.3577 324.993 67.7873 324.355C68.204 323.717 68.7314 323.21 69.3694 322.832C70.0204 322.454 70.7886 322.266 71.6741 322.266C72.5725 322.266 73.3407 322.454 73.9788 322.832C74.6298 323.21 75.1702 323.717 75.5998 324.355C76.0035 324.993 76.3095 325.736 76.5178 326.582C76.7261 327.428 76.8303 328.314 76.8303 329.238V329.648C76.8303 330.599 76.7261 331.497 76.5178 332.344C76.3225 333.19 76.0165 333.932 75.5998 334.57C75.1832 335.208 74.6493 335.716 73.9983 336.094C73.3472 336.458 72.5855 336.641 71.7131 336.641C70.8147 336.641 70.04 336.458 69.3889 336.094C68.7379 335.716 68.204 335.208 67.7873 334.57C67.3577 333.932 67.0386 333.19 66.8303 332.344C66.635 331.497 66.5373 330.599 66.5373 329.648ZM86.9464 318.867V322.754H93.4503V336.133H86.9464V340H104.368V336.133H98.1573V318.867H86.9464ZM93.0206 313.398C93.0206 313.893 93.1378 314.329 93.3722 314.707C93.6196 315.072 93.9777 315.326 94.4464 315.469C94.9021 315.612 95.3188 315.645 95.6964 315.566C96.074 315.488 96.3995 315.326 96.673 315.078C97.2198 314.935 97.6365 314.655 97.923 314.238C98.2094 313.809 98.3071 313.307 98.2159 312.734C98.1508 312.174 97.8969 311.719 97.4542 311.367C97.0245 311.003 96.4581 310.82 95.755 310.82C95.3383 310.82 94.9607 310.885 94.6222 311.016C94.2967 311.133 94.0167 311.302 93.7823 311.523C93.535 311.758 93.3462 312.038 93.2159 312.363C93.0857 312.676 93.0206 313.021 93.0206 313.398ZM109.016 340H113.684V324.922C113.892 324.57 114.133 324.245 114.406 323.945C114.68 323.646 114.973 323.392 115.285 323.184C115.689 322.91 116.138 322.702 116.633 322.559C117.128 322.402 117.661 322.324 118.234 322.324C118.924 322.324 119.536 322.402 120.07 322.559C120.604 322.702 121.06 322.949 121.438 323.301C121.815 323.652 122.102 324.121 122.297 324.707C122.492 325.293 122.59 326.022 122.59 326.895V340H127.258V326.816C127.258 325.332 127.082 324.069 126.73 323.027C126.379 321.973 125.884 321.107 125.246 320.43C124.608 319.753 123.84 319.258 122.941 318.945C122.043 318.633 121.053 318.477 119.973 318.477C119.152 318.477 118.371 318.594 117.629 318.828C116.887 319.062 116.203 319.395 115.578 319.824C115.188 320.098 114.816 320.41 114.465 320.762C114.126 321.1 113.814 321.471 113.527 321.875L113.234 318.867H109.016V340ZM141.534 313.711H136.847V318.867H131.729V322.363H136.847V332.754C136.847 334.108 137.022 335.267 137.374 336.23C137.738 337.194 138.24 337.982 138.878 338.594C139.516 339.219 140.278 339.681 141.163 339.98C142.061 340.267 143.044 340.41 144.112 340.41C144.698 340.41 145.284 340.378 145.87 340.312C146.469 340.26 147.042 340.182 147.589 340.078C148.136 339.974 148.643 339.85 149.112 339.707C149.594 339.551 150.004 339.368 150.343 339.16L149.835 335.938C149.6 335.99 149.308 336.055 148.956 336.133C148.617 336.198 148.253 336.257 147.862 336.309C147.459 336.374 147.042 336.426 146.612 336.465C146.183 336.504 145.766 336.523 145.362 336.523C144.802 336.523 144.288 336.458 143.819 336.328C143.35 336.198 142.947 335.977 142.608 335.664C142.27 335.365 142.003 334.954 141.808 334.434C141.625 333.9 141.534 333.242 141.534 332.461V322.363H149.483V318.867H141.534V313.711ZM165.166 340.391C167.223 340.391 168.974 339.987 170.42 339.18C171.878 338.372 172.959 337.461 173.662 336.445L171.162 334.023C170.511 334.857 169.684 335.501 168.681 335.957C167.679 336.4 166.598 336.621 165.439 336.621C164.593 336.621 163.812 336.478 163.095 336.191C162.392 335.905 161.78 335.501 161.26 334.98C160.739 334.486 160.329 333.926 160.029 333.301C159.73 332.676 159.508 331.901 159.365 330.977V330.879H174.013V328.867C174.013 327.357 173.812 325.964 173.408 324.688C173.004 323.411 172.405 322.311 171.611 321.387C170.817 320.475 169.834 319.766 168.662 319.258C167.49 318.737 166.142 318.477 164.619 318.477C163.252 318.477 161.963 318.737 160.752 319.258C159.554 319.766 158.499 320.495 157.588 321.445C156.676 322.396 155.96 323.542 155.439 324.883C154.918 326.224 154.658 327.721 154.658 329.375V330.176C154.658 331.621 154.905 332.969 155.4 334.219C155.908 335.456 156.624 336.53 157.549 337.441C158.473 338.366 159.58 339.089 160.869 339.609C162.171 340.13 163.603 340.391 165.166 340.391ZM164.599 322.266C165.381 322.266 166.064 322.402 166.65 322.676C167.249 322.936 167.744 323.288 168.135 323.73C168.538 324.186 168.851 324.72 169.072 325.332C169.293 325.931 169.404 326.536 169.404 327.148V327.461H159.463C159.606 326.654 159.827 325.931 160.127 325.293C160.426 324.655 160.797 324.108 161.24 323.652C161.683 323.21 162.184 322.871 162.744 322.637C163.317 322.389 163.935 322.266 164.599 322.266ZM193.055 318.477C191.597 318.477 190.262 318.815 189.051 319.492C187.853 320.169 186.825 321.1 185.965 322.285L185.946 321.797L185.751 318.867H181.376V340H186.044V326.953C186.291 326.328 186.597 325.775 186.962 325.293C187.326 324.811 187.769 324.414 188.29 324.102C188.771 323.776 189.325 323.535 189.95 323.379C190.575 323.223 191.278 323.145 192.059 323.145C192.749 323.145 193.439 323.184 194.13 323.262C194.833 323.34 195.542 323.457 196.258 323.613L196.923 319.004C196.519 318.861 195.959 318.737 195.243 318.633C194.54 318.529 193.811 318.477 193.055 318.477Z" fill="white"/>
  <path d="M42.1328 122.867H37.4648V144H42.4062V128.18C42.4714 128.01 42.543 127.854 42.6211 127.711C42.6992 127.568 42.7904 127.444 42.8945 127.34C43.0378 127.197 43.2005 127.086 43.3828 127.008C43.5651 126.93 43.7734 126.891 44.0078 126.891C44.2161 126.891 44.4115 126.923 44.5938 126.988C44.776 127.04 44.9388 127.138 45.082 127.281C45.2122 127.424 45.3164 127.626 45.3945 127.887C45.4727 128.147 45.5117 128.479 45.5117 128.883V144H50.2969V128.414C50.2969 128.258 50.2969 128.134 50.2969 128.043C50.2969 127.952 50.2969 127.893 50.2969 127.867C50.362 127.724 50.4401 127.6 50.5312 127.496C50.6224 127.379 50.7266 127.275 50.8438 127.184C50.987 127.092 51.1367 127.021 51.293 126.969C51.4622 126.917 51.651 126.891 51.8594 126.891C52.0547 126.891 52.2435 126.923 52.4258 126.988C52.6211 127.04 52.7904 127.138 52.9336 127.281C53.0768 127.438 53.1875 127.646 53.2656 127.906C53.3568 128.167 53.4023 128.499 53.4023 128.902V144H58.3438V128.922C58.3438 127.75 58.2266 126.76 57.9922 125.953C57.7708 125.133 57.4583 124.462 57.0547 123.941C56.638 123.434 56.1497 123.062 55.5898 122.828C55.043 122.594 54.4505 122.477 53.8125 122.477C53.3047 122.477 52.8359 122.542 52.4062 122.672C51.9766 122.802 51.5924 122.984 51.2539 123.219C50.9805 123.401 50.7266 123.622 50.4922 123.883C50.2708 124.13 50.069 124.41 49.8867 124.723C49.7695 124.397 49.6263 124.111 49.457 123.863C49.3008 123.603 49.112 123.382 48.8906 123.199C48.6042 122.952 48.2656 122.77 47.875 122.652C47.4844 122.535 47.0417 122.477 46.5469 122.477C45.5312 122.477 44.6654 122.743 43.9492 123.277C43.2461 123.798 42.6927 124.514 42.2891 125.426L42.1328 122.867ZM72.1513 144.391C74.1955 144.391 75.9664 143.993 77.4638 143.199C78.9611 142.405 80.0549 141.52 80.745 140.543L78.0302 137.613C77.4052 138.421 76.5914 139.026 75.5888 139.43C74.5861 139.833 73.551 140.035 72.4833 140.035C71.7281 140.035 71.0315 139.918 70.3934 139.684C69.7554 139.449 69.189 139.117 68.6942 138.688C68.2124 138.271 67.8283 137.809 67.5419 137.301C67.2554 136.78 67.021 136.096 66.8388 135.25V135.191H81.1747V132.887C81.1747 131.337 80.9598 129.924 80.5302 128.648C80.1005 127.359 79.4755 126.259 78.6552 125.348C77.8218 124.436 76.8062 123.733 75.6083 123.238C74.4234 122.73 73.0692 122.477 71.5458 122.477C70.0744 122.477 68.7138 122.743 67.4638 123.277C66.2138 123.811 65.133 124.56 64.2216 125.523C63.3101 126.487 62.6005 127.639 62.0927 128.98C61.5848 130.309 61.3309 131.78 61.3309 133.395V134.176C61.3309 135.595 61.5848 136.93 62.0927 138.18C62.6135 139.417 63.3492 140.491 64.2997 141.402C65.2502 142.327 66.3895 143.056 67.7177 143.59C69.0458 144.124 70.5236 144.391 72.1513 144.391ZM71.5067 126.871C72.1968 126.871 72.8023 126.982 73.3231 127.203C73.857 127.411 74.3062 127.698 74.6708 128.062C75.0354 128.44 75.3218 128.883 75.5302 129.391C75.7385 129.898 75.8427 130.439 75.8427 131.012V131.441H66.9364C67.0666 130.751 67.2619 130.126 67.5223 129.566C67.7828 129.007 68.1083 128.525 68.4989 128.121C68.8765 127.717 69.3192 127.411 69.827 127.203C70.3348 126.982 70.8947 126.871 71.5067 126.871ZM98.6736 138.199C98.6736 138.525 98.589 138.824 98.4197 139.098C98.2634 139.371 98.0226 139.612 97.697 139.82C97.3585 140.029 96.9223 140.198 96.3884 140.328C95.8676 140.445 95.2556 140.504 94.5525 140.504C93.9666 140.504 93.3936 140.445 92.8338 140.328C92.2869 140.211 91.7986 140.022 91.3689 139.762C90.9392 139.514 90.5877 139.189 90.3142 138.785C90.0408 138.368 89.8845 137.874 89.8455 137.301H84.6697C84.6697 138.16 84.878 139.02 85.2947 139.879C85.7244 140.725 86.3494 141.48 87.1697 142.145C87.99 142.822 89.0056 143.368 90.2166 143.785C91.4405 144.202 92.8468 144.41 94.4353 144.41C95.8806 144.41 97.1892 144.254 98.3611 143.941C99.533 143.616 100.536 143.167 101.369 142.594C102.189 142.021 102.821 141.344 103.263 140.562C103.719 139.768 103.947 138.902 103.947 137.965C103.947 136.949 103.719 136.077 103.263 135.348C102.821 134.605 102.202 133.974 101.408 133.453C100.614 132.945 99.6697 132.529 98.5759 132.203C97.4822 131.878 96.2973 131.611 95.0213 131.402C94.1358 131.272 93.4067 131.122 92.8338 130.953C92.2608 130.771 91.8116 130.569 91.4861 130.348C91.1476 130.139 90.9132 129.905 90.783 129.645C90.6528 129.371 90.5877 129.078 90.5877 128.766C90.5877 128.453 90.6593 128.16 90.8025 127.887C90.9588 127.6 91.1801 127.353 91.4666 127.145C91.7791 126.91 92.1827 126.728 92.6775 126.598C93.1723 126.467 93.7517 126.402 94.4158 126.402C95.197 126.402 95.8611 126.5 96.408 126.695C96.9679 126.891 97.4106 127.151 97.7361 127.477C97.9705 127.724 98.1463 128.004 98.2634 128.316C98.3806 128.616 98.4392 128.941 98.4392 129.293H103.869C103.869 128.316 103.654 127.411 103.224 126.578C102.795 125.745 102.176 125.022 101.369 124.41C100.549 123.811 99.5525 123.342 98.3806 123.004C97.2088 122.652 95.8871 122.477 94.4158 122.477C93.0095 122.477 91.7465 122.652 90.6267 123.004C89.5069 123.355 88.5564 123.831 87.7752 124.43C86.9939 125.029 86.3949 125.725 85.9783 126.52C85.5616 127.314 85.3533 128.147 85.3533 129.02C85.3533 129.918 85.5551 130.712 85.9588 131.402C86.3754 132.092 86.9483 132.698 87.6775 133.219C88.4067 133.753 89.2791 134.208 90.2947 134.586C91.3233 134.951 92.4561 135.257 93.6931 135.504C94.6697 135.686 95.477 135.868 96.115 136.051C96.753 136.233 97.2673 136.428 97.658 136.637C98.0356 136.858 98.296 137.092 98.4392 137.34C98.5955 137.587 98.6736 137.874 98.6736 138.199ZM121.817 138.199C121.817 138.525 121.732 138.824 121.563 139.098C121.407 139.371 121.166 139.612 120.84 139.82C120.502 140.029 120.066 140.198 119.532 140.328C119.011 140.445 118.399 140.504 117.696 140.504C117.11 140.504 116.537 140.445 115.977 140.328C115.43 140.211 114.942 140.022 114.512 139.762C114.083 139.514 113.731 139.189 113.458 138.785C113.184 138.368 113.028 137.874 112.989 137.301H107.813C107.813 138.16 108.021 139.02 108.438 139.879C108.868 140.725 109.493 141.48 110.313 142.145C111.133 142.822 112.149 143.368 113.36 143.785C114.584 144.202 115.99 144.41 117.579 144.41C119.024 144.41 120.333 144.254 121.505 143.941C122.676 143.616 123.679 143.167 124.512 142.594C125.333 142.021 125.964 141.344 126.407 140.562C126.863 139.768 127.09 138.902 127.09 137.965C127.09 136.949 126.863 136.077 126.407 135.348C125.964 134.605 125.346 133.974 124.551 133.453C123.757 132.945 122.813 132.529 121.719 132.203C120.626 131.878 119.441 131.611 118.165 131.402C117.279 131.272 116.55 131.122 115.977 130.953C115.404 130.771 114.955 130.569 114.63 130.348C114.291 130.139 114.057 129.905 113.926 129.645C113.796 129.371 113.731 129.078 113.731 128.766C113.731 128.453 113.803 128.16 113.946 127.887C114.102 127.6 114.324 127.353 114.61 127.145C114.923 126.91 115.326 126.728 115.821 126.598C116.316 126.467 116.895 126.402 117.559 126.402C118.34 126.402 119.005 126.5 119.551 126.695C120.111 126.891 120.554 127.151 120.88 127.477C121.114 127.724 121.29 128.004 121.407 128.316C121.524 128.616 121.583 128.941 121.583 129.293H127.012C127.012 128.316 126.798 127.411 126.368 126.578C125.938 125.745 125.32 125.022 124.512 124.41C123.692 123.811 122.696 123.342 121.524 123.004C120.352 122.652 119.031 122.477 117.559 122.477C116.153 122.477 114.89 122.652 113.77 123.004C112.65 123.355 111.7 123.831 110.919 124.43C110.137 125.029 109.538 125.725 109.122 126.52C108.705 127.314 108.497 128.147 108.497 129.02C108.497 129.918 108.699 130.712 109.102 131.402C109.519 132.092 110.092 132.698 110.821 133.219C111.55 133.753 112.423 134.208 113.438 134.586C114.467 134.951 115.6 135.257 116.837 135.504C117.813 135.686 118.62 135.868 119.258 136.051C119.896 136.233 120.411 136.428 120.801 136.637C121.179 136.858 121.439 137.092 121.583 137.34C121.739 137.587 121.817 137.874 121.817 138.199ZM144.531 144H150.039V143.668C149.765 143.134 149.557 142.496 149.414 141.754C149.27 141.012 149.199 140.074 149.199 138.941V129.879C149.199 128.655 148.971 127.581 148.515 126.656C148.059 125.719 147.428 124.944 146.621 124.332C145.813 123.72 144.856 123.258 143.75 122.945C142.656 122.633 141.471 122.477 140.195 122.477C138.776 122.477 137.513 122.659 136.406 123.023C135.312 123.375 134.388 123.857 133.632 124.469C132.864 125.081 132.278 125.79 131.875 126.598C131.484 127.405 131.289 128.258 131.289 129.156H136.718C136.718 128.779 136.77 128.434 136.875 128.121C136.992 127.809 137.168 127.542 137.402 127.32C137.662 127.073 138.001 126.884 138.418 126.754C138.834 126.611 139.329 126.539 139.902 126.539C140.553 126.539 141.119 126.624 141.601 126.793C142.096 126.949 142.506 127.177 142.832 127.477C143.144 127.763 143.378 128.108 143.535 128.512C143.691 128.902 143.769 129.345 143.769 129.84V131.09H140.742C139.179 131.09 137.793 131.233 136.582 131.52C135.384 131.793 134.375 132.197 133.554 132.73C132.643 133.316 131.959 134.065 131.503 134.977C131.048 135.875 130.82 136.91 130.82 138.082C130.82 138.993 131.002 139.84 131.367 140.621C131.731 141.389 132.239 142.053 132.89 142.613C133.541 143.173 134.316 143.609 135.214 143.922C136.126 144.234 137.122 144.391 138.203 144.391C138.867 144.391 139.485 144.326 140.058 144.195C140.631 144.078 141.158 143.909 141.64 143.688C142.109 143.479 142.539 143.232 142.929 142.945C143.32 142.659 143.665 142.353 143.964 142.027C144.029 142.405 144.108 142.763 144.199 143.102C144.29 143.44 144.401 143.74 144.531 144ZM139.355 140.191C138.847 140.191 138.398 140.133 138.007 140.016C137.63 139.885 137.311 139.716 137.05 139.508C136.79 139.286 136.588 139.02 136.445 138.707C136.315 138.382 136.25 138.03 136.25 137.652C136.25 137.171 136.341 136.728 136.523 136.324C136.705 135.908 136.985 135.549 137.363 135.25C137.74 134.964 138.229 134.742 138.828 134.586C139.427 134.417 140.149 134.332 140.996 134.332H143.769V137.965C143.613 138.238 143.398 138.512 143.125 138.785C142.851 139.046 142.526 139.28 142.148 139.488C141.77 139.697 141.347 139.866 140.878 139.996C140.41 140.126 139.902 140.191 139.355 140.191ZM153.924 133.277V133.688C153.924 135.224 154.12 136.65 154.51 137.965C154.914 139.267 155.487 140.393 156.229 141.344C156.971 142.294 157.863 143.043 158.905 143.59C159.959 144.124 161.144 144.391 162.459 144.391C163.123 144.391 163.742 144.319 164.315 144.176C164.901 144.033 165.435 143.831 165.916 143.57C166.242 143.388 166.548 143.18 166.834 142.945C167.121 142.711 167.394 142.451 167.655 142.164V143.375C167.655 144.091 167.551 144.736 167.342 145.309C167.147 145.882 166.86 146.363 166.483 146.754C166.066 147.184 165.545 147.509 164.92 147.73C164.308 147.952 163.605 148.062 162.811 148.062C162.316 148.062 161.834 148.01 161.366 147.906C160.91 147.815 160.467 147.672 160.037 147.477C159.595 147.281 159.172 147.027 158.768 146.715C158.364 146.415 157.987 146.064 157.635 145.66L155.194 148.961C155.649 149.547 156.196 150.048 156.834 150.465C157.472 150.895 158.149 151.246 158.866 151.52C159.582 151.793 160.304 151.995 161.034 152.125C161.763 152.255 162.446 152.32 163.084 152.32C164.569 152.32 165.923 152.118 167.147 151.715C168.384 151.324 169.445 150.745 170.33 149.977C171.203 149.208 171.88 148.264 172.362 147.145C172.857 146.025 173.104 144.749 173.104 143.316V122.867H168.162L167.948 124.879C167.687 124.553 167.401 124.26 167.088 124C166.776 123.727 166.437 123.492 166.073 123.297C165.591 123.023 165.051 122.822 164.452 122.691C163.866 122.548 163.215 122.477 162.498 122.477C161.17 122.477 159.979 122.737 158.924 123.258C157.87 123.779 156.971 124.514 156.229 125.465C155.487 126.415 154.914 127.555 154.51 128.883C154.12 130.211 153.924 131.676 153.924 133.277ZM159.373 133.688V133.277C159.373 132.392 159.465 131.565 159.647 130.797C159.829 130.016 160.109 129.332 160.487 128.746C160.851 128.173 161.314 127.724 161.873 127.398C162.433 127.06 163.097 126.891 163.866 126.891C164.282 126.891 164.666 126.93 165.018 127.008C165.383 127.086 165.715 127.197 166.014 127.34C166.366 127.509 166.678 127.73 166.952 128.004C167.225 128.277 167.459 128.596 167.655 128.961V137.906C167.472 138.232 167.258 138.525 167.01 138.785C166.763 139.046 166.476 139.267 166.151 139.449C165.838 139.618 165.487 139.749 165.096 139.84C164.718 139.931 164.295 139.977 163.827 139.977C163.058 139.977 162.394 139.814 161.834 139.488C161.274 139.163 160.812 138.714 160.448 138.141C160.083 137.581 159.81 136.923 159.627 136.168C159.458 135.4 159.373 134.573 159.373 133.688ZM187.868 144.391C189.913 144.391 191.684 143.993 193.181 143.199C194.678 142.405 195.772 141.52 196.462 140.543L193.747 137.613C193.122 138.421 192.309 139.026 191.306 139.43C190.303 139.833 189.268 140.035 188.2 140.035C187.445 140.035 186.749 139.918 186.111 139.684C185.473 139.449 184.906 139.117 184.411 138.688C183.93 138.271 183.546 137.809 183.259 137.301C182.973 136.78 182.738 136.096 182.556 135.25V135.191H196.892V132.887C196.892 131.337 196.677 129.924 196.247 128.648C195.818 127.359 195.193 126.259 194.372 125.348C193.539 124.436 192.523 123.733 191.325 123.238C190.141 122.73 188.786 122.477 187.263 122.477C185.792 122.477 184.431 122.743 183.181 123.277C181.931 123.811 180.85 124.56 179.939 125.523C179.027 126.487 178.318 127.639 177.81 128.98C177.302 130.309 177.048 131.78 177.048 133.395V134.176C177.048 135.595 177.302 136.93 177.81 138.18C178.331 139.417 179.066 140.491 180.017 141.402C180.967 142.327 182.107 143.056 183.435 143.59C184.763 144.124 186.241 144.391 187.868 144.391ZM187.224 126.871C187.914 126.871 188.519 126.982 189.04 127.203C189.574 127.411 190.023 127.698 190.388 128.062C190.753 128.44 191.039 128.883 191.247 129.391C191.456 129.898 191.56 130.439 191.56 131.012V131.441H182.654C182.784 130.751 182.979 130.126 183.24 129.566C183.5 129.007 183.825 128.525 184.216 128.121C184.594 127.717 185.036 127.411 185.544 127.203C186.052 126.982 186.612 126.871 187.224 126.871Z" fill="white"/>
  <path d="M238 292.037C237.172 292.037 236.5 292.709 236.5 293.537C236.5 294.366 237.172 295.037 238 295.037V292.037ZM376.061 294.598C376.646 294.012 376.646 293.062 376.061 292.476L366.515 282.931C365.929 282.345 364.979 282.345 364.393 282.931C363.808 283.516 363.808 284.466 364.393 285.052L372.879 293.537L364.393 302.022C363.808 302.608 363.808 303.558 364.393 304.144C364.979 304.729 365.929 304.729 366.515 304.144L376.061 294.598ZM238 295.037H375V292.037H238V295.037Z" fill="#E6E6E6"/>
</svg>
