<svg viewBox="0 0 1219 1024" fill="none"
  xmlns="http://www.w3.org/2000/svg">
  <rect x="2" y="93.0742" width="232" height="208" rx="80" fill="#9747FF" stroke="#7939CC" stroke-width="4" stroke-miterlimit="0" stroke-linecap="round"/>
  <path d="M64.9656 177.352C64.9656 177.69 64.8875 178.003 64.7312 178.289C64.588 178.562 64.3667 178.816 64.0672 179.051C63.7026 179.337 63.2143 179.565 62.6023 179.734C62.0034 179.904 61.3003 179.988 60.493 179.988C59.894 179.988 59.3016 179.93 58.7156 179.812C58.1297 179.682 57.6089 179.474 57.1531 179.188C56.6844 178.914 56.2937 178.556 55.9812 178.113C55.6818 177.658 55.5125 177.104 55.4734 176.453H50.9422C50.9422 177.326 51.1505 178.185 51.5672 179.031C51.9839 179.878 52.5958 180.626 53.4031 181.277C54.1974 181.941 55.1805 182.475 56.3523 182.879C57.5372 183.283 58.8914 183.484 60.4148 183.484C61.782 183.484 63.0255 183.328 64.1453 183.016C65.2651 182.703 66.2286 182.267 67.0359 181.707C67.8302 181.147 68.4422 180.477 68.8719 179.695C69.3146 178.914 69.5359 178.055 69.5359 177.117C69.5359 176.154 69.3276 175.32 68.9109 174.617C68.4943 173.914 67.9083 173.302 67.1531 172.781C66.3979 172.286 65.4865 171.87 64.4187 171.531C63.351 171.193 62.1727 170.906 60.8836 170.672C59.9591 170.516 59.1909 170.34 58.5789 170.145C57.9799 169.949 57.5112 169.734 57.1727 169.5C56.8081 169.279 56.5542 169.025 56.4109 168.738C56.2677 168.439 56.1961 168.107 56.1961 167.742C56.1961 167.391 56.2807 167.059 56.45 166.746C56.6193 166.421 56.8732 166.141 57.2117 165.906C57.5503 165.646 57.9799 165.444 58.5008 165.301C59.0346 165.145 59.6531 165.066 60.3562 165.066C61.1245 165.066 61.795 165.171 62.368 165.379C62.9409 165.574 63.4096 165.841 63.7742 166.18C64.0867 166.466 64.3211 166.792 64.4773 167.156C64.6466 167.508 64.7312 167.879 64.7312 168.27H69.3992C69.3992 167.319 69.1909 166.434 68.7742 165.613C68.3575 164.793 67.7651 164.083 66.9969 163.484C66.2156 162.885 65.2651 162.417 64.1453 162.078C63.0255 161.727 61.7625 161.551 60.3562 161.551C59.0411 161.551 57.8432 161.72 56.7625 162.059C55.6948 162.397 54.7833 162.859 54.0281 163.445C53.2599 164.031 52.6674 164.715 52.2508 165.496C51.8471 166.264 51.6453 167.078 51.6453 167.938C51.6453 168.836 51.8471 169.624 52.2508 170.301C52.6544 170.978 53.2143 171.564 53.9305 172.059C54.6596 172.579 55.5255 173.022 56.5281 173.387C57.5437 173.751 58.6635 174.057 59.8875 174.305C60.8641 174.487 61.6779 174.682 62.3289 174.891C62.9799 175.099 63.5073 175.32 63.9109 175.555C64.2885 175.815 64.5555 176.089 64.7117 176.375C64.881 176.661 64.9656 176.987 64.9656 177.352ZM84.1637 183.465C86.221 183.465 87.9723 183.061 89.4177 182.254C90.876 181.447 91.9567 180.535 92.6598 179.52L90.1598 177.098C89.5088 177.931 88.682 178.576 87.6794 179.031C86.6768 179.474 85.596 179.695 84.4372 179.695C83.5908 179.695 82.8096 179.552 82.0934 179.266C81.3903 178.979 80.7783 178.576 80.2575 178.055C79.7367 177.56 79.3265 177 79.027 176.375C78.7276 175.75 78.5062 174.975 78.363 174.051V173.953H93.0114V171.941C93.0114 170.431 92.8096 169.038 92.4059 167.762C92.0023 166.486 91.4033 165.385 90.6091 164.461C89.8148 163.549 88.8317 162.84 87.6598 162.332C86.488 161.811 85.1403 161.551 83.6169 161.551C82.2497 161.551 80.9606 161.811 79.7497 162.332C78.5518 162.84 77.4971 163.569 76.5856 164.52C75.6742 165.47 74.958 166.616 74.4372 167.957C73.9164 169.298 73.6559 170.796 73.6559 172.449V173.25C73.6559 174.695 73.9033 176.043 74.3981 177.293C74.9059 178.53 75.6221 179.604 76.5466 180.516C77.471 181.44 78.5778 182.163 79.8669 182.684C81.169 183.204 82.6012 183.465 84.1637 183.465ZM83.5973 165.34C84.3786 165.34 85.0622 165.477 85.6481 165.75C86.2471 166.01 86.7419 166.362 87.1325 166.805C87.5361 167.26 87.8486 167.794 88.07 168.406C88.2914 169.005 88.402 169.611 88.402 170.223V170.535H78.4606C78.6039 169.728 78.8252 169.005 79.1247 168.367C79.4242 167.729 79.7953 167.182 80.238 166.727C80.6807 166.284 81.182 165.945 81.7419 165.711C82.3148 165.464 82.9333 165.34 83.5973 165.34ZM100.1 161.941H96.0377V183.074H100.335V166.844C100.413 166.648 100.497 166.473 100.588 166.316C100.693 166.16 100.81 166.023 100.94 165.906C101.109 165.737 101.311 165.613 101.545 165.535C101.793 165.444 102.073 165.398 102.385 165.398C102.672 165.398 102.926 165.438 103.147 165.516C103.381 165.594 103.583 165.717 103.753 165.887C103.922 166.056 104.045 166.29 104.124 166.59C104.215 166.876 104.26 167.228 104.26 167.645V183.074H108.479V167.391C108.479 167.26 108.479 167.163 108.479 167.098C108.479 167.02 108.479 166.954 108.479 166.902C108.531 166.681 108.609 166.486 108.713 166.316C108.818 166.134 108.948 165.978 109.104 165.848C109.273 165.704 109.469 165.594 109.69 165.516C109.911 165.438 110.172 165.398 110.471 165.398C110.758 165.398 111.018 165.438 111.253 165.516C111.5 165.594 111.708 165.717 111.878 165.887C112.047 166.069 112.177 166.31 112.268 166.609C112.359 166.896 112.405 167.247 112.405 167.664V183.074H116.702V167.703C116.702 166.596 116.585 165.652 116.35 164.871C116.129 164.077 115.81 163.432 115.393 162.938C114.976 162.469 114.482 162.124 113.909 161.902C113.349 161.668 112.73 161.551 112.053 161.551C111.532 161.551 111.051 161.616 110.608 161.746C110.178 161.876 109.788 162.059 109.436 162.293C109.163 162.475 108.909 162.697 108.674 162.957C108.44 163.217 108.232 163.497 108.049 163.797C107.919 163.471 107.763 163.185 107.581 162.938C107.398 162.677 107.19 162.456 106.956 162.273C106.656 162.026 106.298 161.844 105.881 161.727C105.465 161.609 104.996 161.551 104.475 161.551C103.473 161.551 102.613 161.792 101.897 162.273C101.194 162.755 100.641 163.419 100.237 164.266L100.1 161.941ZM138.361 186.766V183.074H120.509V186.766H138.361ZM153.106 156.785H148.418V161.941H143.301V165.438H148.418V175.828C148.418 177.182 148.594 178.341 148.946 179.305C149.31 180.268 149.812 181.056 150.45 181.668C151.088 182.293 151.849 182.755 152.735 183.055C153.633 183.341 154.616 183.484 155.684 183.484C156.27 183.484 156.856 183.452 157.442 183.387C158.041 183.335 158.614 183.257 159.16 183.152C159.707 183.048 160.215 182.924 160.684 182.781C161.166 182.625 161.576 182.443 161.914 182.234L161.407 179.012C161.172 179.064 160.879 179.129 160.528 179.207C160.189 179.272 159.825 179.331 159.434 179.383C159.03 179.448 158.614 179.5 158.184 179.539C157.754 179.578 157.338 179.598 156.934 179.598C156.374 179.598 155.86 179.533 155.391 179.402C154.922 179.272 154.519 179.051 154.18 178.738C153.841 178.439 153.575 178.029 153.379 177.508C153.197 176.974 153.106 176.316 153.106 175.535V165.438H161.055V161.941H153.106V156.785ZM39.6244 251.199H44.2923V241.16C44.5397 241.434 44.8067 241.688 45.0931 241.922C45.3796 242.156 45.6791 242.365 45.9916 242.547C46.5254 242.846 47.1048 243.074 47.7298 243.23C48.3679 243.387 49.0645 243.465 49.8197 243.465C51.1478 243.465 52.3262 243.191 53.3548 242.645C54.3835 242.098 55.2494 241.342 55.9525 240.379C56.6556 239.428 57.183 238.296 57.5345 236.98C57.8991 235.665 58.0814 234.246 58.0814 232.723V232.312C58.0814 230.724 57.8991 229.272 57.5345 227.957C57.1699 226.629 56.6426 225.49 55.9525 224.539C55.2494 223.589 54.377 222.853 53.3353 222.332C52.3067 221.811 51.1153 221.551 49.7611 221.551C49.071 221.551 48.4199 221.629 47.808 221.785C47.196 221.928 46.6361 222.137 46.1283 222.41C45.7377 222.618 45.3731 222.866 45.0345 223.152C44.696 223.439 44.3835 223.758 44.097 224.109L43.9212 221.941H39.6244V251.199ZM53.4134 232.312V232.723C53.4134 233.66 53.3223 234.552 53.14 235.398C52.9577 236.232 52.6647 236.974 52.2611 237.625C51.8705 238.263 51.3627 238.771 50.7377 239.148C50.1257 239.513 49.3835 239.695 48.5111 239.695C47.9772 239.695 47.489 239.637 47.0462 239.52C46.6035 239.389 46.2064 239.22 45.8548 239.012C45.5163 238.79 45.2168 238.53 44.9564 238.23C44.696 237.931 44.4746 237.599 44.2923 237.234V227.84C44.5007 227.449 44.7416 227.098 45.015 226.785C45.3015 226.473 45.6335 226.212 46.0111 226.004C46.3366 225.809 46.7077 225.659 47.1244 225.555C47.541 225.451 47.9903 225.398 48.472 225.398C49.3444 225.398 50.0931 225.581 50.7181 225.945C51.3431 226.31 51.8574 226.805 52.2611 227.43C52.6517 228.055 52.9382 228.79 53.1205 229.637C53.3158 230.47 53.4134 231.362 53.4134 232.312ZM61.8694 232.312V232.723C61.8694 234.272 62.0907 235.698 62.5334 237C62.9761 238.302 63.6207 239.435 64.467 240.398C65.3004 241.362 66.329 242.117 67.553 242.664C68.7769 243.211 70.1636 243.484 71.7131 243.484C73.2496 243.484 74.6233 243.211 75.8342 242.664C77.0582 242.117 78.0868 241.362 78.9202 240.398C79.7535 239.435 80.3915 238.302 80.8342 237C81.2769 235.698 81.4983 234.272 81.4983 232.723V232.312C81.4983 230.776 81.2769 229.357 80.8342 228.055C80.3915 226.74 79.7535 225.6 78.9202 224.637C78.0738 223.673 77.0386 222.918 75.8147 222.371C74.6038 221.824 73.2235 221.551 71.6741 221.551C70.1246 221.551 68.7444 221.824 67.5334 222.371C66.3225 222.918 65.3004 223.673 64.467 224.637C63.6207 225.6 62.9761 226.74 62.5334 228.055C62.0907 229.357 61.8694 230.776 61.8694 232.312ZM66.5373 232.723V232.312C66.5373 231.388 66.635 230.503 66.8303 229.656C67.0386 228.81 67.3577 228.068 67.7873 227.43C68.204 226.792 68.7314 226.284 69.3694 225.906C70.0204 225.529 70.7886 225.34 71.6741 225.34C72.5725 225.34 73.3407 225.529 73.9788 225.906C74.6298 226.284 75.1702 226.792 75.5998 227.43C76.0035 228.068 76.3095 228.81 76.5178 229.656C76.7261 230.503 76.8303 231.388 76.8303 232.312V232.723C76.8303 233.673 76.7261 234.572 76.5178 235.418C76.3225 236.264 76.0165 237.007 75.5998 237.645C75.1832 238.283 74.6493 238.79 73.9983 239.168C73.3472 239.533 72.5855 239.715 71.7131 239.715C70.8147 239.715 70.04 239.533 69.3889 239.168C68.7379 238.79 68.204 238.283 67.7873 237.645C67.3577 237.007 67.0386 236.264 66.8303 235.418C66.635 234.572 66.5373 233.673 66.5373 232.723ZM86.9464 221.941V225.828H93.4503V239.207H86.9464V243.074H104.368V239.207H98.1573V221.941H86.9464ZM93.0206 216.473C93.0206 216.967 93.1378 217.404 93.3722 217.781C93.6196 218.146 93.9777 218.4 94.4464 218.543C94.9021 218.686 95.3188 218.719 95.6964 218.641C96.074 218.562 96.3995 218.4 96.673 218.152C97.2198 218.009 97.6365 217.729 97.923 217.312C98.2094 216.883 98.3071 216.382 98.2159 215.809C98.1508 215.249 97.8969 214.793 97.4542 214.441C97.0245 214.077 96.4581 213.895 95.755 213.895C95.3383 213.895 94.9607 213.96 94.6222 214.09C94.2967 214.207 94.0167 214.376 93.7823 214.598C93.535 214.832 93.3462 215.112 93.2159 215.438C93.0857 215.75 93.0206 216.095 93.0206 216.473ZM109.016 243.074H113.684V227.996C113.892 227.645 114.133 227.319 114.406 227.02C114.68 226.72 114.973 226.466 115.285 226.258C115.689 225.984 116.138 225.776 116.633 225.633C117.128 225.477 117.661 225.398 118.234 225.398C118.924 225.398 119.536 225.477 120.07 225.633C120.604 225.776 121.06 226.023 121.438 226.375C121.815 226.727 122.102 227.195 122.297 227.781C122.492 228.367 122.59 229.096 122.59 229.969V243.074H127.258V229.891C127.258 228.406 127.082 227.143 126.73 226.102C126.379 225.047 125.884 224.181 125.246 223.504C124.608 222.827 123.84 222.332 122.941 222.02C122.043 221.707 121.053 221.551 119.973 221.551C119.152 221.551 118.371 221.668 117.629 221.902C116.887 222.137 116.203 222.469 115.578 222.898C115.188 223.172 114.816 223.484 114.465 223.836C114.126 224.174 113.814 224.546 113.527 224.949L113.234 221.941H109.016V243.074ZM141.534 216.785H136.847V221.941H131.729V225.438H136.847V235.828C136.847 237.182 137.022 238.341 137.374 239.305C137.738 240.268 138.24 241.056 138.878 241.668C139.516 242.293 140.278 242.755 141.163 243.055C142.061 243.341 143.044 243.484 144.112 243.484C144.698 243.484 145.284 243.452 145.87 243.387C146.469 243.335 147.042 243.257 147.589 243.152C148.136 243.048 148.643 242.924 149.112 242.781C149.594 242.625 150.004 242.443 150.343 242.234L149.835 239.012C149.6 239.064 149.308 239.129 148.956 239.207C148.617 239.272 148.253 239.331 147.862 239.383C147.459 239.448 147.042 239.5 146.612 239.539C146.183 239.578 145.766 239.598 145.362 239.598C144.802 239.598 144.288 239.533 143.819 239.402C143.35 239.272 142.947 239.051 142.608 238.738C142.27 238.439 142.003 238.029 141.808 237.508C141.625 236.974 141.534 236.316 141.534 235.535V225.438H149.483V221.941H141.534V216.785ZM165.166 243.465C167.223 243.465 168.974 243.061 170.42 242.254C171.878 241.447 172.959 240.535 173.662 239.52L171.162 237.098C170.511 237.931 169.684 238.576 168.681 239.031C167.679 239.474 166.598 239.695 165.439 239.695C164.593 239.695 163.812 239.552 163.095 239.266C162.392 238.979 161.78 238.576 161.26 238.055C160.739 237.56 160.329 237 160.029 236.375C159.73 235.75 159.508 234.975 159.365 234.051V233.953H174.013V231.941C174.013 230.431 173.812 229.038 173.408 227.762C173.004 226.486 172.405 225.385 171.611 224.461C170.817 223.549 169.834 222.84 168.662 222.332C167.49 221.811 166.142 221.551 164.619 221.551C163.252 221.551 161.963 221.811 160.752 222.332C159.554 222.84 158.499 223.569 157.588 224.52C156.676 225.47 155.96 226.616 155.439 227.957C154.918 229.298 154.658 230.796 154.658 232.449V233.25C154.658 234.695 154.905 236.043 155.4 237.293C155.908 238.53 156.624 239.604 157.549 240.516C158.473 241.44 159.58 242.163 160.869 242.684C162.171 243.204 163.603 243.465 165.166 243.465ZM164.599 225.34C165.381 225.34 166.064 225.477 166.65 225.75C167.249 226.01 167.744 226.362 168.135 226.805C168.538 227.26 168.851 227.794 169.072 228.406C169.293 229.005 169.404 229.611 169.404 230.223V230.535H159.463C159.606 229.728 159.827 229.005 160.127 228.367C160.426 227.729 160.797 227.182 161.24 226.727C161.683 226.284 162.184 225.945 162.744 225.711C163.317 225.464 163.935 225.34 164.599 225.34ZM193.055 221.551C191.597 221.551 190.262 221.889 189.051 222.566C187.853 223.243 186.825 224.174 185.965 225.359L185.946 224.871L185.751 221.941H181.376V243.074H186.044V230.027C186.291 229.402 186.597 228.849 186.962 228.367C187.326 227.885 187.769 227.488 188.29 227.176C188.771 226.85 189.325 226.609 189.95 226.453C190.575 226.297 191.278 226.219 192.059 226.219C192.749 226.219 193.439 226.258 194.13 226.336C194.833 226.414 195.542 226.531 196.258 226.688L196.923 222.078C196.519 221.935 195.959 221.811 195.243 221.707C194.54 221.603 193.811 221.551 193.055 221.551Z" fill="white"/>
  <path d="M29.3867 40.1992C29.3867 40.5247 29.3021 40.8242 29.1328 41.0977C28.9766 41.3711 28.7357 41.612 28.4102 41.8203C28.0716 42.0286 27.6354 42.1979 27.1016 42.3281C26.5807 42.4453 25.9688 42.5039 25.2656 42.5039C24.6797 42.5039 24.1068 42.4453 23.5469 42.3281C23 42.2109 22.5117 42.0221 22.082 41.7617C21.6523 41.5143 21.3008 41.1888 21.0273 40.7852C20.7539 40.3685 20.5977 39.8737 20.5586 39.3008H15.3828C15.3828 40.1602 15.5911 41.0195 16.0078 41.8789C16.4375 42.7253 17.0625 43.4805 17.8828 44.1445C18.7031 44.8216 19.7188 45.3685 20.9297 45.7852C22.1536 46.2018 23.5599 46.4102 25.1484 46.4102C26.5938 46.4102 27.9023 46.2539 29.0742 45.9414C30.2461 45.6159 31.2487 45.1667 32.082 44.5938C32.9023 44.0208 33.5339 43.3438 33.9766 42.5625C34.4323 41.7682 34.6602 40.9023 34.6602 39.9648C34.6602 38.9492 34.4323 38.0768 33.9766 37.3477C33.5339 36.6055 32.9154 35.974 32.1211 35.4531C31.3268 34.9453 30.3828 34.5286 29.2891 34.2031C28.1953 33.8776 27.0104 33.6107 25.7344 33.4023C24.849 33.2721 24.1198 33.1224 23.5469 32.9531C22.974 32.7708 22.5247 32.569 22.1992 32.3477C21.8607 32.1393 21.6263 31.9049 21.4961 31.6445C21.3659 31.3711 21.3008 31.0781 21.3008 30.7656C21.3008 30.4531 21.3724 30.1602 21.5156 29.8867C21.6719 29.6003 21.8932 29.3529 22.1797 29.1445C22.4922 28.9102 22.8958 28.7279 23.3906 28.5977C23.8854 28.4674 24.4648 28.4023 25.1289 28.4023C25.9102 28.4023 26.5742 28.5 27.1211 28.6953C27.681 28.8906 28.1237 29.151 28.4492 29.4766C28.6836 29.724 28.8594 30.0039 28.9766 30.3164C29.0938 30.6159 29.1523 30.9414 29.1523 31.293H34.582C34.582 30.3164 34.3672 29.4115 33.9375 28.5781C33.5078 27.7448 32.8893 27.0221 32.082 26.4102C31.2617 25.8112 30.2656 25.3424 29.0938 25.0039C27.9219 24.6523 26.6003 24.4766 25.1289 24.4766C23.7227 24.4766 22.4596 24.6523 21.3398 25.0039C20.2201 25.3555 19.2695 25.8307 18.4883 26.4297C17.707 27.0286 17.1081 27.7253 16.6914 28.5195C16.2747 29.3138 16.0664 30.1471 16.0664 31.0195C16.0664 31.918 16.2682 32.7122 16.6719 33.4023C17.0885 34.0924 17.6615 34.6979 18.3906 35.2188C19.1198 35.7526 19.9922 36.2083 21.0078 36.5859C22.0365 36.9505 23.1693 37.2565 24.4062 37.5039C25.3828 37.6862 26.1901 37.8685 26.8281 38.0508C27.4661 38.2331 27.9805 38.4284 28.3711 38.6367C28.7487 38.8581 29.0091 39.0924 29.1523 39.3398C29.3086 39.5872 29.3867 39.8737 29.3867 40.1992ZM49.1513 46.3906C51.1955 46.3906 52.9664 45.9935 54.4638 45.1992C55.9611 44.4049 57.0549 43.5195 57.745 42.543L55.0302 39.6133C54.4052 40.4206 53.5914 41.026 52.5888 41.4297C51.5861 41.8333 50.551 42.0352 49.4833 42.0352C48.7281 42.0352 48.0315 41.918 47.3934 41.6836C46.7554 41.4492 46.189 41.1172 45.6942 40.6875C45.2124 40.2708 44.8283 39.8086 44.5419 39.3008C44.2554 38.7799 44.021 38.0964 43.8388 37.25V37.1914H58.1747V34.8867C58.1747 33.3372 57.9598 31.9245 57.5302 30.6484C57.1005 29.3594 56.4755 28.2591 55.6552 27.3477C54.8218 26.4362 53.8062 25.7331 52.6083 25.2383C51.4234 24.7305 50.0692 24.4766 48.5458 24.4766C47.0744 24.4766 45.7138 24.7435 44.4638 25.2773C43.2138 25.8112 42.133 26.5599 41.2216 27.5234C40.3101 28.487 39.6005 29.6393 39.0927 30.9805C38.5848 32.3086 38.3309 33.7799 38.3309 35.3945V36.1758C38.3309 37.5951 38.5848 38.9297 39.0927 40.1797C39.6135 41.4167 40.3492 42.4909 41.2997 43.4023C42.2502 44.3268 43.3895 45.056 44.7177 45.5898C46.0458 46.1237 47.5236 46.3906 49.1513 46.3906ZM48.5067 28.8711C49.1968 28.8711 49.8023 28.9818 50.3231 29.2031C50.857 29.4115 51.3062 29.6979 51.6708 30.0625C52.0354 30.4401 52.3218 30.8828 52.5302 31.3906C52.7385 31.8984 52.8427 32.4388 52.8427 33.0117V33.4414H43.9364C44.0666 32.7513 44.2619 32.1263 44.5223 31.5664C44.7828 31.0065 45.1083 30.5247 45.4989 30.1211C45.8765 29.7174 46.3192 29.4115 46.827 29.2031C47.3348 28.9818 47.8947 28.8711 48.5067 28.8711ZM65.4197 24.8672H60.7517V46H65.6931V30.1797C65.7582 30.0104 65.8298 29.8542 65.908 29.7109C65.9861 29.5677 66.0772 29.444 66.1814 29.3398C66.3246 29.1966 66.4874 29.0859 66.6697 29.0078C66.852 28.9297 67.0603 28.8906 67.2947 28.8906C67.503 28.8906 67.6983 28.9232 67.8806 28.9883C68.0629 29.0404 68.2257 29.138 68.3689 29.2812C68.4991 29.4245 68.6033 29.6263 68.6814 29.8867C68.7595 30.1471 68.7986 30.4792 68.7986 30.8828V46H73.5838V30.4141C73.5838 30.2578 73.5838 30.1341 73.5838 30.043C73.5838 29.9518 73.5838 29.8932 73.5838 29.8672C73.6489 29.724 73.727 29.6003 73.8181 29.4961C73.9093 29.3789 74.0134 29.2747 74.1306 29.1836C74.2739 29.0924 74.4236 29.0208 74.5798 28.9688C74.7491 28.9167 74.9379 28.8906 75.1463 28.8906C75.3416 28.8906 75.5304 28.9232 75.7127 28.9883C75.908 29.0404 76.0772 29.138 76.2205 29.2812C76.3637 29.4375 76.4744 29.6458 76.5525 29.9062C76.6436 30.1667 76.6892 30.4987 76.6892 30.9023V46H81.6306V30.9219C81.6306 29.75 81.5134 28.7604 81.2791 27.9531C81.0577 27.1328 80.7452 26.4622 80.3416 25.9414C79.9249 25.4336 79.4366 25.0625 78.8767 24.8281C78.3298 24.5938 77.7374 24.4766 77.0994 24.4766C76.5916 24.4766 76.1228 24.5417 75.6931 24.6719C75.2634 24.8021 74.8793 24.9844 74.5408 25.2188C74.2673 25.401 74.0134 25.6224 73.7791 25.8828C73.5577 26.1302 73.3559 26.4102 73.1736 26.7227C73.0564 26.3971 72.9132 26.1107 72.7439 25.8633C72.5877 25.6029 72.3989 25.3815 72.1775 25.1992C71.891 24.9518 71.5525 24.7695 71.1619 24.6523C70.7713 24.5352 70.3285 24.4766 69.8338 24.4766C68.8181 24.4766 67.9522 24.7435 67.2361 25.2773C66.533 25.7982 65.9796 26.5143 65.5759 27.4258L65.4197 24.8672ZM98.3873 46H103.895V45.668C103.622 45.1341 103.413 44.4961 103.27 43.7539C103.127 43.0117 103.055 42.0742 103.055 40.9414V31.8789C103.055 30.6549 102.827 29.5807 102.372 28.6562C101.916 27.7188 101.284 26.944 100.477 26.332C99.6699 25.7201 98.7129 25.2578 97.6061 24.9453C96.5123 24.6328 95.3274 24.4766 94.0514 24.4766C92.6321 24.4766 91.3691 24.6589 90.2623 25.0234C89.1686 25.375 88.2441 25.8568 87.4889 26.4688C86.7207 27.0807 86.1347 27.7904 85.7311 28.5977C85.3405 29.4049 85.1452 30.2578 85.1452 31.1562H90.5748C90.5748 30.7786 90.6269 30.4336 90.7311 30.1211C90.8483 29.8086 91.0241 29.5417 91.2584 29.3203C91.5189 29.0729 91.8574 28.8841 92.2741 28.7539C92.6907 28.6107 93.1855 28.5391 93.7584 28.5391C94.4095 28.5391 94.9759 28.6237 95.4577 28.793C95.9524 28.9492 96.3626 29.1771 96.6881 29.4766C97.0006 29.763 97.235 30.1081 97.3913 30.5117C97.5475 30.9023 97.6256 31.3451 97.6256 31.8398V33.0898H94.5983C93.0358 33.0898 91.6491 33.2331 90.4381 33.5195C89.2402 33.793 88.2311 34.1966 87.4108 34.7305C86.4993 35.3164 85.8157 36.0651 85.36 36.9766C84.9043 37.875 84.6764 38.9102 84.6764 40.082C84.6764 40.9935 84.8587 41.8398 85.2233 42.6211C85.5879 43.3893 86.0957 44.0534 86.7467 44.6133C87.3978 45.1732 88.1725 45.6094 89.0709 45.9219C89.9824 46.2344 90.9785 46.3906 92.0592 46.3906C92.7233 46.3906 93.3418 46.3255 93.9147 46.1953C94.4876 46.0781 95.0149 45.9089 95.4967 45.6875C95.9655 45.4792 96.3952 45.2318 96.7858 44.9453C97.1764 44.6589 97.5215 44.3529 97.8209 44.0273C97.886 44.4049 97.9642 44.763 98.0553 45.1016C98.1465 45.4401 98.2571 45.7396 98.3873 46ZM93.2116 42.1914C92.7038 42.1914 92.2545 42.1328 91.8639 42.0156C91.4863 41.8854 91.1673 41.7161 90.9069 41.5078C90.6465 41.2865 90.4446 41.0195 90.3014 40.707C90.1712 40.3815 90.1061 40.0299 90.1061 39.6523C90.1061 39.1706 90.1972 38.7279 90.3795 38.3242C90.5618 37.9076 90.8418 37.5495 91.2194 37.25C91.597 36.9635 92.0853 36.7422 92.6842 36.5859C93.2832 36.4167 94.0058 36.332 94.8522 36.332H97.6256V39.9648C97.4694 40.2383 97.2545 40.5117 96.9811 40.7852C96.7077 41.0456 96.3821 41.2799 96.0045 41.4883C95.6269 41.6966 95.2038 41.8659 94.735 41.9961C94.2663 42.1263 93.7584 42.1914 93.2116 42.1914ZM108.406 54.125H113.835V44.1641C114.083 44.4375 114.343 44.6849 114.617 44.9062C114.89 45.1276 115.177 45.3294 115.476 45.5117C115.984 45.7982 116.531 46.013 117.117 46.1562C117.716 46.3125 118.367 46.3906 119.07 46.3906C120.398 46.3906 121.576 46.1172 122.605 45.5703C123.634 45.0234 124.5 44.2682 125.203 43.3047C125.893 42.3542 126.414 41.2214 126.765 39.9062C127.13 38.5911 127.312 37.1654 127.312 35.6289V35.2188C127.312 33.6172 127.13 32.1589 126.765 30.8438C126.414 29.5156 125.886 28.3763 125.183 27.4258C124.48 26.4883 123.614 25.7656 122.585 25.2578C121.557 24.737 120.372 24.4766 119.031 24.4766C118.38 24.4766 117.768 24.5482 117.195 24.6914C116.635 24.8216 116.121 25.0104 115.652 25.2578C115.261 25.4661 114.897 25.7135 114.558 26C114.22 26.2734 113.907 26.5859 113.621 26.9375L113.425 24.8672H108.406V54.125ZM121.882 35.2188V35.6289C121.882 36.5013 121.804 37.3281 121.648 38.1094C121.492 38.8776 121.244 39.5547 120.906 40.1406C120.567 40.7266 120.125 41.1888 119.578 41.5273C119.044 41.8659 118.393 42.0352 117.625 42.0352C117.143 42.0352 116.707 41.9896 116.316 41.8984C115.925 41.7943 115.58 41.651 115.281 41.4688C114.968 41.2734 114.688 41.0391 114.441 40.7656C114.207 40.4922 114.005 40.1862 113.835 39.8477V31.0195C114.018 30.6549 114.233 30.3359 114.48 30.0625C114.74 29.7891 115.04 29.5612 115.378 29.3789C115.678 29.2227 116.01 29.1055 116.375 29.0273C116.739 28.9362 117.143 28.8906 117.585 28.8906C118.354 28.8906 119.005 29.0534 119.539 29.3789C120.085 29.7044 120.535 30.1471 120.886 30.707C121.225 31.2799 121.472 31.957 121.628 32.7383C121.798 33.5065 121.882 34.3333 121.882 35.2188ZM136.901 27.7773V16H131.471V46H136.901V30.7461C137.109 30.4727 137.337 30.2253 137.584 30.0039C137.845 29.7826 138.131 29.5938 138.444 29.4375C138.782 29.2552 139.16 29.1185 139.577 29.0273C139.993 28.9362 140.442 28.8906 140.924 28.8906C141.549 28.8906 142.109 28.9753 142.604 29.1445C143.099 29.3008 143.522 29.5482 143.873 29.8867C144.225 30.2253 144.492 30.668 144.674 31.2148C144.87 31.7617 144.967 32.4128 144.967 33.168V46H150.397V33.207C150.397 31.6576 150.208 30.3359 149.83 29.2422C149.466 28.1354 148.952 27.2305 148.287 26.5273C147.623 25.8242 146.829 25.3099 145.905 24.9844C144.98 24.6458 143.965 24.4766 142.858 24.4766C142.103 24.4766 141.386 24.5872 140.709 24.8086C140.032 25.0299 139.414 25.3424 138.854 25.7461C138.489 26.0065 138.138 26.3125 137.799 26.6641C137.474 27.0026 137.174 27.3737 136.901 27.7773ZM153.872 35.2383V35.6484C153.872 37.1979 154.094 38.6302 154.536 39.9453C154.979 41.2474 155.63 42.3802 156.49 43.3438C157.336 44.3073 158.378 45.0625 159.615 45.6094C160.865 46.1432 162.284 46.4102 163.872 46.4102C165.448 46.4102 166.854 46.1432 168.091 45.6094C169.328 45.0625 170.37 44.3073 171.216 43.3438C172.062 42.3802 172.707 41.2474 173.15 39.9453C173.592 38.6302 173.814 37.1979 173.814 35.6484V35.2383C173.814 33.7018 173.592 32.2826 173.15 30.9805C172.707 29.6654 172.062 28.526 171.216 27.5625C170.357 26.599 169.309 25.8438 168.072 25.2969C166.835 24.75 165.422 24.4766 163.833 24.4766C162.245 24.4766 160.832 24.75 159.595 25.2969C158.371 25.8438 157.336 26.599 156.49 27.5625C155.63 28.526 154.979 29.6654 154.536 30.9805C154.094 32.2826 153.872 33.7018 153.872 35.2383ZM159.302 35.6484V35.2383C159.302 34.3789 159.387 33.5651 159.556 32.7969C159.725 32.0286 159.992 31.3516 160.357 30.7656C160.721 30.1797 161.19 29.7174 161.763 29.3789C162.336 29.0404 163.026 28.8711 163.833 28.8711C164.654 28.8711 165.35 29.0404 165.923 29.3789C166.496 29.7174 166.965 30.1797 167.329 30.7656C167.681 31.3516 167.941 32.0286 168.111 32.7969C168.28 33.5651 168.365 34.3789 168.365 35.2383V35.6484C168.365 36.5339 168.28 37.3672 168.111 38.1484C167.941 38.9167 167.681 39.5872 167.329 40.1602C166.965 40.7461 166.496 41.2083 165.923 41.5469C165.35 41.8854 164.667 42.0547 163.872 42.0547C163.052 42.0547 162.349 41.8854 161.763 41.5469C161.19 41.2083 160.721 40.7461 160.357 40.1602C159.992 39.5872 159.725 38.9167 159.556 38.1484C159.387 37.3672 159.302 36.5339 159.302 35.6484ZM192.934 24.4766C191.514 24.4766 190.206 24.8216 189.008 25.5117C187.81 26.1888 186.781 27.1263 185.922 28.3242L185.883 27.8555L185.668 24.8672H180.61V46H186.039V33.3047C186.287 32.7057 186.599 32.1849 186.977 31.7422C187.354 31.2995 187.81 30.9349 188.344 30.6484C188.787 30.401 189.288 30.2188 189.848 30.1016C190.421 29.9714 191.059 29.9062 191.762 29.9062C192.439 29.9062 193.149 29.9518 193.891 30.043C194.646 30.1211 195.382 30.2448 196.098 30.4141L196.899 25.0039C196.469 24.8737 195.902 24.7565 195.199 24.6523C194.509 24.5352 193.754 24.4766 192.934 24.4766ZM211.155 46.3906C213.2 46.3906 214.97 45.9935 216.468 45.1992C217.965 44.4049 219.059 43.5195 219.749 42.543L217.034 39.6133C216.409 40.4206 215.595 41.026 214.593 41.4297C213.59 41.8333 212.555 42.0352 211.487 42.0352C210.732 42.0352 210.036 41.918 209.398 41.6836C208.759 41.4492 208.193 41.1172 207.698 40.6875C207.217 40.2708 206.832 39.8086 206.546 39.3008C206.259 38.7799 206.025 38.0964 205.843 37.25V37.1914H220.179V34.8867C220.179 33.3372 219.964 31.9245 219.534 30.6484C219.105 29.3594 218.48 28.2591 217.659 27.3477C216.826 26.4362 215.81 25.7331 214.612 25.2383C213.427 24.7305 212.073 24.4766 210.55 24.4766C209.078 24.4766 207.718 24.7435 206.468 25.2773C205.218 25.8112 204.137 26.5599 203.226 27.5234C202.314 28.487 201.605 29.6393 201.097 30.9805C200.589 32.3086 200.335 33.7799 200.335 35.3945V36.1758C200.335 37.5951 200.589 38.9297 201.097 40.1797C201.618 41.4167 202.353 42.4909 203.304 43.4023C204.254 44.3268 205.394 45.056 206.722 45.5898C208.05 46.1237 209.528 46.3906 211.155 46.3906ZM210.511 28.8711C211.201 28.8711 211.806 28.9818 212.327 29.2031C212.861 29.4115 213.31 29.6979 213.675 30.0625C214.039 30.4401 214.326 30.8828 214.534 31.3906C214.743 31.8984 214.847 32.4388 214.847 33.0117V33.4414H205.94C206.071 32.7513 206.266 32.1263 206.526 31.5664C206.787 31.0065 207.112 30.5247 207.503 30.1211C207.881 29.7174 208.323 29.4115 208.831 29.2031C209.339 28.9818 209.899 28.8711 210.511 28.8711Z" fill="white"/>
  <rect x="13" y="475.074" width="852" height="432" rx="80" fill="#9747FF" stroke="#7939CC" stroke-width="4" stroke-miterlimit="0" stroke-linecap="round"/>
  <rect x="477" y="619.074" width="304" height="208" rx="6" fill="#B57CFF" stroke="#9163CC" stroke-width="4" stroke-miterlimit="0" stroke-linecap="round"/>
  <path d="M564.531 680.5H563.984C561.77 680.5 559.804 680.845 558.085 681.535C556.367 682.225 554.921 683.215 553.749 684.504C552.369 686.001 551.38 687.792 550.781 689.875C550.195 691.945 549.902 694.126 549.902 696.418V698.352C549.902 699.875 550.123 701.327 550.566 702.707C551.008 704.074 551.66 705.266 552.519 706.281C553.326 707.258 554.316 708.033 555.488 708.605C556.66 709.178 557.994 709.465 559.492 709.465C560.95 709.465 562.245 709.217 563.378 708.723C564.524 708.215 565.494 707.518 566.288 706.633C567.07 705.76 567.662 704.738 568.066 703.566C568.482 702.382 568.691 701.112 568.691 699.758C568.691 698.521 568.528 697.329 568.202 696.184C567.89 695.038 567.395 694.022 566.718 693.137C566.054 692.251 565.208 691.548 564.179 691.027C563.163 690.507 561.966 690.246 560.585 690.246C559.934 690.246 559.316 690.324 558.73 690.48C558.144 690.624 557.61 690.819 557.128 691.066C556.62 691.327 556.158 691.626 555.742 691.965C555.325 692.29 554.96 692.629 554.648 692.98C554.752 691.77 555.019 690.637 555.449 689.582C555.891 688.527 556.51 687.622 557.304 686.867C558.085 686.112 559.042 685.526 560.175 685.109C561.321 684.68 562.669 684.465 564.218 684.465H564.531V680.5ZM559.433 694.035C560.188 694.035 560.852 694.191 561.425 694.504C562.011 694.803 562.499 695.22 562.89 695.754C563.281 696.288 563.574 696.913 563.769 697.629C563.977 698.332 564.081 699.081 564.081 699.875C564.081 700.708 563.977 701.483 563.769 702.199C563.561 702.902 563.255 703.514 562.851 704.035C562.447 704.543 561.959 704.947 561.386 705.246C560.813 705.533 560.162 705.676 559.433 705.676C558.769 705.676 558.144 705.526 557.558 705.227C556.972 704.927 556.458 704.491 556.015 703.918C555.572 703.345 555.221 702.629 554.96 701.77C554.713 700.91 554.589 699.914 554.589 698.781V697.336C554.798 696.854 555.058 696.418 555.37 696.027C555.683 695.637 556.035 695.292 556.425 694.992C556.855 694.693 557.324 694.458 557.831 694.289C558.339 694.12 558.873 694.035 559.433 694.035ZM589.08 698.938V680.637H584.276L571.99 699.855L572.108 702.727H584.412V709.074H589.08V702.727H592.655V698.938H589.08ZM576.756 698.938L583.865 687.902L584.412 686.887V698.938H576.756ZM638.59 698.723V698.312C638.59 697.115 638.479 695.982 638.258 694.914C638.049 693.846 637.737 692.876 637.32 692.004C637.008 691.379 636.643 690.806 636.227 690.285C635.823 689.751 635.361 689.302 634.84 688.938C634.228 688.495 633.538 688.156 632.77 687.922C632.014 687.674 631.181 687.551 630.27 687.551C629.579 687.551 628.935 687.622 628.336 687.766C627.75 687.896 627.21 688.098 626.715 688.371C626.337 688.579 625.986 688.82 625.66 689.094C625.335 689.367 625.035 689.673 624.762 690.012V679.074H620.094V709.074H624.312L624.527 706.77C624.762 707.056 625.003 707.323 625.25 707.57C625.51 707.805 625.784 708.026 626.07 708.234C626.63 708.638 627.262 708.944 627.965 709.152C628.668 709.361 629.449 709.465 630.309 709.465C631.155 709.465 631.936 709.354 632.652 709.133C633.382 708.924 634.039 708.625 634.625 708.234C635.354 707.753 635.979 707.147 636.5 706.418C637.021 705.689 637.438 704.875 637.75 703.977C638.023 703.221 638.232 702.401 638.375 701.516C638.518 700.63 638.59 699.699 638.59 698.723ZM633.922 698.312V698.723C633.922 699.309 633.889 699.875 633.824 700.422C633.759 700.969 633.661 701.477 633.531 701.945C633.375 702.57 633.147 703.137 632.848 703.645C632.561 704.139 632.19 704.549 631.734 704.875C631.396 705.109 631.012 705.298 630.582 705.441C630.152 705.572 629.671 705.637 629.137 705.637C628.551 705.637 628.017 705.565 627.535 705.422C627.066 705.266 626.65 705.057 626.285 704.797C625.96 704.549 625.667 704.27 625.406 703.957C625.159 703.632 624.944 703.273 624.762 702.883V694.133C624.918 693.794 625.1 693.482 625.309 693.195C625.53 692.896 625.777 692.635 626.051 692.414C626.428 692.089 626.871 691.841 627.379 691.672C627.887 691.49 628.46 691.398 629.098 691.398C629.618 691.398 630.087 691.457 630.504 691.574C630.921 691.691 631.292 691.867 631.617 692.102C632.112 692.44 632.503 692.857 632.789 693.352C633.089 693.833 633.329 694.374 633.512 694.973C633.642 695.467 633.74 696.001 633.805 696.574C633.883 697.134 633.922 697.714 633.922 698.312ZM644.233 687.941V691.828H650.737V705.207H644.233V709.074H661.655V705.207H655.444V687.941H644.233ZM650.307 682.473C650.307 682.967 650.425 683.404 650.659 683.781C650.906 684.146 651.265 684.4 651.733 684.543C652.189 684.686 652.606 684.719 652.983 684.641C653.361 684.562 653.686 684.4 653.96 684.152C654.507 684.009 654.923 683.729 655.21 683.312C655.496 682.883 655.594 682.382 655.503 681.809C655.438 681.249 655.184 680.793 654.741 680.441C654.311 680.077 653.745 679.895 653.042 679.895C652.625 679.895 652.248 679.96 651.909 680.09C651.584 680.207 651.304 680.376 651.069 680.598C650.822 680.832 650.633 681.112 650.503 681.438C650.373 681.75 650.307 682.095 650.307 682.473ZM675.677 682.785H670.99V687.941H665.873V691.438H670.99V701.828C670.99 703.182 671.166 704.341 671.517 705.305C671.882 706.268 672.383 707.056 673.021 707.668C673.659 708.293 674.421 708.755 675.306 709.055C676.205 709.341 677.188 709.484 678.256 709.484C678.842 709.484 679.427 709.452 680.013 709.387C680.612 709.335 681.185 709.257 681.732 709.152C682.279 709.048 682.787 708.924 683.256 708.781C683.737 708.625 684.148 708.443 684.486 708.234L683.978 705.012C683.744 705.064 683.451 705.129 683.099 705.207C682.761 705.272 682.396 705.331 682.006 705.383C681.602 705.448 681.185 705.5 680.756 705.539C680.326 705.578 679.909 705.598 679.506 705.598C678.946 705.598 678.431 705.533 677.963 705.402C677.494 705.272 677.09 705.051 676.752 704.738C676.413 704.439 676.146 704.029 675.951 703.508C675.769 702.974 675.677 702.316 675.677 701.535V691.438H683.627V687.941H675.677V682.785ZM551.66 747.941V751.828H558.163V765.207H551.66V769.074H569.081V765.207H562.87V747.941H551.66ZM557.734 742.473C557.734 742.967 557.851 743.404 558.085 743.781C558.333 744.146 558.691 744.4 559.16 744.543C559.615 744.686 560.032 744.719 560.41 744.641C560.787 744.562 561.113 744.4 561.386 744.152C561.933 744.009 562.35 743.729 562.636 743.312C562.923 742.883 563.02 742.382 562.929 741.809C562.864 741.249 562.61 740.793 562.167 740.441C561.738 740.077 561.171 739.895 560.468 739.895C560.051 739.895 559.674 739.96 559.335 740.09C559.01 740.207 558.73 740.376 558.495 740.598C558.248 740.832 558.059 741.112 557.929 741.438C557.799 741.75 557.734 742.095 557.734 742.473ZM573.729 769.074H578.397V753.996C578.605 753.645 578.846 753.319 579.119 753.02C579.393 752.72 579.686 752.466 579.998 752.258C580.402 751.984 580.851 751.776 581.346 751.633C581.841 751.477 582.375 751.398 582.948 751.398C583.638 751.398 584.25 751.477 584.783 751.633C585.317 751.776 585.773 752.023 586.151 752.375C586.528 752.727 586.815 753.195 587.01 753.781C587.205 754.367 587.303 755.096 587.303 755.969V769.074H591.971V755.891C591.971 754.406 591.795 753.143 591.444 752.102C591.092 751.047 590.597 750.181 589.959 749.504C589.321 748.827 588.553 748.332 587.655 748.02C586.756 747.707 585.767 747.551 584.686 747.551C583.865 747.551 583.084 747.668 582.342 747.902C581.6 748.137 580.916 748.469 580.291 748.898C579.901 749.172 579.53 749.484 579.178 749.836C578.839 750.174 578.527 750.546 578.24 750.949L577.948 747.941H573.729V769.074ZM606.247 742.785H601.56V747.941H596.443V751.438H601.56V761.828C601.56 763.182 601.735 764.341 602.087 765.305C602.452 766.268 602.953 767.056 603.591 767.668C604.229 768.293 604.991 768.755 605.876 769.055C606.775 769.341 607.758 769.484 608.825 769.484C609.411 769.484 609.997 769.452 610.583 769.387C611.182 769.335 611.755 769.257 612.302 769.152C612.849 769.048 613.357 768.924 613.825 768.781C614.307 768.625 614.717 768.443 615.056 768.234L614.548 765.012C614.314 765.064 614.021 765.129 613.669 765.207C613.331 765.272 612.966 765.331 612.575 765.383C612.172 765.448 611.755 765.5 611.325 765.539C610.896 765.578 610.479 765.598 610.075 765.598C609.515 765.598 609.001 765.533 608.532 765.402C608.064 765.272 607.66 765.051 607.321 764.738C606.983 764.439 606.716 764.029 606.521 763.508C606.338 762.974 606.247 762.316 606.247 761.535V751.438H614.196V747.941H606.247V742.785ZM629.879 769.465C631.936 769.465 633.688 769.061 635.133 768.254C636.591 767.447 637.672 766.535 638.375 765.52L635.875 763.098C635.224 763.931 634.397 764.576 633.395 765.031C632.392 765.474 631.311 765.695 630.152 765.695C629.306 765.695 628.525 765.552 627.809 765.266C627.105 764.979 626.493 764.576 625.973 764.055C625.452 763.56 625.042 763 624.742 762.375C624.443 761.75 624.221 760.975 624.078 760.051V759.953H638.727V757.941C638.727 756.431 638.525 755.038 638.121 753.762C637.717 752.486 637.118 751.385 636.324 750.461C635.53 749.549 634.547 748.84 633.375 748.332C632.203 747.811 630.855 747.551 629.332 747.551C627.965 747.551 626.676 747.811 625.465 748.332C624.267 748.84 623.212 749.569 622.301 750.52C621.389 751.47 620.673 752.616 620.152 753.957C619.632 755.298 619.371 756.796 619.371 758.449V759.25C619.371 760.695 619.618 762.043 620.113 763.293C620.621 764.53 621.337 765.604 622.262 766.516C623.186 767.44 624.293 768.163 625.582 768.684C626.884 769.204 628.316 769.465 629.879 769.465ZM629.312 751.34C630.094 751.34 630.777 751.477 631.363 751.75C631.962 752.01 632.457 752.362 632.848 752.805C633.251 753.26 633.564 753.794 633.785 754.406C634.007 755.005 634.117 755.611 634.117 756.223V756.535H624.176C624.319 755.728 624.54 755.005 624.84 754.367C625.139 753.729 625.51 753.182 625.953 752.727C626.396 752.284 626.897 751.945 627.457 751.711C628.03 751.464 628.648 751.34 629.312 751.34ZM642.554 758.352V758.762C642.554 760.285 642.749 761.704 643.14 763.02C643.543 764.322 644.11 765.448 644.839 766.398C645.581 767.362 646.473 768.117 647.515 768.664C648.556 769.198 649.728 769.465 651.03 769.465C651.746 769.465 652.41 769.387 653.022 769.23C653.634 769.087 654.194 768.872 654.702 768.586C655.041 768.404 655.353 768.189 655.64 767.941C655.939 767.694 656.225 767.427 656.499 767.141V768.605C656.499 769.4 656.382 770.109 656.147 770.734C655.926 771.359 655.607 771.887 655.19 772.316C654.735 772.759 654.181 773.098 653.53 773.332C652.892 773.566 652.156 773.684 651.323 773.684C650.841 773.684 650.366 773.632 649.897 773.527C649.429 773.436 648.966 773.286 648.511 773.078C648.055 772.87 647.606 772.596 647.163 772.258C646.733 771.932 646.33 771.542 645.952 771.086L643.745 773.918C644.214 774.543 644.774 775.077 645.425 775.52C646.076 775.962 646.759 776.32 647.475 776.594C648.192 776.867 648.908 777.069 649.624 777.199C650.34 777.329 650.998 777.395 651.597 777.395C653.016 777.395 654.311 777.193 655.483 776.789C656.668 776.398 657.684 775.826 658.53 775.07C659.363 774.302 660.008 773.365 660.464 772.258C660.932 771.164 661.167 769.908 661.167 768.488V747.941H656.929L656.733 750.07C656.473 749.758 656.193 749.471 655.893 749.211C655.594 748.938 655.275 748.703 654.936 748.508C654.416 748.195 653.836 747.961 653.198 747.805C652.56 747.635 651.85 747.551 651.069 747.551C649.754 747.551 648.569 747.818 647.515 748.352C646.473 748.872 645.581 749.608 644.839 750.559C644.097 751.509 643.53 752.648 643.14 753.977C642.749 755.292 642.554 756.75 642.554 758.352ZM647.241 758.762V758.352C647.241 757.401 647.339 756.509 647.534 755.676C647.729 754.829 648.035 754.087 648.452 753.449C648.856 752.811 649.37 752.31 649.995 751.945C650.62 751.581 651.369 751.398 652.241 751.398C652.736 751.398 653.192 751.457 653.608 751.574C654.025 751.678 654.403 751.822 654.741 752.004C655.119 752.225 655.451 752.492 655.737 752.805C656.037 753.117 656.291 753.469 656.499 753.859V763.117C656.291 763.495 656.05 763.84 655.776 764.152C655.503 764.465 655.19 764.732 654.839 764.953C654.487 765.161 654.09 765.324 653.647 765.441C653.218 765.559 652.736 765.617 652.202 765.617C651.343 765.617 650.6 765.441 649.975 765.09C649.35 764.725 648.836 764.224 648.432 763.586C648.016 762.974 647.71 762.251 647.515 761.418C647.332 760.585 647.241 759.699 647.241 758.762ZM676.166 769.465C678.223 769.465 679.974 769.061 681.42 768.254C682.878 767.447 683.959 766.535 684.662 765.52L682.162 763.098C681.511 763.931 680.684 764.576 679.681 765.031C678.679 765.474 677.598 765.695 676.439 765.695C675.593 765.695 674.812 765.552 674.095 765.266C673.392 764.979 672.78 764.576 672.26 764.055C671.739 763.56 671.329 763 671.029 762.375C670.73 761.75 670.508 760.975 670.365 760.051V759.953H685.013V757.941C685.013 756.431 684.812 755.038 684.408 753.762C684.004 752.486 683.405 751.385 682.611 750.461C681.817 749.549 680.834 748.84 679.662 748.332C678.49 747.811 677.142 747.551 675.619 747.551C674.252 747.551 672.963 747.811 671.752 748.332C670.554 748.84 669.499 749.569 668.588 750.52C667.676 751.47 666.96 752.616 666.439 753.957C665.918 755.298 665.658 756.796 665.658 758.449V759.25C665.658 760.695 665.905 762.043 666.4 763.293C666.908 764.53 667.624 765.604 668.549 766.516C669.473 767.44 670.58 768.163 671.869 768.684C673.171 769.204 674.603 769.465 676.166 769.465ZM675.599 751.34C676.381 751.34 677.064 751.477 677.65 751.75C678.249 752.01 678.744 752.362 679.135 752.805C679.538 753.26 679.851 753.794 680.072 754.406C680.293 755.005 680.404 755.611 680.404 756.223V756.535H670.463C670.606 755.728 670.827 755.005 671.127 754.367C671.426 753.729 671.797 753.182 672.24 752.727C672.683 752.284 673.184 751.945 673.744 751.711C674.317 751.464 674.935 751.34 675.599 751.34ZM704.055 747.551C702.597 747.551 701.262 747.889 700.051 748.566C698.853 749.243 697.825 750.174 696.965 751.359L696.946 750.871L696.751 747.941H692.376V769.074H697.044V756.027C697.291 755.402 697.597 754.849 697.962 754.367C698.326 753.885 698.769 753.488 699.29 753.176C699.771 752.85 700.325 752.609 700.95 752.453C701.575 752.297 702.278 752.219 703.059 752.219C703.749 752.219 704.439 752.258 705.13 752.336C705.833 752.414 706.542 752.531 707.258 752.688L707.923 748.078C707.519 747.935 706.959 747.811 706.243 747.707C705.54 747.603 704.811 747.551 704.055 747.551Z" fill="white"/>
  <path d="M489.227 584.178C488.25 584.178 487.436 583.982 486.785 583.592C486.134 583.201 485.62 582.68 485.242 582.029C484.852 581.404 484.572 580.682 484.402 579.861C484.246 579.028 484.168 578.182 484.168 577.322V576.639C484.168 575.792 484.246 574.959 484.402 574.139C484.572 573.318 484.858 572.589 485.262 571.951C485.639 571.313 486.147 570.799 486.785 570.408C487.436 570.005 488.25 569.803 489.227 569.803C489.865 569.803 490.457 569.913 491.004 570.135C491.564 570.356 492.046 570.656 492.449 571.033C492.84 571.411 493.139 571.854 493.348 572.361C493.569 572.869 493.68 573.41 493.68 573.982H498.074C498.087 572.811 497.872 571.736 497.43 570.76C497 569.783 496.395 568.943 495.613 568.24C494.832 567.537 493.895 566.99 492.801 566.6C491.72 566.209 490.542 566.014 489.266 566.014C487.651 566.014 486.232 566.3 485.008 566.873C483.797 567.433 482.781 568.195 481.961 569.158C481.141 570.122 480.522 571.248 480.105 572.537C479.702 573.826 479.5 575.193 479.5 576.639V577.322C479.5 578.781 479.708 580.154 480.125 581.443C480.542 582.719 481.16 583.839 481.98 584.803C482.788 585.766 483.797 586.535 485.008 587.107C486.232 587.667 487.658 587.947 489.285 587.947C490.457 587.947 491.57 587.758 492.625 587.381C493.693 586.99 494.637 586.456 495.457 585.779C496.264 585.128 496.902 584.354 497.371 583.455C497.853 582.544 498.087 581.574 498.074 580.545H493.68C493.68 581.079 493.556 581.567 493.309 582.01C493.074 582.452 492.755 582.837 492.352 583.162C491.935 583.488 491.453 583.742 490.906 583.924C490.372 584.093 489.812 584.178 489.227 584.178ZM502.311 576.775V577.186C502.311 578.735 502.533 580.161 502.975 581.463C503.418 582.765 504.063 583.898 504.909 584.861C505.742 585.825 506.771 586.58 507.995 587.127C509.219 587.674 510.606 587.947 512.155 587.947C513.692 587.947 515.065 587.674 516.276 587.127C517.5 586.58 518.529 585.825 519.362 584.861C520.196 583.898 520.834 582.765 521.276 581.463C521.719 580.161 521.94 578.735 521.94 577.186V576.775C521.94 575.239 521.719 573.82 521.276 572.518C520.834 571.202 520.196 570.063 519.362 569.1C518.516 568.136 517.481 567.381 516.257 566.834C515.046 566.287 513.666 566.014 512.116 566.014C510.567 566.014 509.186 566.287 507.975 566.834C506.765 567.381 505.742 568.136 504.909 569.1C504.063 570.063 503.418 571.202 502.975 572.518C502.533 573.82 502.311 575.239 502.311 576.775ZM506.979 577.186V576.775C506.979 575.851 507.077 574.965 507.272 574.119C507.481 573.273 507.8 572.531 508.229 571.893C508.646 571.255 509.173 570.747 509.811 570.369C510.462 569.992 511.231 569.803 512.116 569.803C513.015 569.803 513.783 569.992 514.421 570.369C515.072 570.747 515.612 571.255 516.042 571.893C516.446 572.531 516.752 573.273 516.96 574.119C517.168 574.965 517.272 575.851 517.272 576.775V577.186C517.272 578.136 517.168 579.035 516.96 579.881C516.765 580.727 516.459 581.469 516.042 582.107C515.625 582.745 515.091 583.253 514.44 583.631C513.789 583.995 513.028 584.178 512.155 584.178C511.257 584.178 510.482 583.995 509.831 583.631C509.18 583.253 508.646 582.745 508.229 582.107C507.8 581.469 507.481 580.727 507.272 579.881C507.077 579.035 506.979 578.136 506.979 577.186ZM540.162 587.537H544.4V566.404H539.713V581.365C539.53 581.756 539.309 582.114 539.049 582.439C538.788 582.752 538.489 583.025 538.15 583.26C537.747 583.52 537.278 583.729 536.744 583.885C536.21 584.028 535.605 584.1 534.928 584.1C534.276 584.1 533.71 584.015 533.228 583.846C532.747 583.676 532.349 583.39 532.037 582.986C531.724 582.596 531.497 582.075 531.353 581.424C531.21 580.76 531.138 579.939 531.138 578.963V566.404H526.47V578.924C526.47 580.512 526.646 581.88 526.998 583.025C527.349 584.158 527.844 585.089 528.482 585.818C529.133 586.548 529.908 587.088 530.806 587.439C531.718 587.778 532.72 587.947 533.814 587.947C535.09 587.947 536.243 587.654 537.271 587.068C538.3 586.469 539.172 585.643 539.888 584.588L540.162 587.537ZM549.458 587.537H554.126V572.459C554.334 572.107 554.575 571.782 554.848 571.482C555.122 571.183 555.415 570.929 555.727 570.721C556.131 570.447 556.58 570.239 557.075 570.096C557.57 569.939 558.103 569.861 558.676 569.861C559.367 569.861 559.978 569.939 560.512 570.096C561.046 570.239 561.502 570.486 561.88 570.838C562.257 571.189 562.544 571.658 562.739 572.244C562.934 572.83 563.032 573.559 563.032 574.432V587.537H567.7V574.354C567.7 572.869 567.524 571.606 567.173 570.564C566.821 569.51 566.326 568.644 565.688 567.967C565.05 567.29 564.282 566.795 563.383 566.482C562.485 566.17 561.495 566.014 560.415 566.014C559.594 566.014 558.813 566.131 558.071 566.365C557.329 566.6 556.645 566.932 556.02 567.361C555.63 567.635 555.258 567.947 554.907 568.299C554.568 568.637 554.256 569.008 553.969 569.412L553.676 566.404H549.458V587.537ZM581.976 561.248H577.289V566.404H572.171V569.9H577.289V580.291C577.289 581.645 577.464 582.804 577.816 583.768C578.181 584.731 578.682 585.519 579.32 586.131C579.958 586.756 580.72 587.218 581.605 587.518C582.503 587.804 583.487 587.947 584.554 587.947C585.14 587.947 585.726 587.915 586.312 587.85C586.911 587.798 587.484 587.719 588.031 587.615C588.578 587.511 589.085 587.387 589.554 587.244C590.036 587.088 590.446 586.906 590.785 586.697L590.277 583.475C590.043 583.527 589.75 583.592 589.398 583.67C589.059 583.735 588.695 583.794 588.304 583.846C587.901 583.911 587.484 583.963 587.054 584.002C586.625 584.041 586.208 584.061 585.804 584.061C585.244 584.061 584.73 583.995 584.261 583.865C583.793 583.735 583.389 583.514 583.05 583.201C582.712 582.902 582.445 582.492 582.25 581.971C582.067 581.437 581.976 580.779 581.976 579.998V569.9H589.925V566.404H581.976V561.248Z" fill="white"/>
  <rect x="93" y="618.611" width="304" height="208" rx="6" fill="#B57CFF" stroke="#9163CC" stroke-width="4" stroke-miterlimit="0" stroke-linecap="round"/>
  <path d="M196.643 708.611H200.764L209.045 687.479H204.201L199.026 702.811L198.713 704.217L198.401 702.811L193.166 687.479H188.322L196.643 708.611ZM212.013 697.85V698.26C212.013 699.809 212.234 701.235 212.677 702.537C213.12 703.839 213.764 704.972 214.61 705.936C215.444 706.899 216.472 707.654 217.696 708.201C218.92 708.748 220.307 709.021 221.857 709.021C223.393 709.021 224.767 708.748 225.978 708.201C227.202 707.654 228.23 706.899 229.064 705.936C229.897 704.972 230.535 703.839 230.978 702.537C231.42 701.235 231.642 699.809 231.642 698.26V697.85C231.642 696.313 231.42 694.894 230.978 693.592C230.535 692.277 229.897 691.137 229.064 690.174C228.217 689.21 227.182 688.455 225.958 687.908C224.747 687.361 223.367 687.088 221.817 687.088C220.268 687.088 218.888 687.361 217.677 687.908C216.466 688.455 215.444 689.21 214.61 690.174C213.764 691.137 213.12 692.277 212.677 693.592C212.234 694.894 212.013 696.313 212.013 697.85ZM216.681 698.26V697.85C216.681 696.925 216.778 696.04 216.974 695.193C217.182 694.347 217.501 693.605 217.931 692.967C218.347 692.329 218.875 691.821 219.513 691.443C220.164 691.066 220.932 690.877 221.817 690.877C222.716 690.877 223.484 691.066 224.122 691.443C224.773 691.821 225.314 692.329 225.743 692.967C226.147 693.605 226.453 694.347 226.661 695.193C226.87 696.04 226.974 696.925 226.974 697.85V698.26C226.974 699.21 226.87 700.109 226.661 700.955C226.466 701.801 226.16 702.544 225.743 703.182C225.327 703.82 224.793 704.327 224.142 704.705C223.491 705.07 222.729 705.252 221.857 705.252C220.958 705.252 220.183 705.07 219.532 704.705C218.881 704.327 218.347 703.82 217.931 703.182C217.501 702.544 217.182 701.801 216.974 700.955C216.778 700.109 216.681 699.21 216.681 698.26ZM237.09 687.479V691.365H243.594V704.744H237.09V708.611H254.512V704.744H248.301V687.479H237.09ZM243.164 682.01C243.164 682.505 243.281 682.941 243.516 683.318C243.763 683.683 244.121 683.937 244.59 684.08C245.046 684.223 245.462 684.256 245.84 684.178C246.217 684.1 246.543 683.937 246.816 683.689C247.363 683.546 247.78 683.266 248.066 682.85C248.353 682.42 248.451 681.919 248.359 681.346C248.294 680.786 248.04 680.33 247.598 679.979C247.168 679.614 246.602 679.432 245.898 679.432C245.482 679.432 245.104 679.497 244.766 679.627C244.44 679.744 244.16 679.913 243.926 680.135C243.678 680.369 243.49 680.649 243.359 680.975C243.229 681.287 243.164 681.632 243.164 682.01ZM258.534 697.889V698.299C258.534 699.822 258.729 701.242 259.12 702.557C259.511 703.859 260.064 704.985 260.78 705.936C261.496 706.899 262.369 707.654 263.397 708.201C264.426 708.735 265.585 709.002 266.874 709.002C268.098 709.002 269.179 708.781 270.116 708.338C271.054 707.882 271.861 707.238 272.538 706.404L272.753 708.611H276.991V678.611H272.323V689.451C271.646 688.696 270.865 688.117 269.979 687.713C269.107 687.296 268.085 687.088 266.913 687.088C265.611 687.088 264.439 687.355 263.397 687.889C262.369 688.41 261.496 689.145 260.78 690.096C260.051 691.046 259.491 692.186 259.1 693.514C258.723 694.829 258.534 696.287 258.534 697.889ZM263.202 698.299V697.889C263.202 696.938 263.293 696.046 263.475 695.213C263.658 694.367 263.951 693.624 264.354 692.986C264.732 692.348 265.227 691.847 265.839 691.482C266.464 691.118 267.212 690.936 268.085 690.936C269.127 690.936 269.986 691.17 270.663 691.639C271.353 692.094 271.906 692.713 272.323 693.494V702.576C271.906 703.37 271.353 704.002 270.663 704.471C269.973 704.926 269.1 705.154 268.046 705.154C267.186 705.154 266.451 704.979 265.839 704.627C265.227 704.262 264.725 703.761 264.335 703.123C263.944 702.511 263.658 701.788 263.475 700.955C263.293 700.122 263.202 699.236 263.202 698.299ZM166.624 776.736H171.292V766.697C171.54 766.971 171.807 767.225 172.093 767.459C172.38 767.693 172.679 767.902 172.992 768.084C173.525 768.383 174.105 768.611 174.73 768.768C175.368 768.924 176.064 769.002 176.82 769.002C178.148 769.002 179.326 768.729 180.355 768.182C181.383 767.635 182.249 766.88 182.952 765.916C183.656 764.965 184.183 763.833 184.535 762.518C184.899 761.202 185.081 759.783 185.081 758.26V757.85C185.081 756.261 184.899 754.809 184.535 753.494C184.17 752.166 183.643 751.027 182.952 750.076C182.249 749.126 181.377 748.39 180.335 747.869C179.307 747.348 178.115 747.088 176.761 747.088C176.071 747.088 175.42 747.166 174.808 747.322C174.196 747.465 173.636 747.674 173.128 747.947C172.738 748.156 172.373 748.403 172.035 748.689C171.696 748.976 171.383 749.295 171.097 749.646L170.921 747.479H166.624V776.736ZM180.413 757.85V758.26C180.413 759.197 180.322 760.089 180.14 760.936C179.958 761.769 179.665 762.511 179.261 763.162C178.87 763.8 178.363 764.308 177.738 764.686C177.126 765.05 176.383 765.232 175.511 765.232C174.977 765.232 174.489 765.174 174.046 765.057C173.604 764.926 173.206 764.757 172.855 764.549C172.516 764.327 172.217 764.067 171.956 763.768C171.696 763.468 171.475 763.136 171.292 762.771V753.377C171.501 752.986 171.742 752.635 172.015 752.322C172.301 752.01 172.633 751.749 173.011 751.541C173.337 751.346 173.708 751.196 174.124 751.092C174.541 750.988 174.99 750.936 175.472 750.936C176.344 750.936 177.093 751.118 177.718 751.482C178.343 751.847 178.857 752.342 179.261 752.967C179.652 753.592 179.938 754.327 180.12 755.174C180.316 756.007 180.413 756.899 180.413 757.85ZM188.869 757.85V758.26C188.869 759.809 189.091 761.235 189.533 762.537C189.976 763.839 190.621 764.972 191.467 765.936C192.3 766.899 193.329 767.654 194.553 768.201C195.777 768.748 197.164 769.021 198.713 769.021C200.25 769.021 201.623 768.748 202.834 768.201C204.058 767.654 205.087 766.899 205.92 765.936C206.753 764.972 207.392 763.839 207.834 762.537C208.277 761.235 208.498 759.809 208.498 758.26V757.85C208.498 756.313 208.277 754.894 207.834 753.592C207.392 752.277 206.753 751.137 205.92 750.174C205.074 749.21 204.039 748.455 202.815 747.908C201.604 747.361 200.224 747.088 198.674 747.088C197.125 747.088 195.744 747.361 194.533 747.908C193.323 748.455 192.3 749.21 191.467 750.174C190.621 751.137 189.976 752.277 189.533 753.592C189.091 754.894 188.869 756.313 188.869 757.85ZM193.537 758.26V757.85C193.537 756.925 193.635 756.04 193.83 755.193C194.039 754.347 194.358 753.605 194.787 752.967C195.204 752.329 195.731 751.821 196.369 751.443C197.02 751.066 197.789 750.877 198.674 750.877C199.573 750.877 200.341 751.066 200.979 751.443C201.63 751.821 202.17 752.329 202.6 752.967C203.003 753.605 203.309 754.347 203.518 755.193C203.726 756.04 203.83 756.925 203.83 757.85V758.26C203.83 759.21 203.726 760.109 203.518 760.955C203.323 761.801 203.017 762.544 202.6 763.182C202.183 763.82 201.649 764.327 200.998 764.705C200.347 765.07 199.586 765.252 198.713 765.252C197.815 765.252 197.04 765.07 196.389 764.705C195.738 764.327 195.204 763.82 194.787 763.182C194.358 762.544 194.039 761.801 193.83 760.955C193.635 760.109 193.537 759.21 193.537 758.26ZM213.946 747.479V751.365H220.45V764.744H213.946V768.611H231.368V764.744H225.157V747.479H213.946ZM220.021 742.01C220.021 742.505 220.138 742.941 220.372 743.318C220.62 743.683 220.978 743.937 221.446 744.08C221.902 744.223 222.319 744.256 222.696 744.178C223.074 744.1 223.4 743.937 223.673 743.689C224.22 743.546 224.637 743.266 224.923 742.85C225.209 742.42 225.307 741.919 225.216 741.346C225.151 740.786 224.897 740.33 224.454 739.979C224.025 739.614 223.458 739.432 222.755 739.432C222.338 739.432 221.961 739.497 221.622 739.627C221.297 739.744 221.017 739.913 220.782 740.135C220.535 740.369 220.346 740.649 220.216 740.975C220.086 741.287 220.021 741.632 220.021 742.01ZM236.016 768.611H240.684V753.533C240.892 753.182 241.133 752.856 241.406 752.557C241.68 752.257 241.973 752.003 242.285 751.795C242.689 751.521 243.138 751.313 243.633 751.17C244.128 751.014 244.661 750.936 245.234 750.936C245.924 750.936 246.536 751.014 247.07 751.17C247.604 751.313 248.06 751.561 248.438 751.912C248.815 752.264 249.102 752.732 249.297 753.318C249.492 753.904 249.59 754.633 249.59 755.506V768.611H254.258V755.428C254.258 753.943 254.082 752.68 253.73 751.639C253.379 750.584 252.884 749.718 252.246 749.041C251.608 748.364 250.84 747.869 249.941 747.557C249.043 747.244 248.053 747.088 246.973 747.088C246.152 747.088 245.371 747.205 244.629 747.439C243.887 747.674 243.203 748.006 242.578 748.436C242.188 748.709 241.816 749.021 241.465 749.373C241.126 749.712 240.814 750.083 240.527 750.486L240.234 747.479H236.016V768.611ZM268.534 742.322H263.847V747.479H258.729V750.975H263.847V761.365C263.847 762.719 264.022 763.878 264.374 764.842C264.738 765.805 265.24 766.593 265.878 767.205C266.516 767.83 267.278 768.292 268.163 768.592C269.061 768.878 270.044 769.021 271.112 769.021C271.698 769.021 272.284 768.989 272.87 768.924C273.469 768.872 274.042 768.794 274.589 768.689C275.136 768.585 275.643 768.462 276.112 768.318C276.594 768.162 277.004 767.98 277.343 767.771L276.835 764.549C276.6 764.601 276.307 764.666 275.956 764.744C275.617 764.809 275.253 764.868 274.862 764.92C274.459 764.985 274.042 765.037 273.612 765.076C273.182 765.115 272.766 765.135 272.362 765.135C271.802 765.135 271.288 765.07 270.819 764.939C270.35 764.809 269.947 764.588 269.608 764.275C269.27 763.976 269.003 763.566 268.807 763.045C268.625 762.511 268.534 761.854 268.534 761.072V750.975H276.483V747.479H268.534V742.322ZM292.166 769.002C294.223 769.002 295.974 768.598 297.42 767.791C298.878 766.984 299.959 766.072 300.662 765.057L298.162 762.635C297.511 763.468 296.684 764.113 295.681 764.568C294.679 765.011 293.598 765.232 292.439 765.232C291.593 765.232 290.812 765.089 290.095 764.803C289.392 764.516 288.78 764.113 288.26 763.592C287.739 763.097 287.329 762.537 287.029 761.912C286.73 761.287 286.508 760.512 286.365 759.588V759.49H301.013V757.479C301.013 755.968 300.812 754.575 300.408 753.299C300.004 752.023 299.405 750.923 298.611 749.998C297.817 749.087 296.834 748.377 295.662 747.869C294.49 747.348 293.142 747.088 291.619 747.088C290.252 747.088 288.963 747.348 287.752 747.869C286.554 748.377 285.499 749.106 284.588 750.057C283.676 751.007 282.96 752.153 282.439 753.494C281.918 754.835 281.658 756.333 281.658 757.986V758.787C281.658 760.232 281.905 761.58 282.4 762.83C282.908 764.067 283.624 765.141 284.549 766.053C285.473 766.977 286.58 767.7 287.869 768.221C289.171 768.742 290.603 769.002 292.166 769.002ZM291.599 750.877C292.381 750.877 293.064 751.014 293.65 751.287C294.249 751.548 294.744 751.899 295.135 752.342C295.538 752.798 295.851 753.331 296.072 753.943C296.293 754.542 296.404 755.148 296.404 755.76V756.072H286.463C286.606 755.265 286.827 754.542 287.127 753.904C287.426 753.266 287.797 752.719 288.24 752.264C288.683 751.821 289.184 751.482 289.744 751.248C290.317 751.001 290.935 750.877 291.599 750.877ZM320.055 747.088C318.597 747.088 317.262 747.426 316.051 748.104C314.853 748.781 313.825 749.712 312.965 750.896L312.946 750.408L312.751 747.479H308.376V768.611H313.044V755.564C313.291 754.939 313.597 754.386 313.962 753.904C314.326 753.423 314.769 753.025 315.29 752.713C315.771 752.387 316.325 752.146 316.95 751.99C317.575 751.834 318.278 751.756 319.059 751.756C319.749 751.756 320.439 751.795 321.13 751.873C321.833 751.951 322.542 752.068 323.258 752.225L323.923 747.615C323.519 747.472 322.959 747.348 322.243 747.244C321.54 747.14 320.811 747.088 320.055 747.088Z" fill="white"/>
  <path d="M98.6836 565.941H94.6211V587.074H98.918V570.844C98.9961 570.648 99.0807 570.473 99.1719 570.316C99.276 570.16 99.3932 570.023 99.5234 569.906C99.6927 569.737 99.8945 569.613 100.129 569.535C100.376 569.444 100.656 569.398 100.969 569.398C101.255 569.398 101.509 569.438 101.73 569.516C101.965 569.594 102.167 569.717 102.336 569.887C102.505 570.056 102.629 570.29 102.707 570.59C102.798 570.876 102.844 571.228 102.844 571.645V587.074H107.062V571.391C107.062 571.26 107.062 571.163 107.062 571.098C107.062 571.02 107.062 570.954 107.062 570.902C107.115 570.681 107.193 570.486 107.297 570.316C107.401 570.134 107.531 569.978 107.688 569.848C107.857 569.704 108.052 569.594 108.273 569.516C108.495 569.438 108.755 569.398 109.055 569.398C109.341 569.398 109.602 569.438 109.836 569.516C110.083 569.594 110.292 569.717 110.461 569.887C110.63 570.069 110.76 570.31 110.852 570.609C110.943 570.896 110.988 571.247 110.988 571.664V587.074H115.285V571.703C115.285 570.596 115.168 569.652 114.934 568.871C114.712 568.077 114.393 567.432 113.977 566.938C113.56 566.469 113.065 566.124 112.492 565.902C111.932 565.668 111.314 565.551 110.637 565.551C110.116 565.551 109.634 565.616 109.191 565.746C108.762 565.876 108.371 566.059 108.02 566.293C107.746 566.475 107.492 566.697 107.258 566.957C107.023 567.217 106.815 567.497 106.633 567.797C106.503 567.471 106.346 567.185 106.164 566.938C105.982 566.677 105.773 566.456 105.539 566.273C105.24 566.026 104.882 565.844 104.465 565.727C104.048 565.609 103.579 565.551 103.059 565.551C102.056 565.551 101.197 565.792 100.48 566.273C99.7773 566.755 99.224 567.419 98.8203 568.266L98.6836 565.941ZM133.018 587.074H137.257V565.941H132.569V580.902C132.387 581.293 132.166 581.651 131.905 581.977C131.645 582.289 131.345 582.562 131.007 582.797C130.603 583.057 130.134 583.266 129.6 583.422C129.067 583.565 128.461 583.637 127.784 583.637C127.133 583.637 126.567 583.552 126.085 583.383C125.603 583.214 125.206 582.927 124.893 582.523C124.581 582.133 124.353 581.612 124.21 580.961C124.067 580.297 123.995 579.477 123.995 578.5V565.941H119.327V578.461C119.327 580.049 119.503 581.417 119.854 582.562C120.206 583.695 120.701 584.626 121.339 585.355C121.99 586.085 122.765 586.625 123.663 586.977C124.574 587.315 125.577 587.484 126.671 587.484C127.947 587.484 129.099 587.191 130.128 586.605C131.156 586.007 132.029 585.18 132.745 584.125L133.018 587.074ZM151.689 560.785H147.002V565.941H141.885V569.438H147.002V579.828C147.002 581.182 147.178 582.341 147.529 583.305C147.894 584.268 148.395 585.056 149.033 585.668C149.671 586.293 150.433 586.755 151.318 587.055C152.217 587.341 153.2 587.484 154.267 587.484C154.853 587.484 155.439 587.452 156.025 587.387C156.624 587.335 157.197 587.257 157.744 587.152C158.291 587.048 158.799 586.924 159.267 586.781C159.749 586.625 160.159 586.443 160.498 586.234L159.99 583.012C159.756 583.064 159.463 583.129 159.111 583.207C158.773 583.272 158.408 583.331 158.017 583.383C157.614 583.448 157.197 583.5 156.767 583.539C156.338 583.578 155.921 583.598 155.517 583.598C154.957 583.598 154.443 583.533 153.974 583.402C153.506 583.272 153.102 583.051 152.763 582.738C152.425 582.439 152.158 582.029 151.963 581.508C151.78 580.974 151.689 580.316 151.689 579.535V569.438H159.638V565.941H151.689V560.785ZM175.321 587.465C177.378 587.465 179.13 587.061 180.575 586.254C182.033 585.447 183.114 584.535 183.817 583.52L181.317 581.098C180.666 581.931 179.839 582.576 178.837 583.031C177.834 583.474 176.753 583.695 175.594 583.695C174.748 583.695 173.967 583.552 173.251 583.266C172.548 582.979 171.936 582.576 171.415 582.055C170.894 581.56 170.484 581 170.184 580.375C169.885 579.75 169.663 578.975 169.52 578.051V577.953H184.169V575.941C184.169 574.431 183.967 573.038 183.563 571.762C183.159 570.486 182.561 569.385 181.766 568.461C180.972 567.549 179.989 566.84 178.817 566.332C177.645 565.811 176.298 565.551 174.774 565.551C173.407 565.551 172.118 565.811 170.907 566.332C169.709 566.84 168.654 567.569 167.743 568.52C166.831 569.47 166.115 570.616 165.594 571.957C165.074 573.298 164.813 574.796 164.813 576.449V577.25C164.813 578.695 165.061 580.043 165.555 581.293C166.063 582.53 166.779 583.604 167.704 584.516C168.628 585.44 169.735 586.163 171.024 586.684C172.326 587.204 173.758 587.465 175.321 587.465ZM174.755 569.34C175.536 569.34 176.219 569.477 176.805 569.75C177.404 570.01 177.899 570.362 178.29 570.805C178.693 571.26 179.006 571.794 179.227 572.406C179.449 573.005 179.559 573.611 179.559 574.223V574.535H169.618C169.761 573.728 169.982 573.005 170.282 572.367C170.581 571.729 170.952 571.182 171.395 570.727C171.838 570.284 172.339 569.945 172.899 569.711C173.472 569.464 174.09 569.34 174.755 569.34ZM197.878 573.051L192.878 565.941H187.742L195.144 576.352L187.488 587.074H192.664L197.918 579.691L203.191 587.074H208.347L200.691 576.352L208.113 565.941H202.937L197.878 573.051Z" fill="white"/>
  <path d="M63.3867 437.736C63.3867 438.062 63.3021 438.361 63.1328 438.635C62.9766 438.908 62.7357 439.149 62.4102 439.357C62.0716 439.566 61.6354 439.735 61.1016 439.865C60.5807 439.982 59.9688 440.041 59.2656 440.041C58.6797 440.041 58.1068 439.982 57.5469 439.865C57 439.748 56.5117 439.559 56.082 439.299C55.6523 439.051 55.3008 438.726 55.0273 438.322C54.7539 437.906 54.5977 437.411 54.5586 436.838H49.3828C49.3828 437.697 49.5911 438.557 50.0078 439.416C50.4375 440.262 51.0625 441.018 51.8828 441.682C52.7031 442.359 53.7188 442.906 54.9297 443.322C56.1536 443.739 57.5599 443.947 59.1484 443.947C60.5938 443.947 61.9023 443.791 63.0742 443.479C64.2461 443.153 65.2487 442.704 66.082 442.131C66.9023 441.558 67.5339 440.881 67.9766 440.1C68.4323 439.305 68.6602 438.439 68.6602 437.502C68.6602 436.486 68.4323 435.614 67.9766 434.885C67.5339 434.143 66.9154 433.511 66.1211 432.99C65.3268 432.482 64.3828 432.066 63.2891 431.74C62.1953 431.415 61.0104 431.148 59.7344 430.939C58.849 430.809 58.1198 430.66 57.5469 430.49C56.974 430.308 56.5247 430.106 56.1992 429.885C55.8607 429.676 55.6263 429.442 55.4961 429.182C55.3659 428.908 55.3008 428.615 55.3008 428.303C55.3008 427.99 55.3724 427.697 55.5156 427.424C55.6719 427.137 55.8932 426.89 56.1797 426.682C56.4922 426.447 56.8958 426.265 57.3906 426.135C57.8854 426.005 58.4648 425.939 59.1289 425.939C59.9102 425.939 60.5742 426.037 61.1211 426.232C61.681 426.428 62.1237 426.688 62.4492 427.014C62.6836 427.261 62.8594 427.541 62.9766 427.854C63.0938 428.153 63.1523 428.479 63.1523 428.83H68.582C68.582 427.854 68.3672 426.949 67.9375 426.115C67.5078 425.282 66.8893 424.559 66.082 423.947C65.2617 423.348 64.2656 422.88 63.0938 422.541C61.9219 422.189 60.6003 422.014 59.1289 422.014C57.7227 422.014 56.4596 422.189 55.3398 422.541C54.2201 422.893 53.2695 423.368 52.4883 423.967C51.707 424.566 51.1081 425.262 50.6914 426.057C50.2747 426.851 50.0664 427.684 50.0664 428.557C50.0664 429.455 50.2682 430.249 50.6719 430.939C51.0885 431.63 51.6615 432.235 52.3906 432.756C53.1198 433.29 53.9922 433.745 55.0078 434.123C56.0365 434.488 57.1693 434.794 58.4062 435.041C59.3828 435.223 60.1901 435.406 60.8281 435.588C61.4661 435.77 61.9805 435.965 62.3711 436.174C62.7487 436.395 63.0091 436.63 63.1523 436.877C63.3086 437.124 63.3867 437.411 63.3867 437.736ZM83.1513 443.928C85.1955 443.928 86.9664 443.531 88.4638 442.736C89.9611 441.942 91.0549 441.057 91.745 440.08L89.0302 437.15C88.4052 437.958 87.5914 438.563 86.5888 438.967C85.5861 439.37 84.551 439.572 83.4833 439.572C82.7281 439.572 82.0315 439.455 81.3934 439.221C80.7554 438.986 80.189 438.654 79.6942 438.225C79.2124 437.808 78.8283 437.346 78.5419 436.838C78.2554 436.317 78.021 435.633 77.8388 434.787V434.729H92.1747V432.424C92.1747 430.874 91.9598 429.462 91.5302 428.186C91.1005 426.896 90.4755 425.796 89.6552 424.885C88.8218 423.973 87.8062 423.27 86.6083 422.775C85.4234 422.268 84.0692 422.014 82.5458 422.014C81.0744 422.014 79.7138 422.281 78.4638 422.814C77.2138 423.348 76.133 424.097 75.2216 425.061C74.3101 426.024 73.6005 427.176 73.0927 428.518C72.5848 429.846 72.3309 431.317 72.3309 432.932V433.713C72.3309 435.132 72.5848 436.467 73.0927 437.717C73.6135 438.954 74.3492 440.028 75.2997 440.939C76.2502 441.864 77.3895 442.593 78.7177 443.127C80.0458 443.661 81.5236 443.928 83.1513 443.928ZM82.5067 426.408C83.1968 426.408 83.8023 426.519 84.3231 426.74C84.857 426.949 85.3062 427.235 85.6708 427.6C86.0354 427.977 86.3218 428.42 86.5302 428.928C86.7385 429.436 86.8427 429.976 86.8427 430.549V430.979H77.9364C78.0666 430.288 78.2619 429.663 78.5223 429.104C78.7828 428.544 79.1083 428.062 79.4989 427.658C79.8765 427.255 80.3192 426.949 80.827 426.74C81.3348 426.519 81.8947 426.408 82.5067 426.408ZM99.4197 422.404H94.7517V443.537H99.6931V427.717C99.7582 427.548 99.8298 427.391 99.908 427.248C99.9861 427.105 100.077 426.981 100.181 426.877C100.325 426.734 100.487 426.623 100.67 426.545C100.852 426.467 101.06 426.428 101.295 426.428C101.503 426.428 101.698 426.46 101.881 426.525C102.063 426.577 102.226 426.675 102.369 426.818C102.499 426.962 102.603 427.163 102.681 427.424C102.76 427.684 102.799 428.016 102.799 428.42V443.537H107.584V427.951C107.584 427.795 107.584 427.671 107.584 427.58C107.584 427.489 107.584 427.43 107.584 427.404C107.649 427.261 107.727 427.137 107.818 427.033C107.909 426.916 108.013 426.812 108.131 426.721C108.274 426.63 108.424 426.558 108.58 426.506C108.749 426.454 108.938 426.428 109.146 426.428C109.342 426.428 109.53 426.46 109.713 426.525C109.908 426.577 110.077 426.675 110.22 426.818C110.364 426.975 110.474 427.183 110.553 427.443C110.644 427.704 110.689 428.036 110.689 428.439V443.537H115.631V428.459C115.631 427.287 115.513 426.298 115.279 425.49C115.058 424.67 114.745 423.999 114.342 423.479C113.925 422.971 113.437 422.6 112.877 422.365C112.33 422.131 111.737 422.014 111.099 422.014C110.592 422.014 110.123 422.079 109.693 422.209C109.263 422.339 108.879 422.521 108.541 422.756C108.267 422.938 108.013 423.16 107.779 423.42C107.558 423.667 107.356 423.947 107.174 424.26C107.056 423.934 106.913 423.648 106.744 423.4C106.588 423.14 106.399 422.919 106.178 422.736C105.891 422.489 105.553 422.307 105.162 422.189C104.771 422.072 104.329 422.014 103.834 422.014C102.818 422.014 101.952 422.281 101.236 422.814C100.533 423.335 99.9796 424.051 99.5759 424.963L99.4197 422.404ZM137.133 447.775V443.537H119.321V447.775H137.133ZM152.289 417.229H146.859V422.404H142.035V426.408H146.859V436.018C146.859 437.411 147.041 438.609 147.406 439.611C147.77 440.601 148.291 441.415 148.968 442.053C149.632 442.704 150.433 443.186 151.371 443.498C152.321 443.798 153.376 443.947 154.535 443.947C155.134 443.947 155.739 443.915 156.351 443.85C156.976 443.798 157.575 443.719 158.148 443.615C158.721 443.511 159.261 443.381 159.769 443.225C160.277 443.055 160.72 442.86 161.097 442.639L160.57 438.908C160.322 438.973 160.023 439.038 159.671 439.104C159.333 439.169 158.968 439.227 158.578 439.279C158.174 439.344 157.751 439.396 157.308 439.436C156.878 439.475 156.455 439.494 156.039 439.494C155.466 439.494 154.945 439.429 154.476 439.299C154.02 439.169 153.63 438.947 153.304 438.635C152.979 438.335 152.725 437.932 152.543 437.424C152.373 436.903 152.289 436.258 152.289 435.49V426.408H160.179V422.404H152.289V417.229Z" fill="white"/>
  <circle cx="1129" cy="706.537" r="88" fill="#B57CFF" stroke="#9163CC" stroke-width="4" stroke-miterlimit="0" stroke-linecap="round"/>
  <path d="M1075.76 701.404H1072.52V722.537H1075.96V705.721C1076.03 705.512 1076.13 705.317 1076.25 705.135C1076.38 704.952 1076.53 704.79 1076.7 704.646C1076.92 704.464 1077.19 704.327 1077.5 704.236C1077.82 704.132 1078.2 704.08 1078.63 704.08C1079.02 704.08 1079.36 704.132 1079.65 704.236C1079.95 704.327 1080.19 704.477 1080.39 704.686C1080.6 704.907 1080.75 705.187 1080.84 705.525C1080.94 705.864 1080.99 706.255 1080.99 706.697V722.537H1084.43V706.717C1084.43 706.639 1084.43 706.574 1084.43 706.521C1084.43 706.456 1084.43 706.391 1084.43 706.326C1084.47 706.001 1084.55 705.708 1084.67 705.447C1084.78 705.174 1084.95 704.933 1085.15 704.725C1085.36 704.529 1085.62 704.373 1085.94 704.256C1086.25 704.139 1086.62 704.08 1087.05 704.08C1087.45 704.08 1087.8 704.132 1088.1 704.236C1088.42 704.34 1088.68 704.497 1088.88 704.705C1089.08 704.926 1089.23 705.206 1089.33 705.545C1089.44 705.883 1089.49 706.274 1089.49 706.717V722.537H1092.93V706.756C1092.93 705.74 1092.81 704.861 1092.58 704.119C1092.34 703.364 1092 702.752 1091.56 702.283C1091.16 701.867 1090.66 701.554 1090.08 701.346C1089.49 701.124 1088.83 701.014 1088.1 701.014C1087.57 701.027 1087.08 701.098 1086.62 701.229C1086.18 701.359 1085.77 701.535 1085.41 701.756C1085.12 701.951 1084.86 702.179 1084.61 702.439C1084.36 702.7 1084.15 702.98 1083.96 703.279C1083.82 702.954 1083.64 702.661 1083.44 702.4C1083.24 702.14 1083.02 701.919 1082.77 701.736C1082.43 701.502 1082.04 701.326 1081.58 701.209C1081.14 701.079 1080.64 701.014 1080.08 701.014C1079.09 701.027 1078.24 701.242 1077.54 701.658C1076.85 702.075 1076.29 702.654 1075.86 703.396L1075.76 701.404ZM1111.17 722.537H1114.45V701.404H1110.82V716.561C1110.62 717.016 1110.37 717.439 1110.08 717.83C1109.79 718.208 1109.45 718.533 1109.06 718.807C1108.59 719.145 1108.04 719.412 1107.4 719.607C1106.76 719.79 1106.04 719.881 1105.23 719.881C1104.54 719.881 1103.93 719.79 1103.4 719.607C1102.87 719.425 1102.43 719.106 1102.07 718.65C1101.7 718.208 1101.43 717.609 1101.25 716.854C1101.06 716.098 1100.97 715.148 1100.97 714.002V701.404H1097.36V713.963C1097.36 715.538 1097.53 716.893 1097.87 718.025C1098.22 719.145 1098.71 720.07 1099.35 720.799C1099.99 721.528 1100.76 722.068 1101.66 722.42C1102.56 722.758 1103.56 722.928 1104.67 722.928C1106.05 722.928 1107.26 722.641 1108.32 722.068C1109.37 721.482 1110.25 720.669 1110.95 719.627L1111.17 722.537ZM1128.94 696.287H1125.31V701.404H1119.76V704.197H1125.31V715.682C1125.31 716.984 1125.48 718.097 1125.82 719.021C1126.17 719.933 1126.64 720.675 1127.24 721.248C1127.84 721.834 1128.54 722.264 1129.35 722.537C1130.17 722.798 1131.05 722.928 1131.99 722.928C1132.55 722.928 1133.11 722.902 1133.67 722.85C1134.24 722.798 1134.78 722.719 1135.29 722.615C1135.8 722.524 1136.27 722.413 1136.7 722.283C1137.12 722.14 1137.49 721.977 1137.79 721.795L1137.28 719.236C1137.06 719.288 1136.77 719.354 1136.42 719.432C1136.08 719.497 1135.72 719.562 1135.33 719.627C1134.92 719.692 1134.51 719.751 1134.1 719.803C1133.68 719.842 1133.28 719.861 1132.89 719.861C1132.35 719.861 1131.85 719.796 1131.36 719.666C1130.89 719.536 1130.48 719.308 1130.11 718.982C1129.75 718.67 1129.46 718.247 1129.25 717.713C1129.05 717.179 1128.94 716.502 1128.94 715.682V704.197H1136.99V701.404H1128.94V696.287ZM1152.87 722.928C1154.92 722.928 1156.65 722.518 1158.04 721.697C1159.45 720.864 1160.5 719.913 1161.21 718.846L1159 717.127C1158.33 717.986 1157.5 718.676 1156.5 719.197C1155.5 719.718 1154.35 719.979 1153.06 719.979C1152.08 719.979 1151.19 719.796 1150.39 719.432C1149.58 719.067 1148.89 718.566 1148.32 717.928C1147.76 717.329 1147.31 716.639 1146.99 715.857C1146.67 715.076 1146.47 714.171 1146.38 713.143V713.006H1161.48V711.385C1161.48 709.913 1161.29 708.546 1160.91 707.283C1160.55 706.02 1159.99 704.92 1159.23 703.982C1158.48 703.058 1157.53 702.335 1156.38 701.814C1155.25 701.281 1153.92 701.014 1152.4 701.014C1151.19 701.014 1150 701.261 1148.84 701.756C1147.7 702.251 1146.67 702.96 1145.78 703.885C1144.86 704.822 1144.14 705.968 1143.59 707.322C1143.04 708.663 1142.77 710.187 1142.77 711.893V712.713C1142.77 714.184 1143.02 715.545 1143.51 716.795C1144.01 718.045 1144.7 719.126 1145.58 720.037C1146.47 720.949 1147.53 721.658 1148.76 722.166C1150.01 722.674 1151.38 722.928 1152.87 722.928ZM1152.4 703.982C1153.32 703.982 1154.12 704.152 1154.78 704.49C1155.46 704.829 1156.02 705.271 1156.46 705.818C1156.9 706.365 1157.25 707.016 1157.49 707.771C1157.74 708.514 1157.87 709.21 1157.87 709.861V710.037H1146.5C1146.64 709.061 1146.89 708.201 1147.24 707.459C1147.61 706.704 1148.05 706.066 1148.57 705.545C1149.09 705.037 1149.68 704.653 1150.33 704.393C1150.98 704.119 1151.67 703.982 1152.4 703.982ZM1175.4 709.236L1169.82 701.404H1165.64L1173.51 711.854L1165.42 722.537H1169.64L1175.48 714.49L1181.32 722.537H1185.5L1177.42 711.854L1185.29 701.404H1181.05L1175.4 709.236Z" fill="white"/>
  <path d="M246.5 830.611C246.5 829.783 245.828 829.111 245 829.111C244.172 829.111 243.5 829.783 243.5 830.611H246.5ZM1130.06 797.476C1129.47 796.891 1128.53 796.891 1127.94 797.476L1118.39 807.022C1117.81 807.608 1117.81 808.558 1118.39 809.144C1118.98 809.729 1119.93 809.729 1120.51 809.144L1129 800.658L1137.49 809.144C1138.07 809.729 1139.02 809.729 1139.61 809.144C1140.19 808.558 1140.19 807.608 1139.61 807.022L1130.06 797.476ZM243.5 830.611V997.537H246.5V830.611H243.5ZM269 1023.04H1105V1020.04H269V1023.04ZM1130.5 997.537V798.537H1127.5V997.537H1130.5ZM1105 1023.04C1119.08 1023.04 1130.5 1011.62 1130.5 997.537H1127.5C1127.5 1009.96 1117.43 1020.04 1105 1020.04V1023.04ZM243.5 997.537C243.5 1011.62 254.917 1023.04 269 1023.04V1020.04C256.574 1020.04 246.5 1009.96 246.5 997.537H243.5Z" fill="#E6E6E6"/>
  <path d="M119.5 305.074C119.5 304.246 118.828 303.574 118 303.574C117.172 303.574 116.5 304.246 116.5 305.074H119.5ZM437.939 472.135C438.525 472.721 439.475 472.721 440.061 472.135L449.607 462.589C450.192 462.003 450.192 461.053 449.607 460.468C449.021 459.882 448.071 459.882 447.485 460.468L439 468.953L430.515 460.468C429.929 459.882 428.979 459.882 428.393 460.468C427.808 461.053 427.808 462.003 428.393 462.589L437.939 472.135ZM116.5 305.074V341.537H119.5V305.074H116.5ZM142 367.037H415V364.037H142V367.037ZM437.5 389.537V471.074H440.5V389.537H437.5ZM415 367.037C427.426 367.037 437.5 377.111 437.5 389.537H440.5C440.5 375.454 429.083 364.037 415 364.037V367.037ZM116.5 341.537C116.5 355.62 127.917 367.037 142 367.037V364.037C129.574 364.037 119.5 353.964 119.5 341.537H116.5Z" fill="#E6E6E6"/>
</svg>
